<svg xmlns="http://www.w3.org/2000/svg" viewBox="0 0 100 125">
  <path style="font-size:medium;font-style:normal;font-variant:normal;font-weight:400;font-stretch:normal;text-indent:0;text-align:start;text-decoration:none;line-height:normal;letter-spacing:normal;word-spacing:normal;text-transform:none;direction:ltr;block-progression:tb;writing-mode:lr-tb;text-anchor:start;baseline-shift:baseline;opacity:1;color:#000;fill:#000;fill-opacity:1;stroke:none;stroke-width:3.9999985699999998;marker:none;visibility:visible;display:inline;overflow:visible;enable-background:accumulate;font-family:Sans;-inkscape-font-specification:Sans" d="M12.719 17C9.026 17 6 20.026 6 23.719V76.25C6 79.942 9.026 83 12.719 83H87.28c3.694 0 6.72-3.058 6.72-6.75V23.719C94 20.026 90.974 17 87.281 17H12.72zm0 4H87.28c1.547 0 2.72 1.173 2.72 2.719v38.906L73 42c-1.579-1.914-3.778-3-6.031-3-2.254 0-4.453 1.086-6.031 3a2 2 0 0 0-.032.031L45.938 60.875 38 51.844l-.031-.063-.032.032c-1.577-1.883-3.744-2.97-5.968-2.97-2.246 0-4.45 1.084-6.032 3L10 71.157V23.72c0-1.547 1.173-2.72 2.719-2.72zM45 27c-5.5 0-10 4.5-10 10s4.5 10 10 10 10-4.5 10-10-4.5-10-10-10zm0 4c3.337 0 6 2.663 6 6s-2.663 6-6 6a5.97 5.97 0 0 1-6-6c0-3.337 2.663-6 6-6zm21.969 12c.992 0 2.06.43 2.969 1.531L90 68.906v7.344c0 1.546-1.173 2.75-2.719 2.75H12.72a2.634 2.634 0 0 1-2.531-1.781L29 54.375c.907-1.1 1.958-1.531 2.969-1.531 1.01 0 2.062.431 2.968 1.531a2 2 0 0 0 .032.031L44.5 65.313a2 2 0 0 0 3.063-.094L64 44.53l.031-.031c.902-1.074 1.957-1.5 2.938-1.5z"/>
</svg>
