<svg xmlns="http://www.w3.org/2000/svg" viewBox="0 0 700 700"
	style="enable-background:new 0 0 700 700" xml:space="preserve">
	<path d="M538.9 78.2c.4.4.9.4 1.3.4 4.6.5 9.1 1.2 13.5 2.4 10.2 2.7 19.4 7.3 27.8 13.7 2.7 2 5.2 4.2 7.5 6.6 7.4 7.4 13.7 15.6 18.2 25.1 3 6.4 5.1 13.1 6.2 20.1.9 5.9 1.2 11.8.9 17.7-.6 11.8-3.3 23.2-8.3 33.9-1.1 2.3-2.2 4.7-3.5 6.9-.2.3-.3.6-.5.8-.2.3-.5.2-.6-.1-.1-.4-.2-.7-.3-1.1-1.8-7.7-3.5-15.4-5.3-23.1-1.2-5.4-2.6-10.7-4.5-15.8-1.5-4.1-3.4-8.2-5.7-11.9-2.4-3.8-5.3-7.1-8.9-9.7-.6-.4-1.2-.8-1.8-1.1-.4-.2-.8 0-.8.4-.2 1.3-.4 2.7-.6 4-.6 4.3-1.8 8.4-3.8 12.3-2.2 4.2-5.2 7.9-8.7 11.1-4.1 3.7-8.3 7.3-12.5 11-.3.3-.6.6-1 .8-.3.2-.6.1-.8-.2-.5-1.2-1.1-2.5-1.6-3.7-2.6-7-6.4-13.4-10.2-19.7-1.3-2.1-2.7-4.2-4.1-6.2-1.7-2.6-3.8-5-6.1-7.1-3.5-3.1-7.5-5.1-12.3-5.5-3.4-.3-6.7.2-9.8 1.2-6.6 2.1-12.4 5.7-17.3 10.6-2.8 2.9-5.1 6.1-7 9.7-2.5 4.6-4.1 9.5-5.3 14.5-.5 2-.5 2-2.3 1.1-4.3-2.2-7.9-5.1-10.6-9.2-1.4-2.2-2.3-4.5-3-6.9-.1-.4-.1-1.1-.7-1.1-.5 0-.6.6-.8.9-2.4 4.1-3.9 8.6-4.9 13.3-.9 3.7-1.4 7.5-1.7 11.3-.1 1.8-.2 3.5-.3 5.3-.4 6-.1 11.9-.2 17.9 0 .3-.1.6-.1 1l-.1.1c-.4-.1-.5-.5-.7-.8-2.3-3.8-4.2-7.9-5.9-12-2.3-5.4-4.2-10.8-5.7-16.5-1.3-5-2.3-10.1-3-15.2-.3-2.8-.5-5.6-.7-8.4-.1-2.3-.2-4.5-.2-6.8.2-5.8.7-11.5 2.5-17 2-5.9 4.8-11.3 9.2-15.7 2.6-2.5 5.5-4.5 8.8-5.9 1-.4 2.1-.9 3.1-1.4.6-.3.6-.7-.1-1-.6-.3-1.2-.5-1.8-.7-2.5-.7-5.1-.8-7.7-.3-2.6.5-5.1 1.2-7.7 1.8-.4.1-.8.2-1.3.2-.3 0-.4-.2-.3-.4.1-.4.3-.8.5-1.2 1.7-3.2 3.9-6.1 6.5-8.6 2.1-2 4.3-3.9 6.8-5.4 2.5-1.6 5.1-2.8 7.8-3.8 4.7-1.8 9.5-2.7 14.5-3.2 2.9-.3 5.9-.6 8.8-.6 3.6 0 7.2.3 10.7 1 3 .6 5.7.2 8.4-1.3 7-3.7 14.5-6.1 22.3-7.2 1.6-.2 3.3-.4 5-.6.4 0 .8-.1 1-.4 3.4-.3 6.6-.3 9.8-.3zm-207 543.6c-.1-.4-.4-.6-.7-.9-6.9-6.2-13.8-12.3-20.7-18.5-3.2-2.9-6.4-5.7-9.7-8.6-.6-.5-1.1-1.1-1.4-1.8-1.6-3.6-3.1-7.1-4.2-10.8-.2-.8-.5-1.7-.6-2.5-.9-4.5 1.8-8.8 6.3-10 5.7-1.5 11.3-3 17-4.5.6-.2 1.2-.3 1.9-.4.6-.1 1 .6.7 1.1-.2.3-.5.6-.7.9-1 1-2.1 2-3.5 2.6-1.8.8-2.2 2.4-2.5 4.1-.1.6.1 1.1.3 1.6.5 1 1.1 2 1.8 2.9 1.3 1.7 2.7 3.4 4.2 4.9 3.2 3.4 6.6 6.6 10.3 9.6 3.2 2.6 6.7 4.5 10.7 5.5 3.2.8 6.5.8 9.7 0 1.3-.3 2.4-.9 3.5-1.6.4-.3.9-.5.8-1.3-.1-.4.4-.6.7-.9 2.3-2 3.5-4.6 4.7-7.3.3-.7.5-1.5.6-2.4.1-.8.2-1.6.5-2.4.1-.3.2-.7.2-1.1.1-1.7.2-3.4.3-5.2.1-3.7.1-7.4.4-11.1.2-3.3.1-6.6.5-9.8.2-1.8.1-3.7.1-5.5 0-1.3-.3-1.5-1.4-1.1-1.6.5-3.2 1-4.8 1.3-4.3.9-8.6 1.3-13 1.2-8-.1-15.6-1.9-23-4.6-2.8-1-5.7-2.1-8.4-3.4-3.9-1.9-7.7-4.1-10.7-7.4-2.1-2.2-3.6-4.8-4.1-7.9-.1-.6-.1-1.2-.1-1.8 0-4.3.1-8.6-.1-12.9-.2-3.6-.1-7.2-.5-10.8-.1-1.4 0-2.8.6-4.1.5-.9 1-1.7 2.1-1.7.2 0 .4-.1.6-.2.4-.1.7-.3.7-.8 0-.9.5-1.5 1.2-2 4.2-3.5 8.4-7 12.7-10.5 4.6-3.8 9.1-7.5 13.8-11.2 4.5-3.6 9-7 13.9-10 2.2-1.4 4.4-2.7 6.8-3.7 1.3-.6 2.6-1 4-1.2 1.2-.2 2 .2 2.8 1.1 2.9 3.6 5.8 7.2 8.8 10.8l15.9 19.5c1.1 1.3 1.7 2.7 2 4.3.7 3.4 1.1 6.9 1.4 10.4.3 3.7.7 7.4.9 11.1.2 3 .2 5.9.5 8.9.2 3.1.2 6.1.5 9.2.1 1.1 0 2.3.1 3.4.1 3.9.3 7.8.4 11.8.1 3.5.1 7 .3 10.5.4 5.5.2 11.1.1 16.6 0 2.8-.1 5.7-.3 8.5 0 .9-.3 1.6-.9 2.2-.3.3-.6.6-.9 1-1.7 2.4-3.9 4.3-6.2 6l-23.4 17.7c-4.9 3.7-10 7.2-15.3 10.2-1.6.9-3.2 1.7-5 2.3-.3.1-.6.3-.9.4-.8.3-1.5.3-2.3.3zm12.7-93.7c1.1 0 2.3-.2 3.4-.2 4.5-.2 8.9-1.1 13.2-2.3 2.7-.8 2.6-.5 2.4-3.4-.2-4.1-.5-8.2-.9-12.2-.4-4.5-1.3-8.9-2.5-13.3-.7-2.6-1.8-5.1-3.4-7.3-2-2.7-4-5.3-6.3-7.8-1.1-1.2-2.3-2.4-3.6-3.5-.8-.6-1.5-1.2-2.5-1.5-1.2-.4-1.6-.2-2.3.8-.9 1.1-1.7 2.2-2.6 3.3-2.9 3.5-6.1 6.8-9.2 10.1-3.2 3.4-6.5 6.8-9.7 10.2-.4.4-.8.9-1.2 1.3-.1.2-.3.5-.3.6.6.7-.2 1.2-.3 1.7-.2.6-.3 1.3-.3 1.9 0 2.5.3 4.9 1 7.3.8 2.9 2.2 5.5 4.4 7.6 2.4 2.4 5.3 3.9 8.6 4.9 4 1.4 8.1 1.7 12.1 1.8zM38.3 256.5c.4-.1.6-.4.8-.8 1.2-2.1 2.3-4.1 3.5-6.2.2-.3.4-.7.7-.9.3-.2.8-.1 1 .2.2.3.3.7.3 1.1.1.6.2 1.2.4 1.7l.6 1.5c.7 1.2 1.8 1.2 2.6.1.2-.3.3-.6.4-.9.2-.6.4-1.1.4-1.7-.1-1.8.5-1.9 2.1-2.1 2.9-.3 5.9-.5 8.8-.7.9-.1 1.7-.2 2.6-.3 1-.1 1.6.1 2.1 1.1.7 1.4 1.7 2.5 3 3.3 1.5.9 1.6 2.6.4 3.8-.7.6-1.3 1.3-1.9 2-.1.1-.2.1-.2.2-1 1.2-2.1 2.3-3.5 3-.5.3-.9.6-1.1 1.2-.2.5 0 .9.5.9.4 0 .9 0 1.3.1.5 0 .9.2 1.3.6.7.7.6 1.6-.2 2.1-.6.3-.9.7-1 1.4 0 .2-.2.4-.3.5-.4.6-.4.9.3 1.1.9.3 1.9.3 2.9.1 1.2-.2 2.4-.4 3.7-.7.5-.1.9-.2 1.4 0 .7.3 1.4.4 2.2.5.6.1.8.3.9 1v6.9c.1 3.4 0 6.8-.7 10.1-.2 1.2-.2 2.5-.1 3.7.2 1.5.3 3 .4 4.5.1 1.8.4 3.6.8 5.4.3 1.2.1 2.1-.8 3.1-1.8 1.8-3.6 3.7-5.3 5.6-2.8 3.1-5.8 6-8.5 9.3-.9 1.1-1.7 2.2-2.5 3.4-1 1.5-2.1 2.9-3.4 4.1-.8.7-1.7 1.3-2.7 1.7-1.7.6-3.2.1-4.2-1.4-.5-.7-.7-1.6-.9-2.4-.9-5.7-.2-11.3 2.2-16.5.9-1.9 2.2-3.5 3.5-5.1 1.1-1.4 2.3-2.8 3.5-4.2 2.2-2.4 3.4-5.2 3.9-8.3.2-1.2.6-2.3.8-3.4.3-1.1.5-2.2.8-3.3.2-.8 0-1.6-.5-2.3-.9-1.1-1.8-2.2-2.7-3.2-.5-.6-1.1-.7-1.9-.6-2.4.3-4.8.6-7.2.8-1.1.1-2.3.2-3.4-.1-2-.5-3-1.7-3.2-3.8-.1-.9 0-1.7.2-2.6.2-1 .1-1.8-.6-2.6-.5-.5-.6-1.1-.5-1.8.1-.5 0-1-.3-1.4-.6-.9-.6-1.8-.2-2.8.1-.2.1-.4.1-.6.3-1.4.2-1.5-1.1-2.3-.4-.3-.8-.6-1.1-.9-.2-.3-.5-.6-.9-.6.5-.7.5-1.2.5-1.6zm623.4 0c-.3.3-.4.7-.4 1.2-.1.9-.3 1.7-.6 2.5-.2.7-.6 1.1-1.3 1.3-2.3.7-4.6 1.3-6.9 1.7-.9.2-1.1 0-1.3-.8-.9-3.7-1.2-7.4-.1-11.2.5-1.5 1.1-2.9 2.3-4 .5-.4 1-.8 1.6-1.1 1.3-.5 2.5-.4 3.6.7 1.3 1.3 2.1 2.8 2.6 4.6.1.4 0 .9.5 1.1v4zm-89.2 136.6c-.6.2-1 .5-1.5.9-7.6 5.8-15.3 11.5-22.7 17.7-2.7 2.2-5.3 4.5-8 6.8-3.2 2.7-6.5 5.4-9.6 8.1-2 1.7-3.8 3.5-5.7 5.3-3 2.7-6 5.4-8.9 8.1-2.1 2-4.3 3.9-6.3 6-3.6 3.7-7.3 7.3-10.8 11.1-7.9 8.4-15.4 17.1-22.2 26.4-1.9 2.6-3.6 5.2-5.3 7.9-2.6 4-5.3 8-7.6 12.2-2.5 4.6-5 9.3-6.8 14.3-.3.9-.6 1.7-.6 2.7 0 .8-.4 1.3-1 1.7-2.1 1.1-4.1 2.3-6.2 3.4 0 0-.1 0-.2-.1.1-.9.4-1.9.7-2.7.5-1.3 1-2.6 1.7-3.8 1.6-3.3 3.4-6.5 5.2-9.7 3-5.3 6.3-10.5 9.7-15.6 1.1-1.6 1.3-3.3 1.1-5.1-.2-1.9-.7-3.7-1.4-5.4-.6-1.4-.9-2.9-.9-4.4.3 1.3.9 2.5 1.6 3.7.8 1.3 1.4 2.8 1.9 4.3.1.3.2.6.4.9.1.2.3.1.4 0 .2-.3.3-.7.3-1.1 0-1 0-2 .1-3.1l.3 3c0 .2.2.3.3.2.1 0 .2-.1.2-.2.1-.1.1-.2.1-.3.1-.4.2-.8.1-1.3 0-.3-.1-.6-.1-1 .1-3.9-.3-7.7-.7-11.6-.4-4.1-.4-8.3-.2-12.4.2-3.8.8-7.5 1.7-11.1.4-1.4 1.1-2.7 1.7-4l-.6 3.3c-.6 3.1-.6 6.3-.3 9.5.5 4.3.9 8.7 1.3 13 .2 2 .3 4 .4 6 0 1 0 1.9-.2 2.9-.1.4-.2.8.1 1.3.4-.1.5-.5.5-.8.2-1.7.5-3.4.4-5.1-.1-2.6-.3-5.3-.5-7.9-.2-3.3-.7-6.5-.9-9.8-.1-2.2-.2-4.3-.2-6.4 0-1.7.3-3.3.3-5 0-2.8 1.6-4.9 3-7.2.4.1.2.4.1.5-1.4 5.5-1.4 11.1-.3 16.6.4 2.1.6 4.3.9 6.4l.3 2.1c0 .3 0 .8.4.8.5 0 .4-.6.4-.9.1-1.1.2-2.1.2-3.2.1-2.8.5-5.5.8-8.2.2-1.4.4-2.8.5-4.2.1-1.3.4-2.7.7-4 .5-1.8.9-3.6 1.4-5.5.2-.8.6-1.5.9-2.2.9-1.8 1.8-3.6 3-5.1.6-.8 1.3-1.6 2.1-2.1.3.3.3.5.1.8-.3.6-.6 1.3-1 1.9-.5.9-.9 1.9-1.2 3-.6 2.8-1.3 5.6-1.6 8.4-.4 3.5-.6 7.1-.2 10.6.1 1.1.1 2.1.1 3.2 0 .3.1.6.2.9 0 .1.2.2.2.2.1 0 .2-.1.2-.2v-1.3c-.1-6.7.3-13.3 1.6-19.9.5-2.5 1.4-4.9 2.4-7.2.1-.2.2-.4.5-.3.1.1.2.3.2.4 0 .2-.1.4-.1.6-.2 1-.5 2-.7 3-.7 3.3-1.5 6.6-1.7 10-.1 2.3-.4 4.6-.3 6.9.1 2.8.6 5.6 1.4 8.3.1.2.1.4.4.5.4-.3.3-.8.2-1.1-.5-3.2-.3-6.3-.4-9.5-.1-3.5.5-7 1.2-10.4.2-.8.3-1.7.6-2.5.2-.7.3-1.4.6-2 1.8-4.2 3.8-8.2 7-11.5 1.2-1.2 2.4-2.4 3.8-3.5 3.1-2.6 6.1-5.3 9.4-7.6 5.9-4.1 11.9-7.9 18.4-11.1 1.9-.9 3.8-1.7 5.9-2.4-.4.5-.8 1.1-1.2 1.6-.4.6-.7 1.2-1.1 1.8-.4.6-.7 1.2-1 1.8-.3.6-.7 1.2-1 1.8-.3.6-.6 1.3-.9 1.9-.3.6-.6 1.3-.9 1.9-.3.6-.5 1.3-.8 1.9-.2.7-.5 1.3-.7 2-.2.6-.6 1.2-.5 1.9.6-.1.6-.6.8-.9 1.5-2.9 2.9-5.9 4.5-8.8.9-1.7 1.9-3.4 2.9-5 1.2-1.9 2.7-3.3 4.8-4.2 1.3-.5 2.5-1.3 3.7-1.9.5-.3 1-.6 1.6-.6.1.5-.2.7-.4 1-1.4 2-2.6 4.2-3.8 6.4-.4.8-.8 1.5-1 2.4l-.1.1h.1s0-.1.1-.1c.7-.5 1-1.2 1.4-1.9 1.9-3.3 4-6.4 6.1-9.5 1.2-1.8 2.6-3.5 4.2-4.9 1.1-1 2.4-1.8 3.8-2.3 2.7-.9 5.3-2.1 8-3 5.8-2.1 11.6-3.9 17.5-5.5 5.5-1.5 10.9-2.9 16.4-4.1 1.7-.4 3.4-.6 5.1-.9 1.1-.2 2.2-.4 3.3-.7 1.5-.5 3-.6 4.8-.8-.6.7-1 1.2-1.5 1.7-.1.2-.2.4 0 .6.1.1.3.1.4.1.3 0 .5-.1.8-.1 2.1-.3 4.3-.3 6.4-.1.3 0 .6.1.9.2.4.1.4.5.1.7-1 .7-2 1.3-2.9 2.1-.7.7-1.3 1.4-1.9 2.2-.3.5-.1.9.5.9.7 0 1.4-.1 2.1-.2.2.3-.1.5-.2.7-.2.3-.5.6-.7.9-5.5 5.9-11.6 10.9-18.6 14.8l-4.8 2.7c-.5.3-.9.6-1.3.9-1.8 1.5-3.9 2.7-6 3.7s-4.1 2.1-6.3 3c-4.6 1.9-9.1 4-13.7 5.6-.3.1-.7.2-.9.6.2.4.5.3.8.2 1.4-.3 2.7-.6 4.1-.9 3-.7 6-1.4 8.9-2.3 4.6-1.4 8.6-3.8 12.5-6.7.3.2.1.4 0 .5-1.8 3.7-3.8 7.2-6.3 10.5-3.5 4.5-7.8 8.2-12.9 10.8-1.7.8-3.5 1.5-5.2 2.2-1.2.5-2.3 1-3.2 1.8-1.5 1.2-3.2 2-5 2.6-.8.3-1.4.7-1.9 1.4-2.6 3.5-5.6 6.7-8.7 9.7-3 2.8-6 5.8-9.2 8.3-1.5 1.2-3 2.4-4.4 3.7-1.5 1.4-2.8 2.8-4.2 4.3-2 2.1-3.7 4.5-5.8 6.5-4.4 4.1-9.3 7.7-15 9.9-3.7 1.5-7.6 2.5-11.5 3.1-2.3.4-4.7.7-7 1.1-1.3.2-2.6.6-3.9 1-.2.1-.4.2-.6 0-.2-.4.1-.6.3-.8 4.5-5.8 9.2-11.5 14.2-17 3.8-4.2 7.6-8.3 11.7-12.3l8.1-8.1c2.1-2 4.3-3.9 6.4-5.9.7-.7 1.5-1 2.5-1.1 1.9-.1 3.9-.2 5.8-.4 3.5-.3 7-.3 10.5-.4 2.5-.1 4.9-.3 7.4-.9.7-.2 1.4-.5 2.1-.7.1 0 .2-.2.3-.4 0-.2-.2-.2-.3-.2-2.1.4-4.3.6-6.4.7-.7 0-1.4.1-2.1.1-3.1.1-6.2.2-9.3.4-2.3.2-4.6.5-6.9.8-.3-.4.1-.5.2-.7.9-.8 1.7-1.6 2.6-2.4 2.5-2.3 5-4.5 7.6-6.8 5.3-4.8 10.8-9.4 16.3-14 5.4-4.5 10.8-8.9 16.2-13.4-.1-.4.4-.7.5-1.4.1-.1.2-.1.2-.2s.1-.2.1-.3l-.2-.1c-.1 0-.1.2-.1.3v.3zM485.7 433c-.2.3-.3.4-.4.6-2.3 5.5-3.5 11.2-3.6 17.1 0 3.4-.2 6.9-.3 10.3 0 1.7-.2 3.3-.3 5 0 .2-.1.6.4.6.5-.8.5-1.7.7-2.6.8-4 .6-8 .9-12 .2-2.2.1-4.4.3-6.6.3-3.6 1-7.1 2-10.6.2-.5.4-1 .3-1.8zm41.7-139.4c0 .4-.3.5-.6.6-1.4.9-2.7 1.7-4.1 2.6l-.6.3c-.9.6-1 .9-.2 1.6.7.6 1.3 1.2 2.1 1.8 2.5 1.8 5.3 3.1 8.2 4.2.1 0 .2.1.3.1.8.2 1 .1 1.1-.8v-.8c0-2.9 0-5.7-.1-8.6-.2-3.1-.1-6.1-.3-9.2-.2-3.2-.1-6.3-.3-9.5-.2-3.2-.2-6.5-.2-9.7 0-1.8-.6-3.4-2-4.6-.7-.6-1.3-1.1-2-1.7-.3-.3-.2-.6.2-.7.3-.1.5-.1.8-.1 1.5 0 3-.1 4.5-.1 1.3 0 2.7 0 4-.2.7-.1 1.4-.1 2.1 0 2.7.3 5.4.2 8.1.2h.2c.6.1 1.5-.2 1.8.3.4.6-.5 1.1-.8 1.6-.8 1-1.2 2.1-1.2 3.4-.2 8.4-.1 16.8.1 25.2.1 3.8.1 7.6.3 11.5.1 1.8.3 2 2 1.2 3.8-1.8 7.2-4 10.6-6.4.7-.5 1.1-1.1 1.1-2-.1-6 0-12.1-.1-18.1 0-3.2-.2-6.3-.3-9.5-.1-2.2-.4-4.4-.5-6.6-.1-1.4-.7-2.5-1.5-3.5-.3-.4-.9-.7-.7-1.2.2-.5.8-.3 1.3-.3h18c.6.1.7.4.5.9-.5 1-1.1 2-1.6 3-.9 1.8-1.3 3.6-1.3 5.6v25c.1.9.3 1.1 1.2 1 1.5-.2 3.1-.5 4.6-.8 1.9-.3 3.7-.1 5.5.8.8.4 1.5.8 2.3 1.2.6.3.9 0 .9-.6 0-.8-.1-1.5-.2-2.2-.9-8.2-1.9-16.3-3.1-24.5-.8-5.5-1.4-11-2.2-16.5 0-.2-.1-.4-.1-.6 0-.5.2-.8.8-.8h.8c2.6.1 5.3-.1 7.9.2 2.4.2 4.8.1 7.3.1h.6c1.6 0 1.8.2 1.8 1.7v3.4c0 1 .4 1.3 1.3 1 1.9-.6 3.8-1.3 5.6-2 .7-.2 1.3-.5 2-.7 1.3-.4 1.4-.4 2.2.6 2.5 3 5.1 6 7.6 9 1.4 1.7 2.7 3.5 4.1 5.2 1.3 1.6 1.8 3.4 1.7 5.4-.1 1.9-.3 3.9-.5 5.8-.2 2.1-.5 4.3-.6 6.4-.2 3.9-.6 7.8-.9 11.7-.1.9-.4 1.5-1 2.1-1.4 1.5-3.1 2.6-5 3.5-2.6 1.3-5.5 1.9-8.3 2.5-1 .2-1.8 0-2.3-1-1.6-2.6-3.2-5.2-4.8-7.9-.1-.2-.3-.5-.3-.7-.1-.3.1-.5.4-.6.8-.1 1.5.3 2.1.8.9.7 1.6 1.6 2.3 2.5.5.7 1 1.3 1.6 1.8.4.3.7.3 1.1-.1.9-.9 1.4-2 1.8-3.2.6-2.2.7-4.5.5-6.7-.1-.8-.2-1.6-.2-2.4-.1-4.3-.2-8.6-.4-12.9-.2-4.8-.5-9.7-1.5-14.4-.1-.3-.1-.5-.1-.8-.2-.7-.4-1-1.1-.9-2.1.2-4.2.4-6.2 1.1-.7.3-1.1.7-1.2 1.5-.2 1.1-.3 2.2-.3 3.4 0 3.9-.1 7.9.1 11.8.4 6.5.1 13 .2 19.5 0 3.7.3 7.4.6 11.1.2 2.4.3 4.8.4 7.2.2 2.8.3 5.6.3 8.4v.9c-.6.1-.6-.4-.7-.6-.9-1.7-1.7-3.4-2.5-5-.2-.5-.4-1-.9-1.3-.4.1-.3.4-.4.6-.3 3.4-.4 6.8-.2 10.2.3 4.1.2 8.3.2 12.4 0 2.6-.3 5.3-.2 7.9 0 .1-.1.3-.1.4-.4.1-.5-.2-.7-.4-1-1.3-1.8-2.7-2.4-4.2-.3-.6-.5-1.2-.9-1.7-.1-.1-.3-.2-.4-.2-.3 0-.3.2-.4.4-.1 1.4-.2 2.9-.3 4.3-.2 2.9-.4 5.9-.6 8.8-.4 5.5-.8 11-1.4 16.7-.4-.3-.3-.7-.4-1-1.1-6.6-2.2-13.2-3.3-19.7l-3.3-20.1c-.5-2.7-.9-5.4-1.4-8.1-.1-.4-.2-.8.1-1.3.6.2 1.1.7 1.5 1.1.5.4.9.9 1.4 1.3.2.1.3.3.6.2.2-.1.3-.3.3-.5 0-.5-.1-1.1-.1-1.6-1.1-8.4-2.1-16.9-3.8-25.2 0-.1 0-.2-.1-.3-.2-1-.4-1.2-1.4-1-1.9.3-3.8.6-5.7 1.3-1.4.5-2 1.4-2 2.9 0 4.4-.2 8.7.1 13.1.3 6.7.1 13.4.2 20.2v6c0 2.2.3 4.3 1 6.4.5 1.7 1.3 3.2 2.7 4.3.5.4 1.4.8 1.1 1.6-.3.6-1.2.2-1.8.2-1.6-.1-3.1-.2-4.7-.4-4.3-.4-8.6-.7-12.9-.5h-3.1c-.4 0-.8 0-1.1-.1-.6-.2-.8-.8-.4-1.3.4-.4.8-.8 1.2-1.1 1-.8 1.8-1.8 2.5-2.9.7-1.1 1.2-2.3 1.4-3.6.2-2.2.5-4.4.6-6.6.3-3.7.4-7.4.4-11.1 0-2.2 0-4.3-.1-6.5-.1-3.2-.4-6.3-.6-9.5 0-.2 0-.4-.1-.6-.1-.4-.5-.6-.9-.4-.5.2-.9.5-1.4.8-3 1.7-6.1 2.9-9.4 3.8-2.1.6-2 .5-2 2.6 0 3.9-.1 7.8.1 11.6.3 4.5.1 8.9.3 13.4.1 1.6.7 2.9 1.9 3.9.7.6 1.4 1.1 2.2 1.6-.3.3-.6.1-.8.1-3.6-.4-7.2-.6-10.8-.8-3.4-.2-6.8-.2-10.2-.3-1.2 0-2.5-.2-3.7-.3-.5 0-.6-.4-.3-.8.4-.5.9-.8 1.4-1.1.8-.6 1.7-1.2 2.5-1.8 1-.7 1.5-1.6 1.7-2.8.2-1.2.5-2.3.5-3.5.2-3 .6-6 .3-9-.2-2.8-.1-5.6-.2-8.4-.1-2.5-.2-2.7-2.5-3.8-1.6-.8-3.3-1.7-4.9-2.5-3.5-1.6-5.9-4.3-7.4-7.8-.4-.8-.7-1.7-1-2.5-.2-.6-.1-.8.5-1 2.9-.9 5.8-1.6 8.8-1.9-.1 0 .1 0 .2.2zm-363.1 60.1c-.4.6-.9.9-1.4 1.2-1.9 1.4-3.9 2.8-5.7 4.2-.4.3-1.3.6-1 1.3.2.5 1 .2 1.5.1 1.7-.3 3.5-.7 5.2-1 4.6-.7 9-.1 13.2 1.8 1.3.6 2.6 1.3 3.8 2.1.3.2.6.4 1 .6 1 .5 1.9.4 2.7-.4 1.1-1 1.8-2.1 2.4-3.4.9-1.9 1.3-3.9 1.6-5.9.8-6.2 2.9-11.9 6.2-17.2 2.9-4.5 4.9-9.3 5.9-14.6.7-4 1.1-8 .6-12-.1-1.2-.2-2.5-.4-3.7-.4-2.6-1.6-4.9-3.5-6.7-2.8-2.6-6.2-2.6-8.9.1-.8.8-1.5 1.7-2.1 2.6-.3.4-.7.4-.8-.1-.7-1.9-.4-3.7.9-5.3.9-1.1 2.1-1.8 3.6-2 2.1-.3 4.3-.3 6.4.3 2.1.6 3.8 1.8 5.1 3.5 3.4 4.1 5.3 8.8 6.3 14 .5 2.4.7 4.9 1 7.4.4 4.1.8 8.2 1.2 12.4.5 4.7.1 9.4-1.9 13.7-1.5 3.2-3.5 6.1-5.9 8.6-1.6 1.6-3.2 3.2-4.9 4.7-1.6 1.4-2.9 3-4.1 4.7-1.2 1.8-2.3 3.7-3.7 5.3-.8.9-.8 2-.6 3 .1.6.3 1.1.5 1.7 1.2 3 1.4 6.2 1.4 9.4 0 2.9-.2 5.7-.5 8.5 0 .6-.2 1.2-.4 1.7-.3.8-.2 1.3.5 1.8.8.5.7.7 0 1.3l-.1.1c-2.9 1.7-5.3 4-7.9 6.1-2.7 2.2-5.6 4-8.9 5.2-4.7 1.7-9.4 2-14.3 1.1-.8-.1-1.6-.3-2.4-.5-.3-.1-.5-.1-.8-.1-.2 0-.4.1-.6.2-.1.2 0 .4.1.6.3.5.7.8 1.2 1 .8.4 1.6.7 2.3 1.1.3.2.7.3 1 .5.2.1.1.5-.1.7-.3.2-.6.2-.9.1-9.3-2.1-16.3-6.9-19.6-16.2-.4-1.1-.7-2.3-1.1-3.4-.3-.9-.6-1.7-1-2.6-.8-1.8-2-2.4-3.9-2.1-2 .3-4 .8-6 1.3-3.6.8-7.3 1.4-11 1.8-3.3.4-6.6.6-10 .8-3 .1-5.9.3-8.9.5-1.7.1-3.4-.2-5.1-.8-8.2-2.9-14.7-7.9-18.7-15.7-2.3-4.5-5.2-8.6-8.4-12.4-2.1-2.5-4.1-5-5.6-7.9-2.2-4-3.5-8.3-4.5-12.7-.5-2-.8-4.1-1.2-6.2-.3-1.9-.1-3.7.4-5.6.7-2.4 3.1-3.3 5.1-2.5 1.6.6 2.7 1.7 3.5 3.1l.3.9c.1.6-.2 1.1-.8 1.2-.7.2-1.4.3-2.1.3-.7.1-1.4.2-2 .4-1.3.5-1.8 1.3-1.7 2.8.1.6.3 1.3.5 1.9 2.4 5.2 5.3 10.1 9.1 14.4 3.5 3.9 7.6 7.1 12.4 9.3 3 1.4 6.2 2 9.6 2.1 2.8 0 5.6.1 8.4.3 4.1.3 8.1 1.1 12 2.3 3.7 1.2 7.2 2.6 10.6 4.4 4.2 2.2 8.5 4.2 12.9 5.9.8.3 1.5.6 2.3.8 1.6.5 2.4.1 3.3-1.3.3-.5.5-.9.7-1.4 2.2-5 5.5-9.1 9.6-12.6 3.3-2.8 6.8-5.3 10.5-7.5 1.5-.9 2.9-1.8 4.4-2.7.9-.2 1.4-.6 2.2-.7zm1.8 46.8c.4-.5.4-1.1.5-1.6 0-.6.1-1.2.1-1.8 0-.4 0-.8.4-1 .5-.2.5-.6.5-1.1 0-1.2-.1-2.5-.1-3.7 0-.4 0-.7.6-.6.4.1.4-.3.4-.6v-2.7c0-.3-.1-.7.3-.9.1.1.3.1.4.3 1.3 1.4 1.3 1.3 3.1.3.8-.4 1.2-1 1.3-1.9.2-1.2.4-2.3.6-3.5.2-.8 0-1.5-.5-2.1-.6-.7-1.1-1.5-1.6-2.2-.5-.6-1-.9-1.8-.6-.6.3-1.2.4-1.6-.4-.1-.2-.4-.3-.7-.3-.9-.1-1.7-.1-2.6 0-.5.1-.7.3-.7.9 0 .8.1 1.5.2 2.2.2 1.9.5 3.7.8 5.7-.6-.1-1.1 0-1.6.3-.2.2-.6.2-.9.3-.5.1-.8 0-.8-.5-.1-1.9-.4-3.9.2-5.8.1-.4-.1-.6-.4-.7-1-.2-2-.1-3.1 0-.3 0-.6.3-.5.7.2.4.2.8.2 1.3v6c0 .9-.4 1.5-1.2 1.9-.8.4-1.2.2-1.2-.6-.1-2.1-.1-4.2-.1-6.3V380c0-.4-.2-.7-.7-.8-1-.2-1.9-.2-2.9 0-.3.1-.7.3-.5.7.4.9.3 1.8.3 2.7v5.2c0 .3 0 .6-.3.7-.3.1-.5 0-.7-.2-.2-.2-.4-.5-.6-.8-.1-.2-.3-.3-.6-.2-.2.1-.3.3-.3.5 0 .4.1.7.3 1.1.3.5.7.8 1.2 1 .8.3 1 .9 1 1.6-.1 1.8.3 3.5-.5 5.2 1.3.4 3.3.4 4.5 0-.4-1.6-.2-3.3-.2-5 0-.2 0-.4.1-.6.2-.6 1.3-1.3 1.8-1.1.6.2.3.8.4 1.3v.8c0 1.9.2 3.8-.3 5.7 1.7.3 3.1.3 4.2-.1-.4-2.1-.7-7.3-.5-9.6v-.3c.1-.5.5-.8 1.1-.7.7.2 1.3.6 1.3 1.4 0 .6.5 1.3.1 1.9-.6.7-.4 1.4-.3 2.1.4 2.1.8 4.2 1.1 6.3.3.7.4 1.2.8 1.7zm194.3-118c-.1-.1-.2-.3-.2-.4-.1-2-.2-4 0-6 .5-4.1 1.5-8 2.8-11.9.6-1.9 1.3-3.9 1.9-5.8.9-3.2 2.9-5.6 5.5-7.5 1.7-1.2 3.5-2.3 5.4-3.3.6-.3 1.2-.7 1.9-.9 1.7-.7 3.1-1.8 4.5-3 4.3-3.7 9.3-5.9 14.9-7 3-.6 6.1-.8 9.2-.6 3.7.1 7.2 1.1 10.3 3.2 1.1.8 2.3 1.6 3.4 2.4 1 .7 2 1.2 3.2 1.4 1.5.3 3.1.6 4.6.9 1.4.3 2.8.8 4.1 1.5 7.3 4.2 12.5 10.2 15.6 18.1.5 1.3.9 2.5 1.2 3.9.1.3.1.5.1.8 0 .3-.3.5-.6.4l-1.2-.6c-1.8-.9-3.5-1.9-5.3-2.8-2.1-1-4.3-1.7-6.6-2.2-1.6-.3-3 .1-4.1 1.2-.9.9-1.9 1.7-2.8 2.6-1.2 1.2-2.6 2-4.1 2.4-2.2.5-3.8 1.8-5.1 3.7-.8 1.1-1.7 2.2-2.6 3.3-.5.7-.9 1.4-1.2 2.3-1 3.1-1.6 6.3-1.7 9.7 0 1.2.4 2.1 1.1 3 1.1 1.4 2.5 2.6 3.8 3.7 1 .9 2 1.8 2.7 2.9.9 1.3 1.4 2.8 1.5 4.4.1 2.1-.2 4.2-.5 6.3-.2 1.6-.1 3.1.3 4.6.7 2.6 1.5 5.3 1.9 8 .2 1.3.3 2.6.4 3.8 0 .5-.2.8-.7.9-.4.1-.9.1-1.3.1h-45.2c-2.3 0-2.3 0-1.8-2.3.9-4.2 1.9-8.3 3.8-12.2 1.4-3.1 1.9-6.4 2.3-9.7.2-1.8.4-3.5.7-5.3.4-2.4 1.3-4.6 2.6-6.5 1.3-2 3.2-3.3 5.6-3.7.7-.1 1.5-.2 2.2-.2.6 0 .8-.2.8-.8 0-.5-.1-1-.2-1.4-.1-.4-.3-.8-.7-1-3.4-1.5-5.7-4.3-8-7.1-1.4-1.8-1-1.8-3.8-1.8-2.1 0-4.2-.1-6.2-.6-1.3-.3-2.5-.7-3.6-1.3-.8-.4-1.4-.3-2.1.3-1.7 1.5-3.3 3.1-4.7 4.8-1.2 1.4-2.3 2.9-3.3 4.4-.1.3-.2.7-.7.9zM205.5 85c8.9 0 17.5 1.7 25.8 5.2 7.7 3.3 14.6 7.8 20.5 13.7 1.6 1.6 3.2 3.3 4.7 5.1l.9 1.2c.4.6.4.7 0 1.3-.3.3-.6.7-.8 1-1.7 1.9-3.3 3.8-5 5.7-.1.1-.2.3-.3.4-.8 1-.8 1-.1 2.1 1.6 2.4 3.1 4.9 4.4 7.5 2.8 5.8 4.7 11.9 5.3 18.3 1 9.7-.4 19.1-4.2 28.1-2.5 5.9-6 11-10.5 15.6-4.3 4.4-9.1 8-14.6 10.9-5.7 3-11.8 4.9-18.2 5.8-2.4.3-4.7.5-7.1.5-2.9 0-5.8-.2-8.7-.7-7.8-1.3-14.9-4-21.5-8.4-2.8-1.9-5.5-4-7.9-6.4-3.2-3.1-6.1-6.4-8.4-10.1-4-6.4-6.6-13.3-7.7-20.7-.5-3-.7-6.1-.6-9.2.2-7.4 1.7-14.5 4.6-21.3 1.4-3.2 3.1-6.3 5.1-9.2.1-.1.2-.3.3-.4.8-1.3.8-1.3-.3-2.3-2.4-2.1-4.8-4.3-7.3-6.4-.2-.2-.5-.4-.7-.6-.4-.4-.4-.7-.1-1.2.1-.2.3-.3.4-.5 5.8-7.1 12.6-12.9 20.7-17.3 5.3-2.9 11-4.9 16.9-6.1 4.7-1.1 9.5-1.6 14.4-1.6zm-25.6 105.9h-.1v.1c.1.1.2.2.3.4.1.2.1.4.2.6.1.2.1.8.6.5.3-.2.1-.6-.1-.8-.1-.2-.3-.3-.5-.4l-.4-.4zm-14.2-81.3.3-.3c.9-.7 1.7-1.5 2.2-2.5.6-1.2-.1-2.5-1.4-2.7-1-.2-2.4.7-2.8 1.8.4-.1.7-.2 1.1-.2 1.3 0 2 1.1 1.4 2.3-.2.4-.4.7-.7 1.1l-.3.3-.3.3c-.3-.1-.6-.2-.8-.4-.6-.7-1.2-1.4-1.6-2.3.1-.2 0-.2-.2-.2-1 .8-2 1.7-2.8 2.8.2.2.4.2.5.1.9-.5.9-.5 1.6.2.8.9 1.6 1.8 2.3 2.6 1 1.2 1 1.2.8 2.9 1.2-1.1 2.4-2 3.2-3.3-.3-.3-.5-.1-.6 0-.2.2-.5.2-.7 0-.6-.7-1.4-1.2-1.5-2.2l.3-.3zm10.9-4.3c.2-.1.4-.2.7-.3.4-.1.7-.3 1-.6.7-.1 1.3-.5 1.8-.9.3-.2.5-.5.4-.8-.2-.6-.3-1.2-1-1.8 0 1.5-.5 2.5-1.2 3.5-.4.1-.7.3-1 .6-.3.1-.5.2-.7.3zm58.7 84.6c-.3.2-.6.3-.8.5-.7.5-.8.7-.5 1.5.3.9.6 1.7 1 2.5.1.2.2.5.4.7.1.1.2.3.4.2.2 0 .4-.2.4-.4 0-.3 0-.6-.1-.9-.3-.8-.5-1.5-.9-2.3-.3-.6-.1-1.1.3-1.6.4.1.7.2 1.1.2.3 0 .5-.2.4-.5-.1-.5-.5-.7-.9-.5-.4.1-.6.4-.8.6zm-16.1 8.4c-.9.6-1.2 1-1 1.7.2.7.8 1 1.5 1s1.4.2 1.9.6c.2.2.4.4.7.1.1-.2.1-.4.1-.6-.1-.7-.6-1.1-1.3-1.2-.3 0-.6 0-1-.1-1 0-1.1-.2-.9-1.5.1 0 .2 0 .2-.1-.1.1-.2.1-.2.1zm-50.3-16.8c-.2 0-.2 0-.2.2-.2.7-.8 1.3-1.1 2-.3.6-.6 1.1-.9 1.7-.1.3.1.8.6 1 .4.2.6-.1.7-.4.4-.8.8-1.6 1.3-2.4.6-.9.4-1.6-.4-2.1zm20.8 20.5c.6.5 1.3.8 2.1.8.7 0 1.1-.2 1.3-1 0-.1 0-.3-.1-.4-.1-.1-.3-.1-.4 0-.8.9-1.7.9-2.6.3-.8-1.1-.8-2.2-.2-3.3.6-1.1 1.6-1.3 2.5-.4.3.3.5.6.7.9.1.1.3.2.4.1.1-.1.2-.3.2-.4 0-.1 0-.3-.1-.4-.9-.9-1.9-1.4-3.2-1.2-1 .1-1.6.8-1.9 1.7-.6 1.2 0 2.4 1.3 3.3zm58.1-18.4c.1.1.2.3.3.2.1-.1 0-.3-.1-.4l-.6-1.2c-1.1-1.9-1.1-1.9 1.1-2 .8 0 1.5 0 2.2-.2.5-.2.7-.4.5-.8-.4-.9-1-1.7-1.7-2.4-.2-.2-.5-.5-1-.4.1.9 1 1.4 1.2 2.2-.3.4-.7.3-1.1.3-.5 0-1.1 0-1.6.1-1.2.2-1.6.9-1 1.9.5 1 1 2 1.8 2.7zm-86-4h-.1v.1c.5 1.3 1.2 1.6 2 .3.1-.2.3-.4.5-.3.3.1.3.4.3.7v1.6c0 .6.2 1 .6 1.4.2.2.6.1.6-.2.2-.7.1-1.4.1-2.1 0-.8.2-1.5 1.2-1.6.2 0 .3-.2.2-.3-.1-.1-.2-.3-.3-.3-.4-.1-.8 0-1.1-.1-.6-.1-.7-.3-.6-.9.4-1.3.4-1.3-.8-2.2-.3 1.4-1.3 2.4-2.1 3.5-.1.3-.3.3-.5.4zm7.7-78c.5-.2.9-.1 1.2.4.3.6.7 1.2 1.1 1.8.6.9 1.1 1.8 1.7 2.7.3.4.6.6 1.1.3.7-.3.9-.7.5-1.4l-2.1-3.6c-.8-1.4-.8-1.4 0-2.9-1.5.6-2.6 1.5-3.7 2.5-.1.1-.3.2-.2.3.2.1.3 0 .4-.1zm52-9.9c-.1-.1-.2-.1-.2 0l.1.1c1.5 1.4 1.5 3 .7 4.7l-.3.6c-.5.9-1.3 1.4-2.4 1.3-1.2-.1-2.3-.3-2.9-1.5-.9-1.6-.3-4.2 1.2-5.4.2-.2.5-.2.3-.6-.6-.3-1.2 0-1.8.2-2 .6-3 2.7-2.2 4.6.3.8.9 1.5 1.6 2 2 1.3 4.2 1.8 6.6 1.2 2.8-.7 3.4-4.1 1.5-5.9-.7-.6-1.3-1.1-2.2-1.3zm12.2 8.5h.5c.7 0 1.2-.5 1.4-1.1.3-.7 0-1.2-.5-1.7-.6-.6-1.2-1-2.1-1.1h-.1.1c.2.4.5.8.5 1.3 0 .8-.5 1.4-1.2 1.5-1.3.1-2-.7-1.6-2v-.2c.6-1.4.9-1.6-1.2-2.4-.4-.2-.8-.5-1.3-.4.7 1.1.7 1.1.3 2.3-.4 1-.7 2-1.1 3-.2.4-.3.8-.5 1.2-.2.5-.9.2-1.2.7.6.5 1.3.7 2 .9.6.2.8.1 1-.4.3-.5.5-1.1.7-1.6.2-.4.4-.6.9-.5 1.3.3 2.2 1.6 1.8 2.9-.1.3-.1.5-.2.8-.2.6 0 1.2.5 1.6.4.3.8.5 1.2.8.2.1.4.1.6-.1.1-.1.1-.3.1-.4-.5-.8-.4-1.6 0-2.5.3-.6.2-1.3-.2-1.8 0-.3-.2-.6-.4-.8zm3.5 6.8c.1.2.3.4.5.5.1 0 .2-.1.2-.1v-.1c-.1-.1-.4-.3-.7-.3.5-1.5 2.2-4.4 3.2-5.2v7.1c0 .6.3.8 1 .7.4-.1.7-.2 1.1-.3 1.4-.4 2.8-.9 4.2-1.3.3-.1.6-.4.9.1l-1.2 1.5c-.4.5-.9 1.1-1.3 1.6s-1 .7-1.5 1.1c.5.8 1.1 1.3 1.8 1.8h.1v-.1c1-1.4 2.2-2.6 3.3-3.9.8-1 .8-1 2.1-.6l.1-.1c.1-.3-.1-.5-.2-.7-.4-.5-.9-.9-1.3-1.4-.5-.6-1.2-.7-1.9-.5-1.1.3-2.1.7-3.2 1-1.8.5-2 .3-2-1.5 0-1.1 0-2.2.2-3.4.2-1.1-.1-2-1.2-2.6-.6-.3-1.1-.7-1.6-1.1-.2-.1-.4-.2-.7.1 1.3.7.6 1.5.1 2.2l-1.8 3c-.2.3-.4.5-.5.8-.2.4-.8 0-.9.5.2.8.7 1 1.2 1.2zm-30.7 89.8c24.5.1 44.2-19.6 44.7-43.6.6-25.7-20.2-45.9-44.6-45.9-25.1-.1-44.9 20-45 44.7 0 25.1 20.5 45 44.9 44.8zM187 100.4c1.3-.4 2.5-.5 3.6-1.3-1.5-.7-2.4-1.8-3.3-2.8-.7-.8-1.5-1.6-2.2-2.3-.8-.8-1.3-.6-1.5.5-.1.6-.2 1.2-.3 1.7-.3 2.1-.2 4.3-1.2 6.4 1-.1 1.6-.5 2.3-1-.1-.2-.1-.3-.2-.3-.6-.1-.8-.4-.8-1s.1-1.1.7-1.4c.3-.1.6-.3.9-.4 1.1-.4 1.6-.3 2.3.7.3.5 0 .7-.3 1.2zm22.4-8.2c-.6 0-.7.5-1 .6-1.1.6-1.9.1-2-1 0-.5 0-1-.1-1.4 0-.5-.3-.8-.8-.8-.9-.1-1.8-.1-2.7 0 .1.2.1.4.2.4.8.1 1.1.6 1 1.4v1.1c0 1.6.4 3.3.2 4.9.3 0 .6.1.8.1.9-.1 1-.2 1.1-1.1 0-.5 0-1 .1-1.4.1-.8.4-1.1 1.1-1.1.6 0 1.2.2 1.4.8.1.2.1.6.5.5.3-1.1.5-2.1.2-3zM197 96.3c-.1-.5-.2-1.2-.3-1.9-.2-1.1-.3-2.1-.5-3.2s-.4-1.2-1.4-1c-1.3.2-2.5.5-3.8.8-.3.1-.5.1-.8.2-.6.2-.7.5-.6 1.1 0 .3.1.5.2.8.1.1.2.2.4.2.1 0 .2-.1.2-.2.3-.9.9-1.6 1.8-1.9 1.2-.4 1.6-.2 1.8 1 .1.3.1.6.2 1 .2 1.3.5 2.5.7 3.8.1.7.4.8 1 .7.8-.1 1.1-.4 1.1-1.4zm47.7 91.1c1.2-1.3 1.3-2.8.4-4-.5-.6-1.3-.8-2-.6-1.8.7-3.1 3.2-2.6 5 .3.9.9 1.4 1.8 1.3.3 0 .7-.1.8-.5.1-.3-.3-.4-.5-.6-.1-.1-.3-.2-.4-.3-1-1-.9-2.7 0-3.6.6-.6 1.1-.6 1.6 0 .9 1 1.3 2 .9 3.3zm-48.8 16.4c-.3-1.4.1-2.6.4-3.9.1-.3.2-.5.6-.4.3.1.5.3.5.6.1.3 0 .5-.1.8-.5 1.2.3 2.1.4 3.2 0 .1.1.2.2.2.2.1.5.3.7.1.2-.1.1-.4 0-.6-.1-.4-.1-.7-.1-1.1-.1-.6 0-1.6.2-2.2.2-.6 0-1.1-.5-1.4-.3-.2-.7-.3-1-.4-1.4-.4-1.7-.2-1.9 1.2-.2 1-.3 2-.4 3-.2.8-.2.8 1 .9zm7.5-3.9c.2.5.3.7.4.9.5.9.4 1.9.1 2.8-.2.7-.8 1.1-1.4 1.1-.7-.1-1.2-.4-1.5-1.1-.2-.5-.2-1.1-.1-1.6 0-.4.2-.7.2-1.1 0-.2 0-.4-.2-.4-.1 0-.3.1-.4.1-.5.5-.7 1.2-.6 1.9.2 2.1 2.8 3.4 4.6 2.3.8-.5 1.4-1.6 1.2-2.6-.2-1.1-.7-2-2.3-2.3zm-30.3-8.2c.4-1 1.4-1.6 1.4-2.7-.9.3-.9.3-1.1-.5-.2-1-.4-2-.7-3-.2-.7-.6-1-1-.9-.5.2-.4.7-.3 1.1.3 1.7.7 3.4 1 5.1.1.3.2.5.7.9zm52.6 3.9c-1.2 0-2 .6-2.9 1.1-.3.2-.4.5-.3.8.1.1.1.3.3.4.2.1.3 0 .4-.2.1-.2.2-.4.4-.5.5-.5.9-.4 1.1.2.1.4.2.7.3 1.1.2.7.3 1.4.5 2 .1.2.2.4.4.4s.4-.1.6-.3c.3-.2.3-.6.2-.9-.4-1.2-.7-2.6-1-4.1zm-16.3 9.2c1.1-.9 1.1-1.8 0-2.5-.5-.3-1.1-.6-1.7-.9-.2-.1-.3-.3-.2-.6.1-.2.2-.4.5-.4.5-.1.9.1 1.4.4.2.1.4.1.6-.1.2-.3.1-.5-.2-.7-.6-.5-1.8-.4-2.6.1-1 .6-1 1.9 0 2.5.3.2.7.3 1 .4 1.1.5 1.1.5 1.2 1.8zm5.4-.5c.5-.5.7-.9.5-1.5-.2-.5-.5-.8-1-1-.9-.3-1.8-.4-2.5-1-.3-.2-.5.1-.6.4-.1.6.1 1.1.6 1.4.4.2.8.4 1.2.5.6.3 1.3.6 1.8 1.2zm14.5-8c0 .2-.1.6.3.6.3 0 .3-.3.3-.5v-.2c.1-.1.2-.3.3-.4.1 0 .3.1.4.2.3.6.7 1.1 1.2 1.5.3.3.7.2 1 0 .3-.3.2-.6 0-.9-.3-.4-.7-.8-1-1.2-.4-.5-.9-1-1.3-1.4-.3-.3-.8-.2-.8.3-.3.7-.4 1.4-.4 2zm11.2-4.8c0-.1-.1-.3-.2-.5-.4-1-.8-2.1-1.3-3.1-.1-.3-.2-.5-.5-.5-.3.1-.5.3-.6.7 0 .2 0 .4.1.6.4 1.2.8 2.3 1.3 3.5.1.3.4.3.7.2.2-.2.4-.4.5-.9zm-55.2 6.6c.1-.5 0-.9-.3-1.2-.3-.4-.6-.7-.9-1.1-.5-.7-1.2-1.2-1.3-2.2 0-.3-.4-.3-.6-.1-.3.3-.4.7-.3 1 .1.3.2.5.4.7.2.3.4.5.6.7.7.7 1.3 1.4 1.5 2.4 0 .3.5.3.6.1.1 0 .2-.2.3-.3zm-6.9-8c-1.2-.5-1.9-.3-2.4.6-.6 1-.5 1.9 0 2.9.1.1.2.2.4.3.2 0 .3-.2.3-.3 0-1.4.5-2.6 1.7-3.5zM212.3 92c.5-.5.6-1.1.5-1.7 0-.1-.1-.3-.2-.4-.6-.4-2-.5-3 0 1.2.3 1.9 1.2 2.7 2.1zm-33.1 101.7c-.2.7-.1 1.5-.8 1.8-.2.1-.2.3-.1.4.4.5 1.3.6 1.7.2.8-.8.8-1.6-.2-2.2-.1-.1-.3-.1-.6-.2zM198.6 90c.4.3.6.5.9.8.3.3.4.6.7.9.2.2.4.2.5-.1.4-1.4-.3-2.2-1.7-1.8-.1-.1-.2 0-.4.2zm9.8 115.1c-.9-.4-1.4-.7-1.9-1.2-.1-.1-.2-.1-.3 0-.1.1-.2.3-.2.4 0 .4.1.7.5.9.6.3 1.1.4 1.9-.1zm11.3-1.5h.2c.2 0 .5-.1.5-.3.1-.3-.2-.3-.4-.4l-.9-.3c-.2-.1-.4 0-.5.3-.1.2 0 .4.2.6.2.1.5.1.9.1zm-8.2.2-.2.2c-.1.7.5 1.2 1.2 1 .2 0 .2-.2.1-.4-.3-.4-.6-.7-1-.9 0 .1-.1.1-.1.1zm-29.9-6.1c.1-.1.2-.1.2-.2 0-.4 0-.8-.4-1.1h-.3c-.2.2-.2.5-.1.7.1.4.3.6.6.6zm39.9.8c0-.4-.2-.7-.6-.7-.1 0-.4.1-.4.2-.2.4.2.5.4.7.1.1.2.1.3.1.2 0 .3-.1.3-.3zm10.7-5c.4-.5.4-.9.4-1.3 0-.1-.1-.2-.2-.2s-.2 0-.3.1c-.5.4-.3.8.1 1.4zm-46.7 1.4c0-.3-.1-.5-.4-.5-.2 0-.3.1-.3.3 0 .3.1.5.4.5.2 0 .3-.1.3-.3zm42.1.8c.1-.3 0-.7-.4-.7-.2 0-.3 0-.4.2-.1.2.2.6.5.7.1-.1.2-.2.3-.2zm-13.4 4.3c-.2 0-.3.1-.2.3 0 .2.2.4.4.4s.3-.2.2-.3c0-.2-.2-.3-.4-.4zm15.3-.6c.1-.1.2-.1.3-.2.1-.1 0-.2-.1-.2s-.3.1-.4.2c-.1.1 0 .2.2.2zm-54.5-12c-.1-.3-.2-.4-.5-.4-.1 0-.2.1-.1.2.1.2.2.4.4.4 0 0 .1-.2.2-.2zm2.2 7.7h.1v-.1c-.1-.1-.2-.1-.2.1 0-.1 0-.1.1 0z"/>
	<path d="M152.5 261.9h-3.1c-.4 0-.8 0-1.1.1-.8.1-1.1.5-1.1 1.4 0 .6.2 1.3.3 1.9.3 1.3-.2 2.2-1.2 2.9-.7.4-1.4.8-2.1 1.3-1.2.8-1.5 1.4-.9 2.7 1.5 3.6 2.9 7.3 4.7 10.8.6 1.2 1.3 2.4 2.2 3.4 1 1.1 1.3 2.4 1 3.9-.9 3.7-.2 7.3 1.5 10.6 2.9 5.6 5.5 11.4 9.2 16.5.6.9 1.1 1.8 1.6 2.8.3.6.6 1.3.9 1.9.2.5.6.7 1.2.6 1.2-.3 2.4-.6 3.6-1 2.7-.8 5.4-1.7 8.2-2.5.8-.2 1.7-.4 2.5-.6 2-.5 3.9-.2 5.7.5 2.2.7 2.9 2.6 3.2 4.6.2 1.9-.5 3.4-2.1 4.4-1.3.9-2.7 1.6-4.2 2.1-5.4 1.6-10.7 3.3-16.1 4.6-2.7.7-5.4 1.1-8.1 1.3-2.9.2-5.9.2-8.8.7-4.7.8-9.3 2-13.9 3.5-5.4 1.7-10.8 3.4-16.2 4.8-3.8 1-7.7 1.6-11.6 2.2-3.3.5-6.6.7-10 .8-4.2.2-8.3-.2-12.4-.9-3.2-.5-6.1-1.8-9-3.2-1-.5-1.8-1.2-2.5-2-1.1-1.4-1.2-2.7-.3-4.2.8-1.4 2-2.5 3.4-3.4 3.4-2 7-2.9 11-2.3 2.8.4 5.5.8 8.3 1.2 1.3.2 2.6.2 3.9.2 3.5-.1 5.2-1.7 4.9-5.6-.1-1.9-.4-3.7-.7-5.6-.6-3.2.1-6.1 2.3-8.5 1.4-1.6 2.4-3.4 2.5-5.6.2-2 .7-3.9 1.3-5.8.8-2.2.7-4.4.2-6.7l-1.2-5.4c-.2-1.2-.3-2.3.1-3.5.4-1.1 1-2 1.9-2.8 2.3-1.8 3.6-4.2 4.4-7 .5-1.8 1-3.5 1.5-5.3.2-.8.5-1.5 1-2.2.7-.9 1.5-1.7 2.7-2 1.4-.4 2.1-1.4 2.4-2.8.5-2.1 1.1-4.3 1.4-6.5.1-.8.3-1.6.6-2.3.8-2.5 2.5-4.2 5-5.1 1-.4 2.1-.7 3.1-.9 2.3-.5 4.6-.8 6.8-1.2 1.4-.3 2.6 0 3.8 1 1.5 1.3 3.3 2.2 5.2 2.8 2.1.7 4.2 1.2 6.3 1.9 1.1.3 2.2.7 3.2 1 1.6.5 2.9 1.4 4.1 2.5 1.5 1.4 1.3 2.2-.6 2.9-1.4.5-2.8.8-4.2 1-1.8 0-3.8.2-5.7.1zm-29.7 23c-.6 0-1.6.1-2.5.7-.3.2-.4.6-.1.8.6.4 1.2.8 1.7 1.2.6.5.7.9.3 1.5-.2.4-.5.7-.8 1-.9 1.1-.9 1.4.4 2.1 1.3.7 2.2 1.7 3.1 2.8.3.4.5.8.8 1.2 1 1.8 2.6 3 4.7 3.3.3.1.6.1.9.2.6.2 1.4.4 1.5 1.1.1.7-.5 1.1-1 1.5-.7.6-1.5 1.1-2.2 1.6l-1.5 1.2c-.2.1-.3.3-.2.6.1.3.4.2.7.2.2 0 .4-.1.6-.2 1.4-.4 2.5-1.2 3.7-2 .8-.6 1.7-1.2 2.5-1.7 2.5-1.5 5-1.6 7.4.2.7.5 1.4.9 2.1 1.2.4.2.8.3 1.2.5.1 0 .3-.1.4-.2.1 0 0-.2 0-.3-.2-.4-.5-.7-.7-1.1-.4-.7-.4-1.2.2-1.7.4-.4.9-.8 1.3-1.2 1.4-1.2 2.4-2.6 2.8-4.4.1-.6.5-1.2 0-1.7-.6-.6-1.2-.1-1.8.2-1.6.7-3 1.6-4.4 2.7-.8.6-1.6 1.2-2.6 1.6-1.5.6-2.8.4-4-.8-.6-.6-1.1-1.3-1.7-2-1.2-1.5-2.3-3-3.5-4.4-1.4-1.8-3.1-3.3-5-4.6-1.3-.7-2.5-1.1-4.3-1.1zm-12.5 38.7c.8-.1 1.6-.5 2.4-.9 3.7-1.8 7.5-3.2 11.4-4.4 7.2-2.1 14.5-3.5 22.1-3.4 3.5 0 6.9.6 10.2 1.9.3.1.7.3 1.1.3.3.1.5-.2.4-.5-.4-1.2-1-2.1-1.9-2.9-.3-.2-.6-.3-.9 0-.7.7-1.3.4-1.8-.1-.4-.3-.8-.8-1.1-1.2-.4-.5-.8-1-1.1-1.6-.7-1.2-1.8-1.7-3.2-1.8-2.4-.1-4.7-.3-7.1-.1-2.6.3-5.1.7-7.6 1.4-3.8 1.2-7.2 3.1-10.5 5.2-2.3 1.5-4.6 2.8-6.9 4.1-2.1 1.1-4.2 1.7-6.5 1-.3-.1-.8-.4-1.1-.1-.4.4-.1.9 0 1.3.1.3.3.6.5.8.3.7.9 1 1.6 1zm70.2-1.6c-1.9.1-3.9.6-5.7 1.4-5.8 2.6-11.5 5.4-17.1 8.3-.8.4-1.5.8-2.2 1.4-.2.1-.3.3-.4.5-.1.2 0 .4.2.5.4.2.7.2 1.1.1.7-.1 1.4-.2 2.1-.2 2.7-.3 5.5-.5 8.1-1.3 1.6-.5 3.2-.9 4.8-1.3 3.2-.9 6.4-1.7 9.7-2.5 2.1-.5 3.8-1.7 5.2-3.3.5-.6.5-.8 0-1.4-.7-.8-1.5-1.4-2.5-1.7-1.1-.2-2.1-.4-3.3-.5zm-38.7-53.3.1-.2c-.1-.4-.2-.8-.3-1.3-.1-.5-.1-.8.4-1 .3-.1.3-.4.2-.7-.2-.3-.4-.5-.6-.8-1.5-1.8-2.7-3.8-3.4-6-.1-.3-.2-.5-.3-.7-.1-.1-.2-.3-.4-.2-.1.1-.2.2-.2.4v1.8c0 1.1 0 2.2-.5 3.2-.1.3-.4.3-.6.1-1.1-1.2-2-2.6-2.6-4.2-.4-1.3-1.1-2.5-1.8-3.6-.1-.2-.2-.4-.5-.3-.2.1-.2.3-.2.5.3 1.1.7 2.2 1.2 3.2s.9 2.1 1.1 3.2c.2.9.5 1.8 1.1 2.5.5.5.8 1.1 1 1.8.4 1.2.9 1.9 1.8.4l.1-.1c.7-.8 1.3-.8 2 0 .3.3.6.7.8 1 .6.2 1 .7 1.6 1zM480.5 396c.1-3.8.6-7.1 1.3-10.3 1.1-5.1 2.8-10 4.4-14.8l3.3-9.6c.6-1.7.5-1.8-1.4-2.1-2.3-.4-4.5-.9-6.7-1.9-5.1-2.2-8.1-6.1-9.3-11.4-.9-4-.2-7.8 1.7-11.4.5-1 1.1-1.9 1.6-2.8.9-1.5.9-1.6-.6-2.2-1.4-.6-2.6-1.3-3.8-2.2-5.1-3.7-8.4-8.6-9.2-14.9-.9-7.3.6-14 5.4-19.8.9-1 1.7-2.1 2.6-3.1.6-.7.9-1.5.8-2.5-.2-1.9-.3-3.7.2-5.6.2-.8.5-1.6.9-2.4.4-.9.7-1.8.8-2.8 0-.6.2-1.2.4-1.7.7-1.6.9-3.2.9-4.9-.1-1.7.1-3.3.7-4.9.5-1.3.9-2.6 1.4-4 1.1-3.3 3.5-5.4 6.5-6.8 2-.9 4.2-1.5 6.4-1.5 5 0 9.6 2.6 11.5 6.7 1 2.1 1.4 4.4 1.8 6.7.3 1.9.5 3.7.6 5.6.2 1.6.6 3 1.7 4.3 1.6 2 2.1 4.3 1.8 6.8-.2 1.2-.4 2.5-.8 3.6-.3.8-.2 1.4.5 2 1.4 1.1 2.7 2.3 3.8 3.7 2.5 3.1 4.6 6.4 5.5 10.3.7 2.7.7 5.4.4 8.2-.6 5.3-3.1 9.5-6.6 13.4-.6.6-1.2 1.3-1.7 1.9-.5.6-.4.8.2 1.3.7.6 1.3 1.1 2 1.6 1.9 1.5 3.7 3.2 5.2 5.1.3.4.6.9 1 1.3.8 1.1 1.2 2.3 1.1 3.6-.1 1.2-.1 2.5 0 3.7.1 1.3-.3 2.4-.9 3.5-1.8 3.3-4.3 6-7.3 8.3-2.1 1.7-4.5 2.9-7 3.9-1.2.5-1.8 1.2-2.2 2.4-1.8 6-3.7 12-5.5 18.1-1.6 5.2-2.9 10.4-3.8 15.7-.7 4.1.3 7.8 2.4 11.3.5.8.9.9 1.7.4.9-.5 1.2-1.2.8-2-.2-.3-.4-.6-.7-.9-1.6-1.7-1.6-3.8-1.2-5.9.3-1.3.8-2.5 1.2-3.7.3-.9.8-1.6 1.6-2.2 1.4-1.1 2.6-2.3 3.5-3.9.3-.5.7-.9 1-1.3 1.5-1.8 3.4-2.1 5.5-1.7.7.1 1.3.4 2 .7 1.3.6 2 1.5 2.4 2.8.3 1.1.8 2.1 1.1 3.2.3.9.6 1.8.5 2.8 0 .1-.1.2-.1.3-.2.1-.3 0-.4-.1-.2-.3-.3-.6-.5-.8-.2-.4-.4-.7-.7-1.1-.3-.4-.7-.9-1.3-.8-.6.1-.7.8-.8 1.3-.6 1.7-.3 3.4.1 5.1.2.7.7.8 1.2.4.1-.1.2-.1.2-.2.3-.3.4-.9.9-.8.6.1.8.7.9 1.2.2.4.2.8.3 1.3.2.9 0 1.6-.9 2-.8.4-1.3 1.1-1.5 2-.2.7-.6 1.1-1.3 1.3-1.5.5-2.4 1.6-3.1 2.9-.5 1.1-1 2.1-1.6 3.2-.4.9-.9 1.7-1.4 2.5-1.2 2-3 3-5.2 3.4-3.8.6-7-.4-9.7-3.1-1.4-1.3-2.5-2.8-3.3-4.6-2-4.4-3.2-8.9-3.2-13.1zm25.8-54.9c-.4.1-.7.3-.7.7 0 .4.1.9.1 1.3.1.9.2 1.8.1 3-.2-.8-.3-1.3-.5-1.8 0-.1-.2-.3-.4-.2-.1 0-.2.1-.2.2-.1.2-.2.5-.3.8-.1.5-.1 1.1-.4 1.3-.6.5-.6 1.1-.8 1.7-.1.5-.1 1-.4 1.4-.9 1.6-.6 3.2-.3 4.9 0 .2.1.4.4.5.3.1.5-.2.6-.4.2-.3.2-.8.7-.8.5.1.7-.2.9-.5.1-.1.3-.2.4-.1.6.6.7.2.8-.3.1-.4.3-.5.7-.3.2.1.4 0 .5-.2.1-.2 0-.5.3-.5.7-.1.5-.5.5-1s.3-.3.5-.2c.3.1.5 0 .4-.3-.1-.3-.3-.7-.6-1.2.5.3.9.5 1.2.7.1.1.3.1.5 0s.3-.3.2-.6c-.1-.3-.1-.6-.3-.9-.2-.4-.2-.7.4-.8.2 0 .2-.4.1-.6-.2-.5-.5-1 .3-1.2.2 0 .1-.4 0-.6-.3-.6-1.3-1-.6-1.9.1-.1-.1-.4-.2-.6-.3-.5-.8-.9-1-1.5-.4-1.4-1.5-2-2.7-2.6-.3-.1-.6-.4-.9-.1-.2.2-.1.5 0 .8.4.7.5 1.3.7 1.9zm1.3-20.3c.4 0 .9.4 1-.4 0-.2.1-.3.3-.3.9.2.8-.3.7-.9 0-.2 0-.4.2-.4.6 0 .5-.7.8-.9.9-.5 1-1.3 1.2-2.1.2-.9.4-1.9 1-2.7.4-.6.6-1.1.4-1.8-.1-.2 0-.4.3-.4.6.1.7-.3.6-.7-.1-.5-.3-1-.5-1.5-.2-.4-.2-.7.4-.8.2 0 .3-.3.3-.5-.3-1.1 0-2.1-.1-3.2-.2-1.4-.5-2.8-.6-4.3 0-.7-.4-1.3-1.1-1.7-.3.6-.2 1.1-.2 1.6 0 1.6 0 3.2-.3 4.8-.3 1.6-.5 3.3-1.2 4.8.4-2.7.7-2.7-1.1-5.2-.3-.4-.6-.8-.8-1.2-.2-.5-.5-1-.6-1.5-.4-1.2-.3-1.3.7-2.2.8-.6.9-1 .6-1.9-.1-.5-.4-.9-.6-1.3-.2-.4-.5-.8-.7-1.3-.3-.7-.3-.8.6-1 .2-.1.5 0 .5-.3 0-.2-.2-.4-.4-.5-.8-.5-1.7-.6-2.6-.8-.5-.1-1-.1-1.5-.5.2-.6.7-.7 1.1-1 .2-.2.5-.3.4-.6-.1-.3-.4-.4-.6-.5-.6-.2-1.2-.1-1.6.4-.4.4-.8.8-1.3 1.2-.7.6-1.3 1.3-1.8 2s-.8 1.6-.5 2.4c.6 1.7 1 3.6 3.1 4.2.1 0 .2.1.3.1.6.3.7.7.7 1.3 0 .3-.1.5-.2.8-.4 1.3-.5 2.6-.4 4 .1.6 0 1.2-.2 1.8-1 2.5-1.7 5.2-3.2 7.6-.2.4-.5.9-.6 1.3-.4 1.2-.2 2.3.4 3.4.1.2.2.2.4.2l.3-.3c.1-.1.1-.3.1-.5.1-1.4.6-2.5 1.9-3.1.6-.3.9-.9 1-1.6.1-.7.3-1.4.6-2 .2-.4.5-.7 1-.6.4.1.9.1 1.3.2.8.3 1.5 0 2-.6.5-.5.9-1 1.4-1.6-1.2 3.1-3 5.8-5.6 8-1 .8-2 1.5-2.9 2.3-.7.6-.6 1.4.2 1.8.1.1.3.1.5.1.6-.1 1 .2 1.4.6.4.4.9 1.1 1.3.8.6-.4-.2-1-.3-1.5 0-.1 0-.2.2-.3.1.1.3.3.5.4.3.2.5.7.9.5.5-.2 0-.7 0-1v-.4c.3-.1.4.1.6.2.5.2.6.1.7-.5-.3-.1-.4-.3-.4-.4zM475 336.3c-.7 1.7-1.1 3.5-1.5 5.2-.1.7-.2 1.4 0 2.1.2.6.3 1.2 0 1.9-.2.3 0 .6.2.9.2.2.4.4.6.5.2.2.1.3 0 .6-.3.6-.3.7.2.9.4.2.8.4 1.2.5-.1.1-.1.2-.2.3-.2.1-.5.2-.5.5s.1.5.3.7c.4.4 1 .7 1.5.8.6.1 1.1.3 1.7.4-.1.4-.4.3-.6.5-.5.4-.5.7 0 .9.5.2 1.1.4 1.7.5.5.1 1.1.1 1.7.4l-.4.4c-.2.2-.3.5.1.6.3.1.6.2.9.1.7-.1 1.4-.1 2.1-.2-.1.3-.4.8.1 1 1.6.5 4.1-.7 4.7-2.3.2-.4.2-.7-.1-1.1-.4-.4-.3-.9-.2-1.4.1-.3.1-.5 0-.8 0-.3-.2-.5-.4-.6-.3-.1-.5 0-.7.3-.4.4-.6 1-1.2 1.3.1-.5.1-.8.2-1.1 0-.3.2-.7-.1-.9-.4-.2-.5.2-.8.4-.3.3-.4.7-1 .9.1-.7.2-1.3.2-1.9 0-.3-.1-.5-.3-.7-.3-.1-.5 0-.7.2-.5.4-.9.8-1.6 1.4.3-.8.5-1.2.6-1.6.2-.5.2-.9.1-1.4-.1-.5-.4-.7-.9-.6-.5.1-.8.5-1.4.3.3-.6.5-1.2.7-1.8.3-.9-.1-1.1-.7-1-.2 0-.5.3-.7-.1.2-.3.5-.6.7-.9.1-.2.2-.5.1-.6-.9-.7-.4-1.2.3-1.7.2-.1.3-.5.3-.7.4-1.9 1.3-3.6 2-5.4.2-.5.4-1 .9-1.3.2-.1.6-.3.5-.6-.2-.7.2-1 .8-1.1.2-.1.4-.2.5-.4.9-1.1 1.6-2.3 2.7-3.1.1-.1.1-.2.2-.3.2-.4.2-.8-.1-1.2-.3-.4-.7-.3-1-.2-.4.1-.7.3-1.1.4-.5.2-1 .3-1.5.5l1.2-.9c.1-.1.2-.3.2-.4 0-.1-.2-.2-.3-.3-.4-.1-.7 0-1.1.1-1.9.4-3.6 1.4-5.1 2.6-2.4 2.1-4.1 4.7-5.4 7.7-.1.1-.1.3-.1.5 0 .1 0 .2.1.3.1.1.3 0 .4-.1-.2.2-.1.1 0 .1zm13.9-44.9c-.5-.1-1.1-.2-1.6-.3-.6-.1-1.3-.2-1.9-.1-.4.1-.7.3-.7.7-.2 1.1.1 1.7 1.3 2.3 1.5.8 1.7 1.5.6 2.7-.6.7-.9 1.4-.7 2.4.2 1 0 1.7-.9 2.2-.3.2-.6.4-.7.8-.2.9 0 1.7.3 2.5.3.6 1 .6 1.5.7.1 0 .2 0 .3.1.7.2 1.2.7 1.2 1.5 0 .6 0 1.3-.2 1.9-.1.6-.3 1.2-.3 1.7-.1.8.2 1.1 1 1.1h1.3c1.5.1 2.1 1.2 1.3 2.5-.3.5-.6.9-.9 1.4-.3.5-.3 1.1-.1 1.7.5 1.3 1.3 2.3 2.7 2.8 1.2.5 2.3 1 3.5.1h.2c.5-.1.8 0 .8.6 0 .8 0 1.5.1 2.3.1.7.3.8 1 1 1 .2 1.3.5 1.4 1.4 0 .4-.1.7 0 1.1 0 .6.4.8.8.6.5-.2.9-.5 1.4-.8.7-.4 1.1-.3 1.4.4.2.3.3.7.4 1 .3.9.4 1.9.5 2.8.1 1 .4 1.1 1.3.7.3-.1.6-.3.9-.4.5-.2 1-.5 1.5-.5.7-.1 1.2.2 1.5.8.3.7.6 1.4.6 2.2l.3 2.7c0 .4.1.7.2 1.1.2.6.4.7.9.4.1-.1.3-.2.4-.3.8-.4 1.2-.3 1.8.4.3.5.6 1 .6 1.6.1.7.2 1.5.3 2.2 0 .2.1.4.2.6.1.2.5.2.6.1.1-.1.2-.3.2-.4.3-2.2.2-4.4-1.1-6.4-.3-.4-.6-.8-1.1-.9-.9-.2-1.3-.8-1.6-1.6-.7-2.1-2.1-3.5-4-4.4-1.1-.5-1.9-1.2-2.5-2.2-.5-.9-1.2-1.5-2.1-2l-1.5-.9c-1.3-.9-2.5-2-3.1-3.6-.5-1.2-1.4-2.1-2.5-2.6-1-.5-1.6-1.3-1.6-2.6 0-1.7-.5-3.3-1.7-4.6-.7-.8-.9-1.8-.8-2.9.1-1 .4-1.9.7-2.8.4-1.3.5-2.6.1-3.8-.6-1.8-.4-3.6-.4-5.4 0-.6.2-.9.9-.9.9-.1 1.7-.1 2.6-.1 1.6.1 2 .4 1.9-1.9-.1-2 .7-3.6 1.8-5 .9-1.1 1.3-1.2 2.6-.6.8.4 1.1.4 1.7-.2.5-.6.9-1.2 1.1-2 .1-.4.1-.9-.3-1.2-.6-.4-1.1-.8-1.7-1.2-.5-.3-1-.3-1.5-.2-.5.2-1 .4-1.4.8-1 .9-2 1.9-2.6 3.2-.6 1.3-1.6 2.3-2.8 3.1-1.4.9-2.9 1.7-4.7 1.5-.6.3-.8.6-.7 1.1zm-9.1-28.4c-.6.8-1.6 1.3-2.4 1.9-1.7 1.1-2.3 2.6-2.2 4.5 0 .7.1 1.4.3 2.1.2.5.3 1 .4 1.6.2.8.2.9-.6 1.2-.6.2-1 .6-1.2 1.2-.2.5-.2.9-.2 1.4.1 1.8 1.2 2.5 2.9 1.8.1-.1.3-.1.4-.2 1.5-.9 3.3-.9 5-1.1.8-.1 1.2.4 1 1.2-.2.8-.5 1.5-.7 2.3-.3 1-.5 2-.6 3 0 .8.3 1.4 1 1.6.3.1.6 0 .8-.3.2-.3.3-.7.3-1.1v-1.9c0-.7.1-1.3.5-1.9 0 1.1-.1 2.2-.2 3.4-.1.5-.1 1.1 0 1.6s.4.7 1 .7.9-.3.9-.9c.1-.8 0-1.6.1-2.4 0-.5 0-1 .4-1.6.1 1.1.1 1.9-.1 2.8-.1.5-.1 1.1 0 1.6.2.7.5.9 1.1.9.6 0 1-.3 1-1 .1-.8 0-1.6 0-2.4 0-.5-.1-1 .4-1.8 0 .8.1 1.4.1 1.9v2.4c.1.8.5 1 1.2.9.7-.2 1-.4 1.1-1.2.1-.8.1-1.5-.1-2.3-.1-.8-.2-1.6 0-2.5.6.8.6 1.6.7 2.3 0 .7.1 1.4.2 2.1.1.6.7.9 1.4.7.6-.2.9-.6.8-1.2-.1-.5-.3-.9-.5-1.4-.3-.8-.7-1.7-.6-2.6.3.5.5 1.1.7 1.6.3.6.5 1.3.8 1.9.1.1.2.3.4.3s.4-.2.4-.4c.1-.3.1-.6.1-1 0-.8-.2-1.5-.5-2.2-.3-.7-.6-1.4-.8-2.1-.2-.8 0-1.2.8-1.3 1.5-.2 2.9-.2 4.3.4.3.2.7.3 1.1.3.6.1 1.1-.2 1.3-.7.4-1.4.5-2.9-.6-3.9-1-1-1.1-1.9-.6-3 .1-.2.1-.4.2-.6.7-2.4 0-4.3-1.8-5.9-.4-.3-.8-.6-1.1-.9-.3-.3-.4-.6-.3-1 .1-.2.2-.5.3-.7.5-1.4.2-2.6-.8-3.7-.7-.7-1.6-1.3-2.5-1.8-4.9-2.6-11.3-1.6-15.4 2.4-1.1 1.1-1.9 2.4-2.2 3.9-.1.3-.1.6-.1 1 0 .7.4 1 1 .8.7-.4 1.2-.6 1.7-.7zm4 137.5v1.9c0 .5.3.9.9 1 .2.1.4.1.6.1 1 .1 1.6.7 1.9 1.7.2.7.6 1.4 1.2 1.9.8.7 1.3.7 2.2.1.6-.4.7-.9.1-1.3-.9-.7-1.1-1.5-1.1-2.5 0-.9-.1-1.8-.8-2.4-1-.9-1.3-2-1.3-3.3 0-.5-.1-1-.2-1.4-.2-2.2-.2-2.2 1.3-3.9.1-.1.1-.2.2-.2 1.3-1.7 1.5-3.9.4-5.7-.2-.3-.3-.6-.5-.8-.4-.7-.4-1.3.1-1.9.5-.6.8-1.4 1-2.2.4-1.3.4-1.3 1.8-1.3.8 0 .9-.1 1.2-.8.6-1.8 1.3-3.7.8-5.7-.2-1.1-.1-2.1 1-2.9.7-.5.7-.8.2-1.5-.8-1.2-.7-2 .3-3 .3-.3.6-.5.9-.7 1-.6 1.5-1.5 1.8-2.6.2-.6.3-1.1.4-1.7.2-.9.1-1.8-.3-2.7l-.6-1.2c-.4-.8-.4-1.6 0-2.3.6-1 .7-2.1.6-3.3-.1-1 .3-1.8 1.3-2.2.7-.3.9-.8 1-1.5.2-1.3-.1-2.5-.9-3.5-.4-.5-.9-1.1-1.3-1.7-.6-1.1-.7-2.2.2-3.3 1.4-1.6.9-2.2-.1-3.4-.2-.3-.4-.5-.7-.7-.8-.6-1.4-1.3-1.6-2.4-.1-.6-.5-.8-1.1-.7-.9.1-1.6.5-2.3 1.1-.3.3-.4.7-.1 1 .4.5.4 1.1.3 1.7-.1.5-.1 1-.1 1.4 0 1.6 0 1.7 1.7 2.2.5.2.8.5.9 1 .1 1.1 0 2.1-.6 3.1-.2.4-.5.8-.7 1.3-.4.8-.3 1.5.3 2.1.3.4.7.7.9 1.1 1.1 1.7.7 3-.3 3.9l-.3.3c-.5.5-.7 1-.5 1.8.5 1.6 0 2.8-1.5 3.6l-.1.1c-.8.5-1.3 1.2-1.5 2.2-.4 1.6-.5 3 .8 4.4.6.6.5 1-.2 1.6-.2.1-.3.3-.5.4-.9.5-1.1 1.2-.9 2.2.2 1.2.1 1.2-1 1.7-1 .4-1.7 1.1-2.1 2.1-.4.9-.8 1.9-1.1 2.9-.3 1-.2 1.9.5 2.7.2.2.4.5.5.8.5.9.4 1.3-.3 2-.2.2-.3.3-.5.4-.7.6-.7.7-.4 1.5l.3.6c.5 1.1.4 1.6-.7 2.3-.5.3-1.1.6-1.7.8-.6.3-.9.7-1.1 1.3-.4 1.4-.3 2.8.5 4 .6.9 1.1 1.8 1.5 2.8.3.6.3 1.3-.1 1.8-.5 1.3-.7 2.5-.5 3.8zm11-2.8c0-.4.1-.6.2-.9.5-.7 1-1.2 1.7-1.6 1.3-.8 2.1-2 2.5-3.4.2-.8.5-1.7.8-2.5.2-.7.6-1.3 1.1-1.8.3-.3.6-.3.8 0l.9 1.2c.2.2.4.6.9.5.1-.7-.2-1.3-.3-2-.1-.4.2-.6.6-.6 1.1.1 2.2.3 3.1 1.2.2.3.5.5.8.8.1.1.3.1.4.1.2-.1.3-.3.3-.5 0-1.1-.3-2-1.3-2.6-2.1-1.4-4.8-1.1-6.5.6-.7.7-1.3 1.6-1.7 2.5l-.9 2.4c-.4 1.3-1 2.4-2.1 3.1-.3.2-.5.4-.7.6-2.3 2.2-2.1 6 .5 8 .5.4 1 .6 1.5 1 .3.2.4.5.1.8-.5.5-1.1 1-1.6 1.6-1 1.3-2.3 1.9-3.9 2-.9.1-1.8 0-2.7.1-1.1.1-2.1-.3-3-1-.5-.4-1.1-.7-1.6-1.1-.1-.1-.3-.1-.4 0-.1.1-.2.3-.1.4.1.4.2.7.4 1.1 1.1 2.2 2.7 4.1 4.6 5.7.8.7 1.8 1.1 3 1.1.6 0 1.3 0 1.9.3.4.2.8.2 1-.2.6-1 1.4-1.2 2.5-.9h.3c.4 0 .9.1.9-.4 0-.4-.5-.4-.7-.5-.1-.1-.2-.1-.1-.2h1c.3 0 .7.2.8-.2.1-.3-.4-.4-.5-.5-.1-.1-.1-.2 0-.2.5-.1 1.1-.1 1.6-.2.2 0 .4-.1.5-.4 0-.2-.2-.4-.3-.5-.2-.1-.6-.1-.5-.5.4-.1.8-.2 1.2-.4.2-.1.4-.3.2-.5-.4-.4-.7-.7 0-1 .1 0 .1-.3.1-.4.2-.9.2-2 1.4-2.3.2-.1.4-.4.5-.6.3-.8 1-1.1 1.7-1.3.7-.1 1.2-.4 1.6-1 .5-.9 1.3-1.6 2-2.3.2-.2.4-.4.5-.6.2-.2.3-.4.2-.7-.1-.3-.4-.3-.7-.3h-.6c-1.5.3-2.9.1-4.3-.1-1.4-.1-2.5-.5-2.9-2.1 0-.1 0-.1-.1-.1-.1-.4-.4-.5-.8-.4-.8.2-1.6.4-2.4.5-.6.1-1.2.2-1.7.3-.7.1-1.1.6-1.7.9zm-7.2-76c1 0 1.2-.4.8-1.3-.1-.1-.1-.3-.2-.4-2.9-5.7-4.9-11.7-6.4-17.9-.2-.9-.4-1.8-.7-2.7-.3-.8-.7-1-1.5-.7-1.5.6-2.7 1.7-3.7 3-1.8 2.2-2.6 7.6-1.8 10.5.6 2.3 1.8 4.1 4 5.2l.6.3c2.4 1.3 5 2.2 7.4 3.6.4.3 1 .4 1.5.4zm-13.2-29.3c0-.6-.3-1.1-.8-1.5-1.9-1.5-3.1-1.3-4.5.6-.6.8-.8 1.3.1 2.1.1.1.2.2.3.4.5.7.5 1.1 0 1.8-.2.2-.3.4-.5.6-1.1.7-1.5 1.5-.8 2.8.6 1.2-.3 2.4-1.7 2.6l-1.8.3c-.6.1-1 .5-1 1.1l-.3 3c0 .8.3 1.1 1 1.2.6.1 1.2.2 1.7.4s.8.5.9 1.1c.1 1.2 0 2.7-1.6 3.3-.5.2-1.4.2-1.4.8 0 .8 1 .9 1.5 1.2l.6.3c.3.2.7.4 1 .6.6.5.7 1 .3 1.7-.2.4-.5.7-.8 1-.5.5-.6 1.1-.3 1.8.2.4.3.8.5 1.2.9 1.4 1.1 1.5 2.6.6 1.7-1.1 3.5-.5 4.2 1.3.1.1.1.3.2.5.4 1 .5 1.1 1.5 1 .3 0 .5-.1.8-.1 1.2-.1 1.3-.1 1.9 1 .3.5.4 1.1.7 1.6.2.4.5.4.8.2 1.3-.8 2.7-1.6 4-2.5.4-.2.3-.7-.1-.9-.2-.1-.5-.2-.8-.3-.9-.2-1.6-.6-2-1.4-.3-.5-.8-.7-1.4-.7h-1.3c-1.7 0-1.9-.2-2.4-1.8-.6-2-.7-2-2.7-2.1h-.3c-1.3 0-2.1-.7-2.5-1.9-.3-.8-.4-1.7-.4-2.5v-5.3c0-1.5 0-2.9.3-4.3s.3-2.8.3-4.2v-1.1c.2-1.7.8-3.2 2.8-3.7.2 0 .4-.1.6-.3.6-.3.8-.9.8-1.5zm27.1 15.7c-.1-.6-.2-1.5-.4-2.2-.8-3.1-2.7-5.4-5.8-6.4-.8-.3-1.1-.1-1.3.7 0 .2-.1.3-.1.5-.5 3.3-.6 6.5.1 9.8.4 2 1.1 3.8 2.1 5.6.3.6.6.6 1.2.3.3-.2.5-.4.8-.6 2.3-2 3.2-4.6 3.4-7.7zm-10 38c0-1.7-.2-3.4-.7-5.1-.5-1.6-1.2-3.1-2.2-4.4-.3-.4-.7-.8-1.1-1.1-.6-.4-.9-.4-1.4.1-1.1 1.2-1.9 2.6-2.4 4.1-.7 2.1-.4 4 .9 5.8.6.8 1.4 1.5 2.3 2 1.2.6 2.4 1 3.7 1.1.6 0 .9-.2 1-.8 0-.6-.1-1.1-.1-1.7zm12-6.4c.1-1.2-.1-2.3-.5-3.3-1.1-2.5-2.9-4.5-4.9-6.2-.1-.1-.3-.2-.4-.2-.2-.1-.4-.2-.6 0-.2.2-.1.4-.1.6.2.8.6 1.5 1 2.2 1.4 2.4 2.3 4.9 2.6 7.7.1 1.1.3 2.2.5 3.3l.3.9c.1.2.4.3.5.1.3-.3.5-.6.7-.9.6-1.3 1-2.7.9-4.2zm-33.1-33.2c0 1.2-.1 2.1.3 3.1.1.2.1.4.4.5.2 0 .4-.2.5-.4.4-1 .3-2 .3-3-.1-.8 0-1.5.6-2.1.7-.7 1-1.5 1.1-2.4.2-1.1.5-2.2 1.3-3.1 1-1.3.6-2.8.5-4.2 0-.3-.4-.4-.6-.2-.3.2-.5.6-.7.9-1.1 1.9-2.1 3.9-2.8 6-.7 1.6-1 3.3-.9 4.9zm9.2-18.5v-1.6c0-.7-.3-1.2-.9-1.6-1.2-.8-2.2-1.7-3.1-2.8-.1-.2-.3-.3-.5-.3-.3.1-.4.4-.4.6-.2 1.3.2 2.4 1 3.3 1 1 1.7 2.2 2.3 3.5.2.4.4.7.7 1.1.1.2.3.3.5.3.3 0 .3-.3.3-.5.1-.7.1-1.4.1-2zm-5.8-2.4c-.1-1.1-.2-2.1-.3-3.1-.1-.6-.5-.9-1.1-.8-.5.1-.8.4-.8 1 0 1.3.4 2.5.9 3.7.1.3.4.5.8.4.3-.1.6-.3.6-.6-.1-.3-.2-.5-.1-.6zm22.9 105.5c-.8 0-1.8 1-1.8 1.8 0 .2.2.4.4.4.9 0 1.8-.9 1.7-1.8.1-.2-.1-.4-.3-.4zm8.1-110.6v-.5c0-.7-.3-1.1-.7-1.1-.4.1-.7.5-.8 1.1v.3c.1.7.5 1.2.9 1.2.4-.1.6-.5.6-1zm-18.9-95.4c5.2-.2 10.1 1 14.7 3.2 3.6 1.7 6.7 4 9.4 7 2.8 3 5 6.5 6.5 10.3.3.7.5 1.5.7 2.3.3.8.6 1 1.5.7.7-.3 1.5-.6 2.2-1 2.8-1.2 5.5-1.2 8.3.1.4.2.9.4 1.3.6.5.2.8.1 1-.4.4-.8.7-1.6 1-2.4 1.7-4.2 4.1-7.8 7.3-11 4.5-4.4 9.8-7.3 16-8.7 10.5-2.4 22.7 1.5 29.9 8.8 5.3 5.4 8.4 11.8 9.3 19.3.7 6.5-.4 12.6-3.4 18.5-3.3 6.4-8.2 11.3-14.7 14.5-5.9 2.9-12.2 3.7-18.7 2.8-7.1-1-13.2-4.1-18.3-9.1-4.8-4.8-7.8-10.6-8.9-17.4-.3-1.9-.5-3.8-.6-5.8-.1-3.5-3.2-5.8-6.6-5-2.6.6-4.4 2.6-4.8 5.3-.2 1.5-.2 3-.4 4.5-.8 5.5-2.8 10.4-6.2 14.7-3.9 5-8.8 8.7-14.7 10.9-2.4.9-4.9 1.5-7.5 1.8-1.3.1-2.6.3-3.9.3-7.8 0-14.8-2.5-20.8-7.6s-9.8-11.5-11.1-19.3c-1.4-7.9.1-15.4 4.3-22.3 3.4-5.6 8.1-9.9 14-12.7 4.2-2 8.6-3 13.2-2.9zm49.7 32.7c.1 1.2 0 2.4.2 3.6.6 4.2 2.1 8.1 4.7 11.5 6.4 8.5 14.9 12.4 25.5 11.4 4-.4 7.8-1.7 11.1-4 8.2-5.5 12.3-13.4 12.5-23.3.1-3.6-.9-7-2.4-10.3-1.6-3.4-3.7-6.4-6.5-8.9-6.3-5.7-13.7-8.2-22.1-6.9-5.9.9-11 3.5-15.2 7.8-5.3 5.4-7.7 11.7-7.8 19.1zm-22.5-.4c-.1-14.7-11.6-26.7-26.6-26.8-15.2 0-27.2 11.6-27.2 26.9 0 15.5 12.1 27 27 27 15.7 0 26.9-12.9 26.8-27.1zM398.8 231h-52.1c-.6 0-1.3 0-1.9-.1-.4 0-.5-.4-.4-.7.2-.4.4-.8.6-1.1 5.4-9.5 10.9-18.9 16.3-28.4l20.4-35.4c5.2-9 10.4-18.1 15.7-27.1l.9-1.5c.2-.3.5-.3.8 0 .2.3.4.5.5.8 5.6 9.7 11.3 19.5 16.9 29.2 5.7 9.9 11.5 19.8 17.2 29.7 5.3 9.2 10.6 18.3 15.9 27.5 1 1.8 2.1 3.5 3.1 5.3.2.3.4.7.5 1 .1.3 0 .6-.3.6-.6.1-1.3.1-1.9.1-17.4.1-34.8.1-52.2.1zm-1.9-31.7v-21.8c0-.5 0-1.1-.1-1.6-.1-.6-.3-.8-.8-.8s-1 0-1.4.1c-7.8 1.4-13.8 5.6-17.6 12.6-3.3 6.1-3.8 12.6-1.7 19.2 2.1 6.4 6.4 11.1 12.3 14.3 2.5 1.3 5.2 2.2 8 2.4.9.1 1.2-.1 1.2-1v-1.6c.1-7.3.1-14.5.1-21.8zm3.7.2v22.6c0 1.9.2 2.1 2 1.7 7.6-1.3 13.4-5.4 17.3-12 3.2-5.4 4-11.3 2.8-17.4-1.9-9.9-10.2-17.8-20.2-19.2-1.8-.3-1.9-.1-1.9 1.7v22.6zm-29-8.4c-.5-.1-.7.2-.8.5-.6 1.1-1.3 2.2-1.9 3.4l-17.7 30.6c-1.1 1.9-1 2 1.1 2h38.6c.6 0 1.3.1 2.1-.3-1.7-.8-3.4-1.1-5-1.8s-3.2-1.5-4.7-2.4c-1.4-.9-2.8-2-4-3.2-1.2-1.2-2.4-2.5-3.3-3.9-1-1.5-1.9-3-2.7-4.6-.7-1.6-1.4-3.2-1.8-4.8-.5-1.7-.7-3.4-.9-5.1-.1-1.8-.1-3.5.2-5.3.2-1.8.5-3.5.8-5.1zm54.4-.3c-.3.6 0 1.1.1 1.5.9 3.8 1.2 7.6.6 11.4-1.7 9.5-6.7 16.6-15.4 21-1.7.8-3.5 1.4-5.3 2-.3.1-.8.1-.8.6.5.3 1.1.2 1.6.2h38.3c.5 0 1 0 1.5-.1.4 0 .6-.4.4-.7-.3-.6-.6-1.1-.9-1.7-6.3-11-12.6-21.9-18.9-32.9-.4-.4-.6-.9-1.2-1.3zm-6-10.5c-.2-.5-.5-.9-.7-1.4l-2.7-4.8c-4.8-8.4-9.6-16.8-14.5-25.2-.2-.4-.4-.7-.7-1.1-.1-.1-.3-.2-.4-.2-.1 0-.2.2-.3.3 0 .4-.1.9-.1 1.3v9.5c-.4 3.9-.1 7.7-.2 11.6v.2c0 .4.3.7.7.8.4.1.7.1 1.1.2 1.1.1 2.2.3 3.3.6 5 1.3 9.2 3.8 12.9 7.3.4.4.8 1 1.6.9zm-23.2-21.1v-9.5c0-.5 0-1.1-.1-1.6 0-.1-.1-.3-.3-.4-.1-.1-.3 0-.4.1-.3.4-.5.8-.8 1.2-5.5 9.4-10.9 18.8-16.3 28.2-.4.7-.9 1.5-1.3 2.3-.1.1-.1.3 0 .4.1.1.3.1.4 0l.9-.9c2.4-2.2 5-4.1 8-5.4 2.6-1.1 5.3-1.8 8.1-2.2 1.6-.2 1.7-.4 1.7-1.9v-1.1c.1-3.1.1-6.2.1-9.2zM327.7 209c-.2-.4-.4-.9-.6-1.3-1.9-4.4-4-8.7-6.5-12.8-1-1.6-2.1-3.1-3.3-4.6-.7-.9-1.6-1.5-2.6-1.9-1.8-.7-3.6-1.1-5.4-1.5-1.6-.4-3.2-.8-4.8-1.3-.9-.3-1.7-.8-2.3-1.7-1.9-2.7-3.9-5.4-5.8-8.1l-4.8-6.9c-.2-.3-.5-.6-.4-1.1 2.1-.7 4.4-.3 6.7-1-.4-.5-.9-.5-1.3-.6-2.1-.4-4.2-.8-6.3-1.3-3.9-.8-4-.8-6.5-3.9-3.9-4.9-7.6-9.9-11.2-15-3.1-4.5-6-9.2-8.6-14-1.8-3.4-3.3-6.9-4.4-10.6-.7-2.4-1-4.8-.9-7.3 0-.6.1-1.2.3-1.7.1-.4.4-.5.8-.4.3.1.5.2.7.3 3.2 1.7 6.6 3.3 9.7 5.1 7.4 4.3 14.2 9.3 20.5 15 5.9 5.4 11 11.5 15.1 18.4 1 1.6 1.8 3.3 2.6 5 .9 1.7.8 3.4.5 5.2-.2 1.3-.5 2.6-.8 4-.1.5-.2 1-.2 1.4 0 .5.4.8.8.5.8-.5 1.6-1.1 2.4-1.7.4-.2.7-.5 1.1-.7.3-.2.6 0 .7.4 0 .4.1.8 0 1.1-.1 1.7 0 3.4-.2 5.2-.2 1.6.2 3.1 1.3 4.4 5.9 7.4 9.5 15.9 11.9 25 .7 2.6 1.2 5.2 1.7 7.9.2.2.3.4.1.5zM96 181.4c1.2 0 1.8 1.1 2.9 1.2.5-1.3-.4-2.5.1-3.8 1.3.2 2 1.4 3.4 1.6-.1-.8-.6-1.2-1-1.7s-.9-.9-1-1.7c1.2 0 2.3.5 3.3.8.5.2 1 .6 1.7.4.2-.8-.6-1.1-.9-1.6-.4-.6-1-1-1.2-1.7 0 0 0-.1.1-.2.5-.2 1 .1 1.5.2 1.6.4 3.1.9 4.6 1.6.3.1.6.3.9.4.3.1.7.4 1 .1.3-.2.1-.6.1-.9 0-.3-.3-.6-.1-.9.2-.1.4 0 .6.1 7 3.3 13.7 7 20.2 11.1 3.9 2.5 7.4 5.6 10.5 9.1 1.8 2.1 3.9 3.9 6.1 5.5 1.6 1.2 3.1 2.4 4.4 4 .6.8 1.2 1.5 1.9 2.2.5.6 1.2 1.1 1.9 1.5 3.2 1.6 6.5 3 9.9 4.2 7.2 2.6 14.6 4.2 22.1 5.3 4 .6 8 .9 12 1.2 3.3.2 6.6.1 9.8.3 3.1.2 6.2-.2 9.3-.1 3.1.1 6.1.1 9.2-.1 2-.1 4.1-.1 6.1-.4.8-.1 1.7-.1 2.6 0 .9.1 1.7.4 2.3 1 .8.7.9 1.5.3 2.5-.5.8-1.1 1.3-2 1.5l-1.8.3c-2.8.2-5.6.2-8.4.5-1.9.1-3.8.2-5.6.2-3.1.1-6.2-.2-9.3-.5-1-.1-1.9 0-2.9-.1-6.2-.3-12.3-.9-18.4-1.9-8.7-1.3-17.3-3.3-25.8-5.7-1.5-.4-3.1-1-4.6-1.5-2.2-.8-4.5-1.5-6.9-1.7-1.3-.1-2.6-.5-3.9-.9-1.5-.4-3.1-.7-4.6-.6-2.9.2-5.5-.4-8.1-1.7-3-1.4-6-2.6-9.2-3.4-1.3-.3-2.6-.6-4-.8-8.2-1.1-15.5-4.4-21.7-9.8-3-2.6-5.5-5.6-7.4-9.1-.1-.2-.3-.5-.4-.7-.5-1-.4-1 .6-1.1h.3c.5-.1.7-.3.5-.8-.2-.7-.5-1.4-.7-2.2 0-.4-.1-.8-.3-1.2zm187.2 374.1c-.7 1.6.5 2.3 1.8 3 1.8 1 3.7 1.4 5.7 1.7 1 .1 1.9.4 2.7.9.7.5.9 1.1.7 1.9-.9 3.4-3.1 5.7-6.1 7.3-1.3.7-2.8.1-3.5-1.3-.2-.3-.3-.7-.4-1.1-.6-2.1-1.7-3.9-2.9-5.7-.7-1.1-1.6-1.5-2.9-1.2-1.1.3-2 0-2.9-.6-1.6-1-2.9-2.3-4-3.9l-2.4-3.6c-.6-.9-1.2-1.6-2-2.3-2.9-2.6-5.8-5.2-8.6-7.8-.4-.4-.9-.8-1.3-1.2-.6-.6-1.4-.9-2.2-.5-1.5.6-2.9.3-4.3-.6-1.2-.7-2.2-1.8-3.3-2.5-1.6-1.2-2.5-2.7-3.2-4.5-.5-1.3-1.4-2.3-2.2-3.3-1.8-2.1-3.7-4.2-5.8-6-.1-.1-.3-.2-.3-.3-1.3-2.1-3.4-3.2-5-5-.3-.3-.5-.5-.9-.7-2.1-1.1-3.8-2.8-5.5-4.5-.5-.5-1-1-1.5-1.4-.8-.7-1.7-1-2.7-.9-1.9.3-3.4-.4-4.8-1.5-.8-.6-1.5-1.3-2.3-2-.5-.5-1-1-1.3-1.6-1.4-2.7-3.4-4.9-5.6-7-2.4-2.3-5-4.4-7.6-6.5-1-.9-2-1.8-2.9-2.8-1.1-1.1-2.3-2-3.5-2.9-1.7-1.3-3.4-2.7-5-4.1-.8-.7-1.6-1.3-2.5-1.8-.8-.5-1.6-.9-2.5-1.1-1.6-.3-3-1.1-4.2-2.3l-.8-.8c-1-.8-1.7-1.8-2-3-.4-1.4-1.3-2.5-2.4-3.4-3.5-2.6-6.7-5.6-10-8.4-3.1-2.7-6.2-5.3-9.3-8-.6-.5-1.3-1-2.1-1.2-2.7-.9-4.7-2.5-6.3-4.8-2.3-3.5-5.3-6.3-8.5-9L124.3 429c-.7-.6-1.4-1.1-2.2-1.6-1.6-.9-2.9-2.3-4.3-3.5-.8-.7-1.5-1.4-2-2.3-.5-.9-1.3-1.6-2-2.3-4.5-4.1-9.1-8.1-13.7-12-1.7-1.4-3.3-2.9-5-4.4-.1-.1-.2-.1-.2-.2-.4-.4-.5-.8-.2-1.1.3-.4.8-.6 1.3-.5.5.1.9.5 1.4.9 2 1.7 3.9 3.3 5.9 5 3.7 3.1 7.3 6.1 11.1 9.2 1.1.9 2.4 1.6 3.6 2.5 1 .7 1.9 1.4 2.9 2.1 1.3 1 2.5 2 3.5 3.3 1.4 1.8 3.3 3.1 5 4.5 4 3.4 8 6.7 12.1 10 1.7 1.4 3.5 2.5 5.4 3.6.3.2.7.4 1 .5 2.7.8 4.5 2.6 5.9 4.9.7 1.1 1.5 2.1 2.4 3 2.5 2.6 5.3 4.9 8 7.2 3.2 2.6 6.3 5.2 9.5 7.8 1.3 1.1 2.7 2.1 4.3 2.8.4.2.9.5 1.3.6 3.2.7 5.3 2.8 7 5.4 1.2 1.7 2.4 3.3 4 4.6 4.3 3.8 8.6 7.7 13 11.3 2.4 2 4.8 4 7.3 5.9 1.4 1.1 2.9 2 4.7 2.4 2.1.5 4 1.3 5.6 2.8.9.8 2 1.5 2.7 2.5.6.9 1.2 1.8 1.2 2.9 0 .9.5 1.5 1.1 2 1.5 1.1 3 2.3 4.5 3.4.6.5 1.2.9 1.6 1.5.1.2.3.3.4.5 1.5 1 2.7 2.4 4.1 3.6.2.2.4.4.6.5 3.1 1.6 5.7 3.8 8.6 5.7 1.4.9 2.8 1.8 4.5 1.9 1.3.1 2.5.6 3.6 1.3 1.8 1.3 3.4 2.6 5 4.1 1.1 1.1 1.5 2.3 1 3.7-.5 1.5-.8 1.7 1.1 3 2.7 1.9 5.1 4.2 7.6 6.3 2.1 1.8 4.3 3.3 7 4.2 2.2.8 4.3 2 6.1 3.5.7.6 1.2 1.2 1.5 2 .1.5.3.9.1 1.5zM52.3 215.4c.9-.6 1.6-.8 2.3-.8 1-.1 1.9-.1 2.9-.1 2-.1 4-.5 5.7-1.4.3-.2.6-.3.8-.5.5-.3.5-.4 0-1.3 1.5-.1 2.9 0 4.3.2l1.8.3c.7.1.8 0 .6-1 .9-.1 1.7-.1 2.5.1s1.7.5 2.5.7c.7.2 1.4.5 1.9-.3 0-.1.2-.1.3-.1 1 .1 2 .1 3.1.2.6.1.9.5 1.3.9.6.6 1.1 1 2 .8.6-.1 1 .2 1.4.7.4.5.8.9 1.4 1 2.6.5 4.8 2 6.7 3.7 1.4 1.2 2.7 2.7 3.8 4.2 1.3 1.7 1.6 3.6 1.7 5.6 0 .4-.4.7-.8.5-.3-.1-.6-.3-.8-.5-.6-.5-1.2-1-1.7-1.5-1.3-1.2-2.8-2.2-4.3-3.2-.2-.1-.5-.2-.7-.3-.3 0-.4.2-.4.4s.1.3.2.4c.7 1 1.3 2 2.3 2.7.8.6 1.4 1.3 2 2.1 1.6 1.9 3.3 3.8 5.2 5.5l.6.6c.7.8.6 1.7-.2 2.4-.3.3-.7.5-1.1.7-2.1 1.1-4.2 2.1-6.4 3.1-.2.1-.4.2-.6.2-1.4.4-1.9-.3-1.9-1.4v-3.9c.1-1.9 0-3.9-.1-5.8 0-.2-.1-.3-.2-.3s-.3.1-.4.2c-.3.4-.4.9-.4 1.4-.2 1.6-.4 3.1-.5 4.6-.1 1.6-.6 3.2-.9 4.8-.3 1.7-1.2 2.9-2.7 3.8-1.5.8-2.9 1.5-4.7 1.5-.7 0-1.5.2-2.2.3-.7.1-.9-.3-.6-.8.4-.7.5-1.5.6-2.3.3-2.8.6-5.6 1.4-8.2 0-.2.1-.3.1-.5.4-2.4 1.2-4.7 2.7-6.6l.1-.1c.1-.2.3-.5.1-.7-.3-.3-.5-.1-.7.1-1.1 1-2.2 2-2.9 3.4-.6 1.3-1.2 2.5-1.7 3.8-.2.4-.3.9-.5 1.3s-.1 1-.7.9c-.4 0-.5-.5-.7-.8-.3-.6-.4-1.2-.2-1.9.7-2.6 1.5-5.1 2.9-7.3.5-.7.9-1.5 1.4-2.2 1.3-2.2 2.8-4.3 4.9-5.9.3-.2.8-.5.6-1-.1-.3-.7-.3-1.3 0-1 .6-1.9 1.4-2.8 2.2-1.2 1.1-2.3 2.2-3.5 3.4-.6.6-1.2 1.1-2 1.2-.6 0-.7.3-.6.9.2.8 0 1.6-.4 2.3-.5 1.1-1 2.3-1.7 3.3-.7 1.1-1.4 1.4-2.6.9-1.3-.5-2.5-1.3-3.5-2.3-.8-.9-1.1-1.9-1-3.1.3-1.9.6-3.7 1.3-5.5.6-1.6 1-3.3 1.4-5 .2-.8.2-1.6-.2-2.4 0-.1-.2-.2-.2-.2-.1 0-.2.1-.3.1-.1.1-.1.2-.1.3-.2 1.9-1.1 3.6-1.8 5.3-.5 1.4-1.1 2.8-1.6 4.2-.2.5-.4 1.1-.8 1.6-.8 1-1.9 1.3-3 .8-.3-.1-.7-.4-1-.6-1-.7-2.1-1.2-3.1-1.7-.3-.2-.7-.3-1.1-.3-.2 0-.4.3-.3.4.2.3.4.5.6.7 2 2 3.9 4.2 6.3 5.8.3.2.6.5.8.7 2 2.3 4.4 4 7.1 5.3 2.1 1 3.6 2.6 4.9 4.6.7 1 .8 1.9.2 3-.4.6-.6 1.4-1.1 2-.6.8-1 .9-1.9.4l-5.4-3.3c-.6-.4-1.2-.7-1.9-1-.5-.2-1-.4-1.6-.4-.9 0-1.3.4-1.1 1.3.1.6.3 1.1.5 1.7.1.4.3.8.4 1.2.1.4-.1.6-.5.7-.3.1-.5.1-.8.1-2.2.1-4.4.3-6.6.4l-4.5.3c-1.6.1-1.7 0-2.1-1.5-.2-.5-.3-1-.6-1.5-.1-.3-.3-.6-.5-.8-.7-.7-1.5-.7-2 .2-.4.7-.7 1.4-.9 2.2-.1.3-.1.5-.1.8-.1.3-.2.7-.6.7-.4.1-.5-.3-.6-.6-.6-1.8-.9-3.6-.7-5.5.1-.7.1-1.5.2-2.2 0-.5-.2-.8-.7-.9-.4-.1-.7-.2-1.1-.2-.9-.2-1.4-.7-1.6-1.6-.4-1.9-.6-3.7-.3-5.6.3-1.9 1.1-3.6 2.4-5 2.4-2.4 4.8-4.8 7.3-7.1 1.1-1.1 2.6-1.7 4.1-2 .5-.1.9-.2 1.4-.3.3-.1.6-.1.6-.5s-.4-.3-.6-.4c-.4.1-1 .1-1.9.1zm-4.7 26.2c.8-.9 1.2-1.9 1.7-2.8.1-.2.2-.4 0-.6-.2-.3-.5-.1-.7 0-.3.1-.7.3-1 .4-.2.1-.4-.1-.4-.4 0-.3.1-.5.1-.8.3-1.4.7-2.7 1-4.1.1-.3.3-.6-.3-.8-1 2.2-1.9 4.4-2.6 6.7-.1.3-.2.7 0 .9.3.3.6.1.9 0 .3-.1.6-.3.9-.1.4.5-.1 1.1.4 1.6z"/>
	<path d="M348.7 277.5c-1-.5-1.9-1.2-2.8-1.9-5.1-3.7-9.9-7.7-14.5-11.8-3.2-2.9-6.4-5.9-9.5-8.9-4.2-4-8.2-8.2-12.3-12.4-2-2-4-4.1-6-6.1-1-1-.9-1.2.3-1.8 4.3-2.2 8.6-4.3 12.9-6.3.2-.1.5-.2.7-.3 1.4-.7 1.5-.7.6-2.1l-2.7-4.2c-3.9-5.9-7.8-11.9-11.7-17.8l-2.7-4.2c-.2-.3-.4-.5-.3-1 1.4.1 2.8.1 4.3.2 2.8.2 5.7.4 8.5.6 1.9.2 3.9.4 5.8.5 1 .1 1.6.5 2.1 1.3 1.4 2.5 2.9 4.9 4.4 7.3 3.8 6.4 7.5 12.8 11.3 19.2 1.8 3.1 3.7 6.2 5.5 9.3.2.3.3.6.5.8.3.6.2.9-.4 1.2-1.7.7-3.4 1.5-5 2.2-1.6.7-3.3 1.4-4.9 2.1-.4.2-.8.4-1.1.6-.2.2-.3.4-.2.7.2.4.4.9.6 1.3 3.8 7.1 7.6 14.2 11.5 21.3l4.8 9c0 .4.1.8.3 1.2zM234.4 458.7h-40.5c-.8-.1-1-.3-.6-1 .3-.5.6-1 .9-1.6 3.6-6.2 7.2-12.5 10.8-18.7 9.3-16.1 18.5-32.2 27.8-48.2.4-.7.7-1.3 1.1-1.9.4-.6.7-.6 1.1 0 .2.3.3.5.5.8 4.9 8.4 9.7 16.7 14.6 25.1 5 8.6 10 17.1 14.9 25.7 2.5 4.3 4.9 8.7 7.3 13.1.9 1.6 1.9 3.3 2.8 4.9.2.3.3.6.5.8.3.5.1.9-.5.9-.6.1-1.3.1-1.9.1h-38.8zm1.2-23.9v16.9c0 1.2.2 1.3 1.3 1.2.5 0 1.1-.1 1.6-.3 4.8-1.2 8.5-4 11.2-8.2 2.3-3.6 3.3-7.5 2.8-11.7-.9-7.1-5.2-13-12.8-15.5-1-.3-2.1-.6-3.1-.7-.5 0-.8.2-.9.7-.1.5-.1 1.1-.1 1.6v16zm-3.1.2v-17.3c-.1-1-.4-1.2-1.4-1.1-.2 0-.4.1-.6.1-8.6 1.6-15.9 10.2-14.5 20.5 1 7.2 5 12.1 11.7 14.8 1.2.5 2.5.8 3.8.9.8.1 1-.1 1.1-.9v-1.5c-.1-5-.1-10.2-.1-15.5zm23.4 21.2h12.6c2.6 0 2.6-.1 1.3-2.3-4.3-7.4-8.5-14.8-12.8-22.2-.3-.5-.4-1.1-1.1-1.3-.6.5-.2 1.2-.2 1.8.4 2.5.3 5.1-.3 7.5-1.7 6.9-5.7 11.9-12.1 15-.5.3-1.1.5-1.6.8-.1.1-.2.3-.2.4 0 .2.2.3.3.3.5 0 1 .1 1.4.1 4.3-.1 8.5-.1 12.7-.1zm-43.2 0h14c.1 0 .3-.1.3-.3 0-.1-.1-.3-.2-.4-.3-.2-.7-.4-1-.5-.8-.4-1.6-.7-2.3-1.1-4.4-2.4-7.4-6.1-9.4-10.7-1.3-2.9-1.7-6-1.5-9.1.1-1 .1-2 .1-3.1 0-.1-.1-.3-.2-.4-.2-.2-.4.1-.5.2-.3.4-.6.8-.8 1.2-.6 1.1-1.2 2.2-1.8 3.2-3.6 6.3-7.2 12.6-10.9 18.9-1.1 1.9-1 2.1 1.3 2.1h12.9zm6.7-37.6c.7-.2 1.1-.6 1.6-1 1.8-1.4 3.8-2.4 6-3.1 1.5-.5 3-.8 4.5-1.2 1.3-.3 1.5-.5 1.6-1.8V397c0-.4.1-.8-.4-1-.5-.2-.6.3-.8.6-.2.3-.3.5-.5.8l-11.7 20.1c-.1.3-.4.6-.3 1.1zm29.3-.2c.1-.4-.1-.7-.2-1l-2.4-4.2c-3-5.4-6.1-10.8-9.3-16.1-.2-.3-.4-.6-.7-.9-.2-.2-.4-.1-.5.1-.1.4-.1.9-.1 1.3v14.6c.1.7.2.9.9 1.1.3.1.6.1 1 .2 3.7.6 7.1 2.2 10.1 4.4.4.1.6.4 1.2.5zm14.5 91.2c0-.2 0-.3-.1-.3-1.5-1.6-1.9-1.4-2.7.2 0 0 0 .1-.1.1-.3.3-.4.9-.9.7-.5-.2-.4-.7-.4-1.1 0-.5.1-1 .2-1.4 0-.3.1-.5-.2-.8-.8.5-.9 1.7-1.6 2.3-.5-.1-.4-.5-.5-.8-.2-.8-.2-1.7-.2-2.6 0-1.3 0-1.4-1.3-1.8l-1.8-.6c-1.8-.6-3.3-1.5-4.3-3.2-.5-.8-1.2-1.5-2-2-.5-.3-.8-.2-.9.4v1c0 1.7-.7 2.9-2.2 3.6-1.6.7-3.1.7-4.6-.4-1.5-1-2.2-2.5-2.4-4.2-.1-1.7-.4-3.3-.3-5v-1c0-.3 0-.6-.3-.7-.2-.1-.4.1-.6.2-.5.4-.9.9-1.5 1.2-.7.4-1.4.3-1.9-.3-.4-.4-.5-1-.3-1.5l.6-1.5c.3-.8.2-1-.4-1.5-.2-.1-.4-.2-.5-.4-3.7-2.4-7.4-4.8-11.1-7.3-1.5-1-3.2-1.5-5-1.7-1-.1-1.6.1-2.2 1-1.2 1.9-2.5 3.8-3.8 5.6-.2.4-.5.7-.8 1-.3.3-.7.3-1 .1-.3-.3-.3-.6-.1-.9l.9-1.5c.2-.3.4-.7.5-1 .2-.4-.2-.7-.6-.7-.6.1-1 .4-1.3.9-.3.4-.6.9-.9 1.3-.4.5-.7.6-1.1.3-.5-.3-.5-.6-.2-1.2.4-.7.8-1.4 1.1-2.1.1-.2.1-.4 0-.6-.2-.3-.5-.2-.7-.1-.7.3-1.2.8-1.7 1.5-.8 1.1-.9 1.3-2.2.4-1.5-1.1-1.5-1.1-.5-2.6.4-.5.8-1 1.1-1.6.5-.8 1-1.4 2-1.3.4 0 .6-.2.6-.6 0-1 0-1.9-.1-2.9 0-.5-.4-.7-.8-.5-1 .5-2.1.7-3.1 1-.2.3-.1.5 0 .6.7.7.6 1.4.1 2.1l-1.8 2.7c-.5.7-.6.7-1.3.2-.7-.4-1.3-.9-2-1.4-.5-.4-.6-.7-.2-1.2.4-.6.9-1.2 1.3-1.8 1-1.4 2-2.9 3.1-4.4.7-1 1.1-2.2 1.1-3.5v-1.5c0-.8.3-1.6.8-2.3.8-1 1.9-1.4 3.1-1 .5.2 1 .5 1.4.8 9.5 6.3 18.9 12.6 28.4 18.8 2 1.3 1.7 1.4 3.4-.4.1-.1.2-.3.3-.4.7-.7 1.4-.7 2 .1.3.4.4.9.4 1.4 0 .6-.1 1.2-.2 1.8-.1.6.1.8.7.6.6-.2 1.1-.5 1.6-.7 1.2-.5 2.5-1.1 3.8-1.4 1.2-.3 2.3-.3 3.5 0 3 .8 4 4 2.8 6.6-.2.4-.5.7-.9.9-.5.3-1 .5-1.4.7-.4.2-1 .2-.9.7 0 .5.6.6 1 .8.9.4 1.8.6 2.8.8 1.1.1 2 .6 2.8 1.4.9.9 1.7 1.8 2.6 2.7.7.8.8.8 1.8.3.9-.4 1.8-.7 2.7-1 .4-.1.7-.1 1.2 0-.1.8-.6 1.3-1.1 1.7-1.2 1.2-1 1.5.3 2.3.7.4 1.3.9 2 1.3.6.4.9.2 1.1-.4.1-.5.1-1 .2-1.4.6-5.8 6.2-8.6 10.3-8.1 3.1.4 5.3 2.1 6.9 4.6 1.5 2.3 1.8 4.8.8 7.4-.2.5-.3.9-.5 1.4-.3.7-.2 1.2.4 1.7.4.3.8.6 1.1.9 2.6 2.5 3.6 5.6 2.8 9.1-.8 3.5-3.1 5.7-6.4 6.9-2.3.8-4.5.6-6.7-.5-.7-.3-1.3-.9-2.1-.8-.8.1-1.2.9-1.7 1.4-3.9 3.4-9.5 3.2-12.9-.6-1.9-2.1-2.6-4.7-2.3-7.5.3-2.9 1.7-5.2 4.3-6.7.6.1 1.3-.2 1.7-.8zm6.3 4.2c-1.6-1.3-4.2-1.4-6-.4-2.7 1.4-3.4 4.1-2.9 6.7.2 1.1.6 2.1 1.4 2.9 2.4 2.5 7.1 2.1 9.2-.7.3-.4.6-.8.5-1.3-.1-1.5-.2-3-.6-4.5-.5-1.6-.9-1.6-1.9-.6-.2.2-.4.3-.6.5-.3.3-.2.6.2.7.2 0 .4 0 .6.1.7.2.9.8.5 1.3-.5.6-1.1.8-1.8.8-.7-.1-1.2-.5-1.4-1.2-.4-.9-.3-1.8.5-2.5.5-.5 1-.8 1.6-1.1.2-.2.6-.3.7-.7zm13.1-10.9c.2-3.3-2.9-6.4-6.5-5.9-2.4.4-4.1 1.6-5 3.9-.8 2.2-.5 4.3 1.2 6.1.2.2.4.6.8.4.3-.1.3-.4.4-.7.1-.6.3-1.3.6-1.8.6-1.1 1.5-1.5 2.6-1.2.9.3 1.5 1.1 1.5 2.2 0 .3-.1.6-.1 1s.2.6.6.6c1.9 0 3.2-.9 3.8-2.7.1-.6.2-1.2.1-1.9zm3.9 13.5c0-.8-.3-1.8-.8-2.7-1.1-2-2.8-2.8-5-2.2-1.2.3-2.5.8-3.7 1.2-.9.3-1.1.7-.7 1.6.2.6.6.7 1 .2.3-.4.6-.8.9-1.1.3-.3.6-.4 1-.2.2.1.4.2.5.3 1.4 1 1.6 1.1.5 2.9-.7 1.1-1.7 1.4-2.9.8-.4-.2-.8-.5-1.3-.7-.3-.1-.5 0-.6.4 0 1.2.1 2.5.4 3.7.2.6.6 1 1.1 1.3 2.1 1.3 4.2 1.3 6.3.2 2.4-1.2 3.3-3 3.3-5.7zm-44.8-18.5c.5-.5.9-1 1.4-1.5.2-.2.2-.5 0-.7-1-.8-2.1-1.5-3.3-2-.3-.1-.5.1-.6.4-.2 1.8-.2 3.5.7 5.2.3.5.6 1 1.1 1.4 1.2.9 1.8.7 2.6-.5.1-.2.3-.5.4-.7.2-.5.1-.8-.5-.9-.7-.4-1.3-.2-1.8-.7zm6.3-10c.3 0 .4.2.6.4.2.4.5.8.7 1.2.4.6.8.6 1.2 0 .2-.3.4-.6.6-1 .4-.8.3-1.1-.5-1.6-.7-.5-1.6-.7-2.4-.7-1.7 0-3.3.5-4.8 1.3-.4.3-.5.6-.1.9.9.7 1.9 1.4 2.9 2.1.1.1.2.1.3.1.2 0 .4 0 .5-.2.1-.4.2-.7.3-1.1.2-.5.3-1.1.7-1.4zm28.6 17.6c-.8.4-1.2.9-1.6 1.4-.2.3-.3.6 0 .9.2.2.5.5.7.6.3.1.5.1.6-.2.4-.9.6-1.7.3-2.7zm-65.2-25.1c.3 0 .5-.3.7-.5.1-.2.2-.5 0-.7-.3-.4-.7-.6-1.2-.7-.5-.1-1.1.6-.9 1 .3.4.8.7 1.4.9zm17.2-219.7c-.8-.9-1.7-1.8-2.5-2.8-.6-.7-.6-.9 0-1.5 2.1-2.7 4.7-4.7 8.1-5.6.2-.1.4-.2.6-.2.9-.1 1.4-.7 1.6-1.6.5-1.5 1-3 1.4-4.5 1.8-5.6 3.5-11.2 5.3-16.8.6-1.9.9-3.8.4-5.7-.2-.6-.4-1.2-.6-1.9.3-.1.5-.2.7-.2h11.5c.1 0 .3.1.5.2 0 .2 0 .3-.1.5-1 2-.9 4.1-.2 6.1l1.5 4.8c2.2 6.9 4.5 13.8 6.7 20.7.7 2.3 1.4 4.5 2.2 6.8.6 1.8.6 1.8 2.3 1 .9-.4 1.8-.9 2.7-1.3.4.4.1.7-.1.9-.7 1.1-1.5 2.3-2.3 3.3-1.1 1.3-1.2 1.1-.6 3.2 1.2 3.8 2.5 7.6 3.7 11.3.3.9.7 1.8 1.1 2.7.7 1.4 1.6 2.6 3 3.3.2.1.5.2.5.5-1.2.2-15.8.3-17.9.1-.2-.3.1-.5.3-.6.5-.3 1-.7 1.5-1 1.5-.7 1.9-2 1.7-3.5-.1-1.1-.4-2.1-.7-3.1-.6-2.1-1.3-4.2-1.9-6.3-.3-1-.8-1.6-1.9-2-3.1-1-5.7-2.8-8.2-4.7-1.8-1.4-3.5-2.8-5.2-4.4-.2-.1-.3-.3-.5-.4-.6-.5-1-.4-1.2.3-.1.2-.1.4-.2.6-2.5 7.8-5.1 15.7-7.6 23.5-.2.6-.3 1.1-.4 1.7-.3 1.3.1 2.3 1.1 3.1.2.2.6.2.7.7-4.5.3-8.9.1-13.4 0-.1-.2.1-.3.2-.3 1.5-.5 2.2-1.7 2.6-3.1 1.2-3.7 2.4-7.5 3.6-11.2 1.8-5.7 3.7-11.5 5.5-17.2.2-.6.7-1.3.1-1.8-.5-.4-1.1 0-1.7.1-1.8.4-3.3 1.3-4.6 2.5-.8.7-.8.9-.3 1.8.4.7.7 1.4 1 2zm20.5-24.4c-.5.2-.5.6-.6 1-1 3.5-2 6.9-3.1 10.4-.4 1.5-.9 3-1.3 4.5-.3.9-.1 1.7.6 2.3 1.1.9 2.1 1.8 3.2 2.7 1.8 1.5 3.7 2.8 5.8 3.8.7.3 1.5.6 2.3.8.6.1.9-.1.7-.7-.1-.5-.3-1-.4-1.6-2.2-7.3-4.4-14.5-6.6-21.8-.1-.5-.2-1-.6-1.4zm-95.2 189.6c1.8-.3 3.2-.5 4.7-.7 3.2-.5 6.4-1 9.6-1.4 1.2-.2 1.9-.7 2.4-1.8 1.7-3.6 3.6-7.2 5.3-10.9.3-.5.4-1.1.9-1.5.5.1.6.5.8.8 1.9 3.7 3.8 7.4 5.6 11.1 1 2 1 2 3.3 2.3 4.2.6 8.4 1.2 12.6 1.9.3 0 .5 0 .8.2 0 .4-.4.6-.6.9-3 3-5.9 5.9-9 8.8-1.7 1.6-1.7 1.5-1.3 3.9.7 4 1.4 7.9 2.1 11.9 0 .2.1.4.1.6 0 .2.1.4-.1.6-.2.1-.4.1-.6 0-2.8-1.4-5.5-2.9-8.3-4.3-1.4-.7-2.8-1.4-4.1-2.2-.7-.4-1.4-.4-2.1 0-3.9 2.1-7.9 4.2-11.8 6.3l-.6.3c-.4.2-.7 0-.6-.5.3-1.9.6-3.8 1-5.7.4-2.5.9-5.1 1.4-7.6.2-1.1 0-2-.9-2.8-3.1-2.9-6.1-5.9-9.1-8.9-.5-.2-.9-.6-1.5-1.3zm108.9-214.3c0-1.3.3-2.6.5-3.8.6-3.2 1.1-6.5 1.7-9.7.1-.4.1-.8.2-1.1.2-.8-.1-1.4-.6-1.9-2.3-2.2-4.4-4.5-6.8-6.7-1.2-1-2.2-2.2-3.3-3.3-.4-.4-.3-.8.3-.9 3.7-.6 7.4-1.1 11.2-1.7.8-.1 1.6-.3 2.4-.3 1-.1 1.6-.5 2-1.4 1-2.1 2.1-4.1 3.2-6.2.9-1.8 1.8-3.6 2.7-5.3.2-.5.4-1 .9-1.3.6.4.7 1 1 1.5 1.7 3.4 3.4 6.8 5.1 10.3.2.3.4.7.5 1 .4 1 1.1 1.3 2.1 1.5 4.4.6 8.7 1.3 13.1 1.9.2 0 .3 0 .5.1.5.1.7.4.3.8-.3.4-.7.7-1 1-2.9 2.5-5.5 5.3-8.2 8l-1 1c-.6.6-.8 1.2-.6 2 .5 3 1 5.9 1.6 8.9.2 1.3.5 2.6.7 4 0 .3.1.5 0 .8 0 .3-.3.5-.6.4-.4-.1-.7-.3-1-.5-3.8-2-7.5-3.9-11.3-6-.8-.4-1.4-.5-2.2 0-3.9 2.1-7.8 4.1-11.7 6.1-.7.4-1.2.6-1.7.8zm38.9 83.9c.5-.4.9-.4 1.3-.4 3.9-.6 7.9-1.1 11.8-1.7 3.2-.5 2.6-.1 4-2.9 1.7-3.5 3.4-6.9 5.1-10.4.1-.2.2-.5.4-.7.2-.3.5-.3.7 0 .2.3.4.6.6 1 1 2 1.9 4 2.9 5.9.9 1.7 1.8 3.4 2.6 5.2.5 1.1 1.3 1.6 2.4 1.8 2.5.3 5 .7 7.5 1.1 1.6.2 3.2.5 4.8.7.6.1 1.1.2 1.8.4-.1.3-.2.4-.3.5l-2.4 2.4c-2.7 2.4-5.1 5.1-7.7 7.6-.5.5-.7 1-.6 1.7.3 1.9.6 3.7.9 5.6.4 2.8.9 5.5 1.3 8.3v.5c0 .3-.2.4-.4.3-.3-.1-.6-.2-.9-.4l-11.4-6c-.9-.5-1.7-.6-2.7 0-3.8 2.1-7.7 4-11.6 6-.4.2-.8.6-1.2.4-.5-.3-.1-.9 0-1.3.7-4.1 1.4-8.3 2.1-12.4.1-.3.1-.6.2-1 .1-.7-.1-1.2-.6-1.7-3-2.9-6-5.8-9-8.8-.5-.6-1.2-.9-1.6-1.7zm230.6 47.4c.5.3.6.8.8 1.3 1.8 3.6 3.6 7.1 5.4 10.7.1.3.3.6.4.9.4 1 1.1 1.4 2.1 1.5 1.5.2 3.1.5 4.6.7 2.9.4 5.7.9 8.6 1.3.3 0 .5 0 .7.2.2.4-.2.6-.4.8-3 3-6.1 5.9-9.1 8.9-.2.1-.3.3-.5.4-.9.7-1 1.5-.8 2.6.8 4.3 1.5 8.6 2.2 12.9.1.3.1.6.1 1 0 .2-.2.3-.3.3-.4-.1-.7-.2-1-.4-1.8-1-3.6-1.9-5.4-2.9-2-1.1-4-2.1-6-3.2-1-.6-1.9-.6-3 0-3.6 2-7.2 3.9-10.8 5.8-.3.2-.6.3-.8.5-.2.1-.5.3-.8.1-.3-.2-.2-.5-.1-.7.7-4.2 1.5-8.5 2.2-12.7 0-.2.1-.4.1-.6.2-1 0-1.8-.8-2.5l-6-5.7-3.9-3.9c-.4-.4-.3-.7.3-.8 2.9-.4 5.7-.9 8.6-1.3 1.6-.2 3.2-.5 4.8-.7 1-.1 1.7-.6 2.1-1.5 1.3-2.8 2.7-5.5 4-8.3l2.1-4.2c.2-.3.3-.5.6-.5zm-434.2-142c-.6-.2-1.2.1-1.7.3-.7.3-1.4.8-2.1.6-.8-.2-1-1.1-1.5-1.6-.2-.2-.4-.5-.7-.7-.3-.2-.6-.3-.9-.1-.3.2-.3.6-.2.9.2.4.4.9.6 1.3 1 1.7.8 1.8-.2 3.3-.8 1.2-1.5 2.5-2 3.9-.2.7-.5 1.3-.4 2-4-3.2-8.5-5.4-13.5-6.6-5.2-1.3-10.2-3-15-5.4-.8-.4-1.5-.8-2.2-1.3-1.6-1.1-2.4-2.6-2-4.5.4-.3.8 0 1.1-.2.1-.1.3-.2.3-.3 0-.1-.1-.3-.1-.4-.3-.4-.8-.5-1-1h1.3c.5 0 .7-.4.5-.9l-.9-1.5c-.3-.5-.3-.6.3-1 .3-.2.4-.4.3-.7-.1-.3-.2-.5-.2-.8-.4-1.2-.1-1.8.9-2.5.4-.3.5-.7.4-1.1-.1-.7.2-1 .9-1.1.4 0 .5-.3.7-.6.9-1 1.1-2.2 1-3.4v-.5c.1-.7.3-1 1-1s1.2-.2 1.7-.7c.7-.7 1.6-1.2 2.7-1 .5.1 1.1-.1 1.6-.3.8-.3 1.5-.3 2.3.2.7.5 1.4.8 2.2.1.2-.2.5 0 .7.1l1.2.9c6.5 4.5 11.5 10.4 15.6 17.2.5.9 1.1 1.8 1.7 2.8 1.1 1.9 2.7 3.5 4.6 4.7.2.4.6.7 1 .9zm160.5 116c-1.1-1-2.2-1.9-3.5-2.5-1.2-.5-2.3-.8-3.6-.8-2.5 0-4.9.1-7.4.1h-.5c-1 .1-1.2.3-1.2 1.3v1.6c0 9.8.1 19.6.1 29.4v1.9c-.6 0-.6-.3-.8-.6-.4-.5-.7-1-1-1.5-.2-.2-.3-.6-.7-.5-.4.1-.3.5-.3.8 0 1.5-.1 2.9.1 4.4.1 1 .1 2 .2 3.1 0 2 .1 4 .1 6 0 .7.1 1.5-.1 2.4-.9-.4-1-1.6-2-1.9-.4.6-.4 1.2-.5 1.9-.4 4.1-.7 8.2-1.1 12.4 0 .1-.1.2-.1.3-.4-.1-.3-.5-.4-.7-.7-4-1.4-8-2.1-12.1-.7-4-1.4-8.1-2.1-12.1-.1-.3-.1-.6-.2-1 0-.3-.1-.6.1-.8.3-.2.5 0 .7.1.3.2.6.6 1 .3.5-.3.2-.8.2-1.2-.7-4.8-1.5-9.6-2.2-14.3-.1-.5-.4-1 0-1.4.5-.4 1 .1 1.5.3 1.6.7 1.7.6 1.6-1.2-.2-2.2-.5-4.5-.8-6.7-.3-2.6-.6-5.1-.9-7.7-.4-2.7 0-2.7-2.9-2.7h-6.1c-2.6 0-4.9.6-6.9 2.3-.3.2-.5.6-1 .5-.2-.2-.1-.5-.1-.8.5-2.8 1.1-5.6 1.6-8.4.1-.3.1-.5.2-.8.3-1 .4-1.1 1.5-1.1s2.1.2 3.2.2c4.9.3 9.8.5 14.7.4 4.9-.1 9.9-.2 14.8-.6 1.2-.1 2.5-.1 3.7-.3.8-.1 1.2.1 1.4 1 .5 2.2.9 4.4 1.3 6.6.1 1.6.4 3 .5 4.4zM383 379.2s0-.1.1-.1c1.3-1.5 1.6-3.3 1.6-5.2 0-4.3-.3-8.6-.3-12.9l-.3-11.1c0-.7-.1-1.5-.3-2.2-.2-.9-.8-1.4-1.8-1.5-.9-.1-1.6.1-2.1.9-.7 1.4-1.5 2.7-2.2 4.1-.4.7-.5 1.4-.5 2.2 0 4.4 0 8.7.1 13.1.1 1.8.1 3.7.3 5.5.1 1.5.4 2.9 1.7 3.9-1.2.3-5.2.4-10.2.2.4-.3.7-.5 1-.7 1-.5 1.3-1.3 1.4-2.4.1-2.5 0-5.1.1-7.6.2-4 .2-8 .3-11.9v-1.9c-.1-2.2-1.1-3.2-3.5-3.3.6-.5 1.3-.8 1.8-1.1.6-.4 1.2-.7 1.8-1.1.5-.3 1.1-.7 1.6-1.1.6-.4 1.1-.9 1.6-1.3s.9-1 1.7-1.5c.1 1.6 0 3 .1 4.5 0 .5.1 1.1.1 1.6 0 .3.4.4.6.1.2-.2.4-.5.6-.8.7-1.1 1.5-2.2 2.2-3.4 1.1-1.8 2.8-2.8 4.5-3.8.7-.4 1-.3 1.5.3.2.2.4.5.6.8 1.5 2.2 3.1 4.4 4.6 6.6.5.1.7-.3.9-.6.5-.8 1-1.6 1.5-2.5 1.2-2.1 3.1-3.2 5.1-4.3.7-.4.9-.2 1.5.5l3 4.2c1.8 2.6 1.6 1.7 1.6 5v23.9c0 .7-.3 1.2-.9 1.6-2.6 1.5-5.1 2.9-7.7 4.4.1-.2.3-.3.4-.5 1.2-1.2 1.7-2.6 1.7-4.4-.1-3.5 0-7.1-.2-10.6-.2-3.3-.1-6.6-.3-9.8-.1-1.6-.2-3.2-.2-4.8 0-.5 0-1-.1-1.4-.2-1.6-1.8-2.4-3.3-1.8-.4.2-.6.5-.8.8-.7 1-1.3 2.1-2 3.1-.5.7-.7 1.4-.7 2.3v20.1c.1 1.2-.3 2-1.4 2.6-1.8.9-3.4 2-5.2 3-.7-.1-1.1.2-1.6.3-.1 0 0 0 0 0zm42.5 45.4c.3-.8.8-1 1.2-1.3.6-.5.8-1.1.5-1.8-.2-.4-.4-.9-.7-1.2-2.1-2.6-4.7-4.7-7.5-6.5-.2-.1-.5-.3-.7-.4-1.3-.5-2-.4-2.9.6-.7.7-1.2 1.5-1.5 2.5-.4 1-.3 1.9.3 2.7.5.7 1 1.3 1.5 1.9 3.5 4.2 7.2 8.3 10.9 12.3 2 2.2 4 4.3 5.8 6.7.6.8 1.2 1.7 1.6 2.6.3.7.3 1.4-.3 2-.4.5-.8 1-1.3 1.4-3.4 2.8-6.8 5.6-10.4 8.2-1.2.9-2.5 1.7-3.9 2.2-.4.1-.7.2-1.1.4-.6.2-1 0-1.4-.4l-3.3-3.9c-1.4-1.6-2.7-3.2-4-4.8-1.3-1.5-1.9-3.3-2.5-5.2-.3-1.2.1-2.2 1-2.9 1.4-1.1 2.8-2.2 4.7-2.4.7-.1 1.5-.3 2.3-.5-.1.5-.4.7-.7.9-.4.4-.8.7-1.1 1.2-.6.9-.7 1.8-.2 2.7 1.6 2.9 3.4 5.6 5.7 8l.2.2c1.3 1.1 1.7 1.1 2.8-.3.7-1 1.5-1.9 2.3-2.9.2-.3.4-.5.6-.7.7-.9.8-1.9.1-2.8-.8-1.1-1.5-2.2-2.3-3.3-2.4-3.1-4.9-6-7.4-8.9-2.8-3.3-5.7-6.6-8.4-10-1.5-1.9-1.5-2.2.4-3.8 2.7-2.3 5.5-4.4 8.2-6.5 1.8-1.4 3.6-2.7 5.6-3.9.7-.4 1.4-.8 2.2-1 .8-.3 1.3-.1 1.9.5 1.2 1.4 2.4 2.8 3.5 4.2 1.2 1.5 2.5 3 3.7 4.4 1.4 1.6 2 3.4 2.5 5.4.3 1.2-.4 2.6-1.8 3.1-1.9.2-3.9.7-6.1 1.3zm-124.7-15.5c3.8-.3 7.3-.1 10.8.3.2.4-.2.4-.3.6-.7.7-1.1 1.6-1 2.6.4 8 .2 16 .3 24 0 1 0 2 .3 3 .2.8.7 1.4 1.6 1.7.8.2 1.5 0 1.9-.7.7-1.1 1.3-2.3 2.1-3.3 1.2-1.5 1.6-3.1 1.4-4.9-.2-2.8 0-5.7-.3-8.5-.1-1 0-2 0-3.1 0-.4 0-.8.3-1.1 1.2-1.1 2.2-2.4 3.4-3.7 1 .8 1.3 1.8 1.4 3l.3 13.2c0 1.6.2 3.2.3 4.8 0 .9.3 1.7 1.1 2.2.4.3.6.7.8 1.2.2.4.3.8.5 1.2.3.5.7.7 1.2.2 1.8-1.8 3.4-3.8 4.8-5.9.2-.3.2-.7.2-1.1 0-5.5.1-11.1-.1-16.6 0-1-.2-1.9-.3-2.9-.2-1.4-.4-1.9-1.6-3.6 1.3-.2 7.8-.2 9.6 0 .1.2.1.3-.1.4-1 .6-1.3 1.5-1.3 2.6 0 5.6 0 11.3.1 16.9 0 3 .1 3-1.7 5.3l-7.2 9.6c-.3.3-.5.7-.8 1-.7.9-1.3.9-2.1.1-.3-.3-.6-.8-.9-1.1-1.3-1.7-2.5-3.5-3.8-5.2-.8-1-1.1-1-2-.1-.6.7-1.1 1.5-1.5 2.3-.6 1.4-1.7 2.5-2.9 3.4l-2.7 1.8c-1 .5-1.4.4-2.1-.4-.8-1-1.6-2.1-2.3-3.1-1-1.3-1.9-2.6-2.9-3.9-.9-1.1-1.3-2.4-1.3-3.9 0-3.9.1-7.9-.1-11.8-.2-4.4-.2-8.8-.2-13.2 0-1.5-.6-2.5-1.9-3.1-.3.2-.6.1-1-.2zM226.2 246c-.6.8-1.4 1.4-2.1 2.1-2.3 2.2-4.5 4.5-6.8 6.7-.7.6-.8 1.3-.6 2.2l1.8 10.2c0 .3.1.5.1.8 0 .3.2.6-.1.8-.2.2-.5 0-.8-.1-2.3-1.2-4.7-2.5-7-3.7-1-.5-1.9-1-2.8-1.5-.9-.6-1.8-.5-2.7 0-2.4 1.3-4.9 2.6-7.3 3.8-1.1.6-2.3 1.2-3.5 1.8-.2-.5 0-1 0-1.4l1.8-10.2c.1-.3.1-.6.1-1 .1-.6-.1-1.1-.6-1.6-1.6-1.6-3.2-3.2-4.9-4.7-1.3-1.1-2.5-2.4-3.7-3.6-.5-.5-.4-.8.3-.9 2.1-.3 4.1-.6 6.2-.9 1.7-.2 3.4-.5 5.1-.7.9-.1 1.5-.5 1.9-1.3 1.5-2.9 2.9-5.9 4.5-8.8.4-.7.4-1.6 1.3-1.9.7.4.9 1.2 1.2 1.9 1.4 2.7 2.8 5.5 4.1 8.3.6 1.2 1.3 1.8 2.7 1.9 3.6.4 7.1 1 10.7 1.5.4-.1.8-.2 1.1.3zm-121-41.5c1.7 1 2.6 2.7 3.1 4.5.4 1.3.4 2.7.2 4-.1.7 0 1.2.6 1.7 4.9 4 9.9 8 15.3 11.3 2.7 1.6 5.6 2.6 8.7 3.2 4.6.8 9.2 1.7 13.8 2.4 2.7.4 4.9 1.6 6.8 3.4 3 2.8 6 5.7 8.9 8.6 5.6 5.6 11 11.4 16.1 17.4 4.7 5.4 9.4 11 13.8 16.7 1.9 2.5 3.8 5.1 5.5 7.8.4.6.8 1.3 1.1 2 .7 1.3.5 1.8-.7 2.5-1.8.9-3.7 1.3-5.8 1.2-1.1-.1-1.7-.6-1.9-1.6-.4-1.7-.9-3.3-1.3-5-1.1-4.1-3-7.8-5.5-11.3-2.6-3.6-5.5-7-8.6-10.3l-8.7-9.3c-1-1.1-2-2.1-3-3.2-2.6-2.7-5.2-5.4-7.8-8.2-1.1-1.1-2.2-2.2-3.2-3.4-1.2-1.4-2.6-2.2-4.4-2.6-3.8-.9-7.7-1.7-11.5-2.4-4.5-.8-8.7-2.6-12.5-5-4.9-3.1-9.6-6.6-14.3-9.9-.7-.5-1.4-.9-2-1.4-.8-.7-1.6-.7-2.5-.1-1.6 1.1-3.5 1.1-5.3.8-1.2-.2-2.2-.7-3.3-1.3-.6-.3-.6-.5-.3-1 .2-.4.5-.7.7-1.1.5-.9 1-1.8 1.2-2.8.8-2.8 2.4-5 5.2-6.2.9-.4 1.3-.8 1.6-1.4zM445 344.7c-2.9-2.5-5.9-5.1-8.8-7.6-.8-.7-.9-.9-.5-2 .3-1 .8-1.9 1.4-2.7 2-2.9 4-5.7 6-8.6.9-1.4 1.7-1.6 3.3-1.1 1 .3 1.9.8 2.8 1.2 4.7 2.3 9.4 4.5 13.7 7.5 1 .7 2 1.5 3 2.2.7.5 1 1.1 1 1.9 0 3.1 0 6.1.1 9.2 0 1-.4 1.9-.9 2.7-1 1.8-2.3 3.4-3.7 4.8-2.3 2.3-4.6 4.6-6.8 6.9-.4.4-.8.7-1.2 1.1-.6.6-1.4.8-2.2.8-.9.1-1.7-.3-2.2-1.1-.3-.6-.7-1.1-1.2-1.5-.2-.2-.4-.4-.7-.2-.2.1-.2.4-.2.6.2 1.4.3 2.9.5 4.3.2 1.8.5 3.6.7 5.4v.3c0 .8-.2 1.1-1 1.2-1.3.2-2.7.3-4 .4-1.1.1-2.1.1-3.2.1-.6 0-.9-.2-1-.8v-6.5c0-.8 0-1.5-.2-2.2-.2-1.5.2-2.8 1.1-3.9 1.4-1.7 2.8-3.3 4.2-4.9.5-.6.6-.6 1.2 0 1 1 1.9 2 3.1 2.8 2.2 1.4 2.6 1.4 4.7-.2.7-.5 1.3-1.1 1.9-1.8 1.6-1.7 2.3-3.7 2.2-6-.1-3.2 0-6.3 0-9.5 0-3-1.5-5.1-4.2-6.3-2-.9-4-1.5-6.1-2.2-.7-.2-1-.1-1.3.6-.1.2-.2.4-.2.6-.5 1.8-1.1 3.6-1.6 5.4-1 3-1.2 6.1.3 9.1zm-54.6 110.8c-.5-.6-.8-1.4-1.6-2-.3 2.5.1 4.8-.1 7-.3-.1-.4-.3-.4-.5-1-3.9-2-7.8-2.9-11.7-.1-.3-.1-.6-.1-1 .5.1 1 .8 1.5.5.6-.4.1-1.1-.1-1.6-.5-2.1-1.1-4.3-1.7-6.4-.2-.6-.3-1.2-.5-1.8.3-.4.5-.2.8-.1.4.2.8.3 1.2.5.3.1.6-.1.5-.4-.1-.5-.2-.9-.3-1.4-.4-1.2-.5-2.6-1.2-3.7-.6-1.1-1.8-1.7-2.7-2.5-1.5-1.4-3.2-2.7-4.5-4.4-.4-.5-.9-1.1-1.3-1.6-.6-.9-1-1.9-1-3-.1-3.1-.1-6.1.2-9.2v-1.3c0-1-.3-1.8-1-2.4-.2-.1-.4-.2-.3-.6 1.5 0 3-.1 4.4-.1 1 0 2 0 3.1-.2.3-.1.6 0 1 0 .7.1.9.4.6 1.1-.3.7-.4 1.3-.4 2v13.9c0 .9.2 1.7.8 2.4.8 1.1 1.8 2 2.9 2.8.7.5 1.3.6 2.1.3 1-.4 2.1-.8 3.1-1.4.9-.7 1.5-1.5 1.4-2.7-.1-6.7-.1-13.3-.1-20 0-1-.2-1.9-.9-2.7-.2-.3-.4-.6-.6-1-.1-.3 0-.5.4-.5.2 0 .3.1.5.1 2.6.2 5.2.4 7.7 0 .2 0 .3 0 .5-.1.9 0 1.2.3.7 1.1-.8 1.5-.9 3.2-.9 4.9v16.3c.1 1.1-.4 2-1.1 2.7-1.5 1.6-3.2 3.1-5.1 4.2-.8.5-1.6 1-2.5 1.5-.7.4-1 .9-.9 1.7.4 3.7.7 7.4 1 11.1.1.6.1 1.2.1 2.3-.7-1-1.2-1.6-1.6-2.2-.1-.2-.3-.4-.5-.2-.1.1-.2.3-.2.4 0 1.4.1 2.8.1 4.2-.2 1.8-.2 3.7-.1 5.7zM272 361.6c.1-.5.4-.7.6-.9 2.2-2.1 3.2-4.6 3.5-7.6.4-4.6.4-9.2.3-13.9 0-2-.1-4.1-.1-6.1 0-1.8-.5-3.4-1.2-5-.4-.9-1-1.1-1.8-.4-1.1.9-2.1 2-3.1 3-1.8 1.9-1.8 1.9-1.8 4.6v15.8c0 1.1 0 2.3.3 3.4.2.5 0 .7-.5.8-.9.1-1.7.1-2.6.1-1.4 0-2.9-.1-4.3-.1 0-.2-.1-.3-.1-.3 1-1.4 1.1-3.1 1.1-4.8 0-4.9-.1-9.9.1-14.8.3-6.6.3-13.2.3-19.8 0-3.1 0-3.1-.9-5.8 1-.1 1.9-.3 2.8-.4 1.3-.1 2.6-.1 3.9-.3h.8c.2 0 .3.2.3.5 0 .1-.1.2-.1.3-.8 1.2-.9 2.5-.9 3.8.1 4.5.1 9 .1 13.6 0 .6-.1 1.3.4 1.8.5-.1.6-.4.9-.7.6-.8 1.1-1.6 1.8-2.3.5-.6 1.1-1.2 1.8-1.6 1-.5 1.9-.7 2.8.1 1.6 1.2 3.3 2.3 4.9 3.4.6.4 1 1 .9 1.7v24.7c0 .9-.2 1.6-.9 2.3-2.5 2.3-5.4 4.3-9.3 4.9z"/>
	<path d="M305.1 281.7c-2.7-1-5.3-2-8-3-.9-.3-1.7-.8-2.5-1.5-.9-.7-1.4-1.6-1.3-2.8v-6.8c0-1.9-.1-3.9 0-5.8.3-8.4.2-16.8.2-25.2 0-4.7.1-9.5.1-14.2v-.8c-.1-1.1.3-1.9 1.3-2.3 2.6-1.1 4.4-3 5.8-5.4.2-.4.5-.8.9-1.1.2.5.1 1 .1 1.5 0 8.1.2 16.3 0 24.4-.2 7.1-.1 14.2-.2 21.3-.1 4.5-.1 9-.1 13.6 0 .8 0 1.5-.1 2.3-.1.9.1 1.7.6 2.4.6.8 1.2 1.5 1.9 2.2.5.4.9.8 1.3 1.2zm-15.8 0c-2.6-1-5.2-2-7.9-2.9-.9-.3-1.7-.9-2.5-1.4-1-.7-1.5-1.7-1.5-2.9 0-5-.2-10 .1-15 .2-4.1.1-8.3.2-12.4.1-8.4.1-16.8.1-25.2v-.5c-.1-.8.3-1.4 1-1.8.8-.4 1.6-.9 2.4-1.4 1-.5 1.7-1.3 2.3-2.2.6-.9 1.2-1.7 1.7-2.5.1-.2.2-.5.6-.5.2.5.1.9.1 1.4 0 8.3.2 16.7 0 25-.2 7.2-.1 14.3-.2 21.5-.1 4.3-.1 8.6-.1 12.9 0 .7 0 1.4-.1 2.1-.1.9.1 1.7.6 2.4.6.8 1.3 1.6 2 2.3.4.3.8.7 1.2 1.1zm54.9 151.8c-.1-.1-.2-.2-.3-.4-.6-.8-.6-.8 0-1.5 1.1-1.4 2.4-2.4 4.1-3 1.8-.6 1.8-.6 2.4-2.4 1.3-3.9 2.5-7.9 3.8-11.8.4-1.4.5-2.7.2-4.1-.1-.6 0-.8.5-.8.7-.1 6.1 0 7 .2-.8 1.9-.4 3.7.2 5.5 2 6.1 4 12.3 5.9 18.4 0 .2.1.3.1.5.4 1.1.6 1.1 1.7.6.4-.2.9-.4 1.3-.6 0 0 .1 0 .3.1-.4.9-1 1.7-1.6 2.4-.5.6-.6 1.2-.3 1.9.9 2.8 1.8 5.6 2.7 8.5.2.7.7 1.3 1.3 1.8.2.1.5.2.6.5-1.5.3-8.4.2-9.8 0-.1-.4.2-.5.4-.6 1-.5 1.2-1.3 1.1-2.3 0-.3-.1-.5-.2-.8-.5-1.6-1-3.3-1.5-4.9-.2-.5-.4-1-1-1.2-3-1-5.3-3-7.7-5-.4-.3-.7-.6-1.1-.9-.3-.2-.6-.2-.8.2-.2.3-.3.7-.4 1-1.5 4.4-3 8.9-4.3 13.3-.7 2.3-.7 1.9.2 3.8-1.1.3-5.1.4-7 .1-.2-.3.1-.5.2-.7.4-.6.7-1.3.9-2 1.8-5.5 3.5-11 5.3-16.4l.3-1.2c.1-.4-.2-.7-.5-.6-1.5.2-2.8.7-3.7 2-.3-.1-.3.2-.3.4zm18.5 1.2c-.1-.2-.1-.6-.2-.9-.2-.8-.5-1.5-.7-2.3l-3-10.2c-.1-.4-.2-.9-.5-1.2-.1-.1-.3-.2-.4 0l-.3.6c-.8 2.9-1.7 5.8-2.5 8.7-.2.8-.1 1.4.5 1.9 1.7 1.5 3.4 2.9 5.5 3.9.3.2.7.3 1.1.4.3-.2.5-.4.5-.9zm-67.6 3.3c1.4 1.1 2.9 2.3 4.3 3.4.3.3.7.5 1 .9.4.4.5.8.3 1.3-.1.2-.1.4-.2.6-.9 2.4-1.9 4.8-2.8 7.2-.1.2-.2.5-.3.7-.1.3-.4.4-.7.3-.2 0-.3-.1-.5-.1-5.7-2.2-11.6-3.3-17.6-4.1-.7-.1-1.5-.2-2.2-.3-.9-.1-1.5-.6-1.9-1.4-.4-.9-.7-1.8-.7-2.8-.1-3.9-.1-7.9-.4-11.8-.4-7.8-.1-15.6-.2-23.4 0-1.3-.2-2.5-.9-3.7 3.2-.2 6.3.1 9.5-.2-.3.4-.5.7-.7.9-.8 1.1-1.2 2.3-1.2 3.6 0 2.6-.2 5.3.2 7.9.1.4 0 .8 0 1.1 0 6.9.1 13.9.1 20.8 0 1 .1 2 .2 3.1.1.8.5 1.3 1.2 1.6.3.1.6.3.9.4 2.8.8 5.6 1.6 8.5 2 .9.1 1.7 0 2.5-.3.6-.3 1.1-.7 1.3-1.4.3-1.4.7-2.7 1-4.1.1-.8-.5-1.4-.7-2.2zM432 499.4c-.3 2.2-1.1 4.3-1.6 6.4-.3 1.1-.6 2.3-.9 3.4 0 .2 0 .4.1.4s.3 0 .4-.1c.4-.4.8-.9 1.2-1.3.6-.7 1.3-1.4 2.1-2-.3 1.3-.5 2.5-.8 3.8-.8 3.3-1.6 6.7-2.4 10 0 .2-.1.3-.1.5-.4 1.6-.2 1.8 1.4 1.9 2.6.1 2.4-.3 2.4-2.3 0-1.6 0-3.1-.2-4.7-.1-1 .1-1.3 1.1-1.3h3.1c.8 0 1.1.3 1.1 1.1.1 1.4.4 2.9.3 4.3v1.3c.1 1 .4 1.2 1.3.9.7-.2 1.3-.5 1.9-.8l1.5-.9c.3-.2.5-.4.9-.3.3.4.2.8.2 1.2 0 1.8 0 3.7-.1 5.5 0 1.1-.1 1.2-1.2 1.2-1.3 0-2.6-.1-3.9-.1-.8 0-.9.1-1 .9-.2 2.2-.4 4.4-.5 6.6-.1 1.4 0 1.9.8 3.7-.7.3-1.5.1-2.2.2h-2.4c-.7 0-1.5.1-2.1-.1-.2-.5.1-.7.2-1 .3-.6.5-1.2.6-1.8l.6-6.6v-.2c0-1.5-.2-1.8-1.7-1.8H431c-4 .4-8 .1-12.1.4-.1-.7.3-1.3.6-1.8 1.1-2.1 2.3-4.2 3.4-6.2.2-.4.8-.9.3-1.4-.4-.4-.9.1-1.3.2s-.7.2-1.1.4c-.3-.4 0-.7.2-1 1.4-3.1 2.8-6.3 4.2-9.4.2-.5.7-1 .3-1.5-.4-.4-.9.3-1.3.3 0 0-.1 0-.1-.1.3-1.2 5.3-10.4 7.2-13.4-.4 2.1-.7 4-1 5.9-.1.4-.1.7-.2 1.1 0 .2 0 .5.2.6.2.1.4 0 .6-.2.1-.8.6-1.4 1.1-1.9zm-83.9-116.3c-.5-.1-.9-.2-1.4-.4-1.6-.6-3.3-1.1-4.9-1.7-.7-.2-1.3-.6-1.9-.9-1.5-.8-2.2-2-2.2-3.8.1-6.6-.1-13.2.2-19.9.2-4.6.1-9.3.2-13.9 0-2.5 0-2.5-2.5-2.5-1.3 0-2.6 0-3.9-.1l-.2-.2c5.6-3.5 9.9-8.2 13.9-13.5.5.7.3 1.3.3 1.9-.3 2.1-.2 4.2-.2 6.3 0 .4 0 .9.1 1.3.1.8.3 1 1.1 1.1.7.1 1.5 0 2.3.1 1 .1 1.2.2 1.4 1.2 0 .1.1.2.1.3.4 1.5.2 1.6-1.4 1.7h-1.5c-1.6.1-1.8.2-1.8 1.8 0 1.2-.1 2.5-.1 3.7.1 4.4-.3 8.8-.3 13.2 0 2.4.1 4.7-.1 7.1-.3 4 0 8.1-.4 12.1-.1.9.2 1.6.7 2.3.7 1.1 1.7 1.8 2.5 2.8zm75.4-19.4c1.2 1.3 2.1 2.5 3 3.8.2.4.1.7-.1 1.1-.4.6-.8 1.2-1.2 1.7-.9 1.3-1.9 2.6-2.8 4-.5.7-1.1 1.1-2 1.1-3 .1-3 .1-5.3-1.9-2-1.7-3.9-3.4-5.8-5.1-.5-.5-.8-1-.9-1.7-.3-1.7-.5-3.4-.6-5.1-.1-4.4.2-8.8.9-13.2.1-.9.5-1.5 1.2-2 2.6-2.1 5.2-4.1 7.8-6.2.2-.1.4-.2.5-.4.8-.6 1.6-.7 2.4-.2.3.2.6.3.8.5 1.6 1 3.2 2.1 4.9 3.1.8.5 1.3 1.1 1.5 2 .5 1.9 1 3.8 1.6 5.7.3 1 .3 2-.3 2.9-.3.6-.6 1.3-.9 1.9-.5.9-.6 1-1.5.6-1.6-.8-3.4-1.1-5.1-1.3-1.2-.1-2.5-.2-3.7.1-1 .2-1.3.6-1.3 1.6 0 1.2 0 2.5.1 3.7.3 2.3.2 4.6.3 6.9 0 .9.1 1.8.3 2.7.3 1.5 1.3 2.3 2.6 2.8.3.2.6 0 .9-.3.5-.6.8-1.3 1.1-1.9.6-1.4 1-2.8 1.1-4.4.2-.7.3-1.5.5-2.5zm-2.8-11c.4 0 .9 0 1.3.1h.6c1.2 0 1.3-.1.9-1.1-.1-.4-.3-.7-.4-1-.7-1.6-1.4-3.2-2.1-4.9-.4-.9-.8-1.9-1.2-2.8-.2-.5-.5-1.1-1.1-1-.7.1-.8.7-.9 1.3-.2 1.5-.4 3.1-.5 4.6l-.3 3c-.1 1.5.1 1.7 1.6 1.7.6.2 1.3.1 2.1.1zm-24.5 139.1c-.5.7-.9 1.3-1.3 1.8-.6.8-.7 1.6-.1 2.5.5.8 1 1.7 1.5 2.5.3.6.8.9 1.5.8 1.3-.1 2.7-.1 4-.3 1-.1 1.8-1.1 1.9-2.1 0-.4.1-.8 0-1.1-.1-2.2-.1-4.4-.3-6.6-.2-1.9-.1-3.9-.2-5.8 0-2.2-.1-2.2-2.3-2.3h-3.1c-.8 0-1-.3-.8-1.2.1-.3.1-.6.2-.9.2-.6.6-.9 1.2-.9.9 0 1.7 0 2.6-.1 1.5-.1 2.6-1.2 2.4-2.6-.2-2.2-.1-4.5-.4-6.8-.2-1.3-.1-2.7-.2-4 0-.7-.1-1.4-.3-2.1-.1-.4-.4-.5-.7-.5-.2 0-.4.1-.6.2-1.6.6-3.1 1.3-4.6 1.8-.7.3-1.1.8-1.2 1.6 0 .7-.1 1.4-.2 2.1 0 .8.1 1.6.5 2.3.4.6.7 1.2 1.1 1.7-.2.4-.5.2-.7.1-1.5-.3-3-.6-4.4-1.1-.6-.2-1.1-.4-1.6-.7-1-.4-1.5-1.1-1.4-2.2.1-3.1-.2-2.5 2.3-3.9 3.5-1.9 7.2-3.3 11-4.7.2-.1.4-.2.6-.2.5-.1.8-.1 1.1.3.4.5.8 1 1.3 1.5 1 1.2 2.1 2.5 3.1 3.7.5.6.7 1.2.7 1.9.1 2.6 0 5.3.3 7.9v.8c.1 1.1-.2 2-1.1 2.7-.7.5-1.2 1.1-1.8 1.6-.5.5-.5.8 0 1.4.6.7 1.3 1.4 2 2.1.5.5.7 1.2.7 1.9V498c0 .9-.4 1.5-1.2 1.9-1.4.7-2.7 1.4-4 2.1-.7.4-1.4.6-2.2.5-.6-.1-1.2 0-1.8 0-1.7-.1-3.3-.2-5-.3-.7 0-1.2-.3-1.7-.8l-3.3-4.2c-.5-.6-.5-1.3-.1-1.9.2-.3.4-.6.7-.9 1.8-1.5 3.6-2.3 5.9-2.6zm31.6 56.3c0 3.7-1.2 6.7-3.2 9.3-1.8 2.5-4.2 4.5-6.8 6.1-.7.5-1.3.5-2.1.1-3.1-1.4-6.3-2.7-9.5-4.1-.1 0-.2-.1-.3-.1-.8-.4-.8-.6-.5-1.4.9-2.2 2-4.4 3.4-6.4 1.5-2.2 3.3-4.2 5.5-5.9 1.8-1.4 3.7-2.6 6-2.9 1.4-.2 2.8-.3 4.1.2 2 .7 3.1 2 3.2 4.1.2.5.2 1 .2 1zm46.2-55.5c.3-.6.6-1.2.9-1.7 1.6-2.6 3.3-5.2 5.2-7.6.7-.9 1.4-1.9 2.1-2.9.7-1.1 1.7-1.7 3-1.9 1.6-.2 3.2-.4 4.8-.5 3.9-.3 7.8-.8 11.6-1.8 2.6-.7 5-1.6 7.4-2.8.5-.3 1-.5 1.8-.8-.3 1.1-.6 1.8-1.1 2.5-1 1.5-1.9 3-3 4.4-3.3 4.3-7.8 7-12.9 8.7-2 .6-4 1.1-6.1 1.6-3.9.8-7.9 1.6-11.8 2.5-.6.1-1.2.2-1.9.3zm-68.7-362.9c0-2.3.6-4.2 1.5-6.1 1.6-3.2 4.1-5.8 7-7.8.8-.6 1.5-.7 2.4-.3 2.8 1.2 5.7 2.3 8.5 3.5.1.1.3.1.4.2.4.2.7.5.5 1 0 .1-.1.2-.1.3-2 5.5-5 10.1-10.1 13.2-1.7 1.1-3.6 1.7-5.7 1.5-.8-.1-1.6-.2-2.3-.6-1-.5-1.6-1.2-1.9-2.3-.2-.9-.2-1.8-.2-2.6zm-286.9 38.5c-1.4.2-2.8-.4-4-1.4-1.4-1.1-2-2.5-1.6-4.3.3-1.7.9-3.4 1.8-5 1.3-2.1 2.9-4 4.8-5.6 1.9-1.6 3.9-3 6-4.4 1-.6 1.2-.6 1.9.3 1.1 1.4 2.1 2.7 3.1 4.1 1 1.3 1.7 2.7 2 4.3.2.7.2 1.4-.2 2-1.7 3.3-3.9 6.2-7.2 8.1-2 1.4-4.2 1.9-6.6 1.9zm.4-38.7c-1.4 0-2.8-.2-4-1-1.5-.9-2.3-2.2-2.1-4 .2-1.6.6-3.2 1.4-4.6 1-1.8 2.3-3.3 3.9-4.6 2.1-1.7 4.5-2.9 7-3.8.7-.3 1.3-.3 2 .2l7.8 6c.8.6.8.7.3 1.4-2.7 3.8-6 7-10.3 9.1-1.8.8-3.7 1.4-6 1.3zm-43.6 35.1c0-2.9 1-5.5 2.6-7.8 1.6-2.5 3.7-4.4 6.1-6.1.6-.4 1.2-.5 2-.2 3 1.2 6.1 2.4 9.2 3.6.8.3.9.5.6 1.4-1.8 4.6-4.3 8.8-8.2 12-1.3 1.1-2.7 2-4.4 2.6-1.4.4-2.9.5-4.3.2-1.7-.4-2.9-1.3-3.3-3.1-.2-1-.2-1.8-.3-2.6zM364 379.1h-10.7c-.2-.4.2-.5.4-.8.8-1 1.3-2.2 1.5-3.5.4-2.8.6-5.7.8-8.5.2-3.3.3-6.7.2-10-.1-3.3-.2-6.7-.5-10-.2-2.1 0-2.3 2-2.3h4.2c1 0 1.2.2 1.4 1.2.1.4.2.9.2 1.3 0 3.5.2 7.1-.1 10.6-.1 2-.1 4.1-.2 6.1-.1 2.3-.3 4.5-.5 6.8-.1 1.6-.3 3.1-.5 4.7s.4 3 1.8 4.4zm-55-36.7.2-.2c1.2-2.2-.1-5.5-2.4-6.3-1.1-.4-2-.1-2.9 1.1-.8 1-.9 1.9-.2 2.8.9 1.3 1.9 2.5 3 3.6 1.7 1.9 3.5 3.8 5.3 5.7.9.9 1.7 1.9 2.4 3.1.6 1.1.5 1.7-.5 2.5l-5.7 4.5c-1 .8-2.1 1.5-3.3 2-.9.4-1.2.4-1.8-.4-1.4-1.7-2.8-3.4-4.1-5.2-.5-.6-.7-1.3-.9-2-.3-1.1-.1-1.7.8-2.4 1.1-.8 2.3-1.1 3.7-1.3-.1 1.1.2 2.1.3 3.1.1.7.4 1.2.8 1.7.8.9 1.8 1.5 2.9 2 .5.2.8.1 1.1-.4.2-.4.4-.8.6-1.1.7-1 .6-2 0-3-1.2-1.8-2.7-3.5-4.1-5.2-1.7-1.9-3.4-3.9-5-5.9-.2-.3-.5-.6-.7-.9-.7-1-.7-1.7.2-2.4 2.4-1.8 4.6-3.9 7.2-5.5.7-.4 1.4-.8 2.1-1.1.6-.3 1.1-.1 1.6.4 1 1.3 2.1 2.6 3.1 3.9.8 1 1.6 2 2 3.3.5 1.7.1 2.5-1.6 2.9-1.5.3-2.8.6-4.1.7zm94.3 175.4c1.2-2.4 2.4-4.8 3.7-7.2l6-11.4c.2-.4.4-.8.6-1.1.1-.2.4-.3.5 0 .4.5.7.2.9-.1.6-1.1 1.3-2.2 1.9-3.4 1.2-2.3 2.4-4.7 3.7-7 .3-.5.5-1.1 1-1.4.1 0 .2 0 .2.1 1 1.2 1.1 1.2 1.9-.2 1.8-3.1 3.5-6.3 5.3-9.4l1.2-2.1c.2-.3.5-.4.8-.2 1.1.7 2.2 1.5 3.3 2.3.3.2.3.6.1.9-.4.7-.9 1.5-1.4 2.2-4.5 6.8-9 13.5-13.5 20.3-.1.2-.2.5-.6.5-.2-.5.2-1 .1-1.6 0-.1-.1-.2-.1-.3-.1-.1-.3 0-.4.1l-.9 1.2c-2.1 3.1-4.1 6.3-6.2 9.4-.1.2-.2.5-.5.5l-.1-.1c-.1-.4.4-1-.2-1.1-.4-.1-.7.5-.9.8-1.8 2.3-3.5 4.6-5.3 6.9-.3.4-.7.9-1.1 1.4zM510 165.3c-.7-1.1-1.6-1.8-2.5-2.7-2.6-2.5-5.3-4.9-7.9-7.3-.2-.1-.3-.3-.5-.5-.7-.7-.7-.8 0-1.6 1.8-2 1.3-2.2 3.5-.2 3.7 3.5 7.5 6.9 11.3 10.4.9.8 1.8 1.7 2.7 2.6.5.5.4.8-.2 1.1l-2.4.9c-3.1 1.2-6.1 2.3-9.2 3.5-1.6.6-1.6.9-.5 2.1 2.7 3.1 5.4 6.3 8.1 9.4.2.2.4.4.5.6.4.5.4.8-.1 1.3-.1.1-.2.1-.2.2-2.1 1.7-1.6 1.9-3.4-.2-3.7-4.2-7.3-8.4-11-12.7-1.3-1.5-1.2-1.6.5-2.3 3.3-1.2 6.5-2.5 9.8-3.7.5-.3 1.1-.4 1.5-.9zM293.2 360.5c-1.4.3-6.1.4-8.1.2-.2-.4.2-.6.3-.8.9-1.3 1.1-2.9 1.3-4.4.3-2.3.4-4.7.4-7.1 0-3.6 0-7.3-.1-10.9 0-1.3-.2-2.6-.2-3.9 0-1.1.2-1.3 1.3-1.4h3.9c.8 0 1.1.3 1.1 1.1.1 2.3.1 4.6.1 6.9 0 1.1 0 2.3-.1 3.4-.2 4.4-.3 8.8-.9 13.2-.2 1.3 0 2.5 1 3.7zm318.2-229.9c.2-1.5.4-3 1.4-4.2.9-1.3 2.2-1.7 3.7-1.2 1.8.6 3.4 1.6 4.6 3.1 1.8 2.2 2.8 4.7 3.3 7.4.2.9 0 1.7-.7 2.3-1.6 1.4-3.2 2.9-4.7 4.4-.1.1-.2.2-.4.3-.6.4-.8.4-1.3-.1-.6-.6-1.2-1.2-1.7-1.9-1.4-1.8-2.6-3.7-3.3-5.9-.6-1.4-.6-2.8-.9-4.2zm5.7 53.8c-.2-2 .6-3.8 1.7-5.5.8-1.3 2.1-2 3.7-1.9.8.1 1.5.3 2 .9 1.2 1.1 2.2 2.4 2.8 3.9.9 2 1.3 4.1 1.6 6.2.1 1.3 0 2.7.3 4 .1.6-.1.9-.7 1.1l-1.8.3c-.7.1-1.4 0-2.1.2-1.2.3-2.4 0-3.5-.3-.7-.1-1.3-.5-1.7-1.1-1.3-2.4-2.4-4.8-2.3-7.8zm15.5-14.4c0-1.4 0-2.4.2-3.3.3-1.2.8-2.2 1.6-3.1 1.3-1.4 3-1.7 4.6-.7 1.9 1.1 3.2 2.8 4.1 4.8.9 2.1 1.1 4.3 1.2 6.5.1 1.3-.4 2.3-1.7 3-1.7.9-3.3 1.8-4.9 2.8-.1.1-.3.2-.4.2-.8.4-1 .3-1.5-.4-1.1-1.7-2-3.6-2.6-5.5-.3-1.7-.6-3.2-.6-4.3zm21.8 43.4c-.1.4-.1.9-.2 1.3-.1.5-.3.9-.8 1.2-2.1 1.3-4.1 2.5-6.3 3.6-.6.3-.9.2-1.2-.3-2.5-3.9-3.9-8-3.2-12.7.2-1.5.8-2.8 1.9-3.8 1.3-1.2 2.8-1.4 4.3-.6 2.2 1.3 3.7 3.2 4.5 5.7.8 1.8.8 3.7 1 5.6zm-16.9 131.5c-1.2.1-2.6-.2-4-.4-.4 0-.7-.1-1.1-.2-.5-.1-.8-.4-.7-.9v-.5c.4-3.5 1.2-6.8 3.2-9.7 1-1.4 2.3-2.6 3.8-3.4.8-.5 1.7-.7 2.6-.6 1.5.1 2.4.6 2.9 2.1.6 1.6.7 3.4.6 5.1-.2 2.6-1.1 5-2.8 7.1-.9 1.1-1.9 1.7-3.3 1.5-.4-.1-.7-.1-1.2-.1zm6.1-43.3c-.1-3.4.6-6.5 2.5-9.3.7-1.1 1.6-2 2.7-2.7.7-.5 1.6-.7 2.4-.7 1.1 0 2 .4 2.6 1.3.8 1.1 1.3 2.4 1.5 3.7.5 3.6-.3 6.9-2.2 10-.4.6-.8.9-1.6 1-2 .1-4 .2-5.9.3h-.8c-.9 0-1.2-.3-1.2-1.1v-2.5zm-3-68.9v3.2c0 .8-.3 1.1-1.1 1.1h-2.1l-3-.3c-.7-.1-1.4-.3-2-.6-.7-.3-1.2-.7-1.5-1.4-1.3-3-1.9-6-1.1-9.2.3-1.4 1.1-2.7 2-3.8.8-1 1.9-1.4 3.1-1.5 1-.1 1.9.4 2.5 1.2 1 1.2 1.8 2.5 2.3 4 .8 2.3 1 4.8.9 7.3zm-9.9 34.4c0-2 .4-3.8 1.2-5.5.7-1.4 1.8-2.6 3.1-3.5 2-1.4 4.7-.7 5.7 1.6 1.2 2.6 1.3 5.4.9 8.2-.3 2.1-.9 4.2-1.7 6.2-.3 1-.6 1.1-1.6.8-1.3-.4-2.7-.7-4-1.2-.6-.2-1.2-.5-1.7-.8-1.1-.7-1.9-1.5-1.8-3 0-.9-.4-1.9-.1-2.8zm-15.6 79.6c.1 1.6-.4 3.3-1 5-.7 1.9-1.5 3.7-2.6 5.3-.4.6-.6.6-1.2.3-2.2-1-4.4-2.2-6.4-3.8-.5-.4-.8-.8-.7-1.5.3-2.1.4-4.2 1.1-6.2 1-3 2.9-5 5.9-6 2-.7 3.2.3 3.9 1.6.6 1.3 1 3.1 1 5.3zm19.4-42.3c.1 2-.4 3.9-1.1 5.7-.6 1.6-1.3 3.2-2 4.7-.4.9-.6 1-1.5.6-1.5-.6-3.1-1.3-4.5-2.1-2-1.2-2.9-2.8-2.6-5.1.3-2.5.8-4.9 2.4-6.9 1-1.3 2.2-2.2 3.7-2.8 1-.5 2.2-.4 3.3-.1.9.3 1.5 1 1.8 1.9.4 1.4.6 2.7.5 4.1zM402.2 574c-2.5-.2-4.7-1.3-6.1-3.8-.4-.8-.5-1.6-.1-2.5.9-2 2.1-3.7 4-4.9 1.1-.7 2.2-.9 3.5-.1 1.3.8 2.6 1.5 3.9 2.3 1.3.8 2.6 1.5 3.9 2.2.8.4.9.6.3 1.2-1.4 1.5-2.9 3-4.7 4.1-1.4.8-2.8 1.4-4.7 1.5zM94.8 245.4c-.6 0-1.3.3-1.8.7-1 .8-2.1 1.5-3.2 2.2-.4.2-.7.6-1.1 1-.3.3-.5.6-.9.6-.3.1-.7.1-.9-.2-.2-.4.1-.6.4-.7.4-.3.8-.5 1.2-.8 3.7-2.5 7.5-4.9 11.6-6.7.5-.2 1-.7 1.5-.4.5.4 0 1-.1 1.5-.8 2.9-1.9 5.7-3.3 8.4-1 1.8-1.6 3.8-2.2 5.7-1 3.2-1.5 6.4-1.7 9.7 0 .7 0 1.4-.3 2.1-.2.5-.5.5-.8.1-.3-.4-.6-.8-.8-1.2-.5-1.1-1.1-2.2-1.5-3.4l-1.8-4.8c-.4-1.1-.4-1.3.6-2.1s2-1.5 3-2.2c2.2-1.6 3.4-3.8 4.2-6.3.1-.3.1-.5.2-.8-.1-1.6-.8-2.4-2.3-2.4zm339.7-135.3c0 .2-.1.5-.2.8-.6 1.7-1.6 3.2-2.9 4.4-.4.3-.8.6-1.2.8-.8.5-1.7.5-2.6 0-2.5-1.4-5-2.9-7.6-4.1-.7-.3-.7-.6-.3-1.1 1.4-1.6 2.9-3.2 4.8-4.3 3-1.7 6.3-1.4 8.6.8.9.8 1.5 1.8 1.4 2.7zm-294.7-4.9c2.6.1 5.4 1.8 6.4 4.4.4 1.1.3 2.1-.5 3-1.3 1.5-2.8 2.9-4.8 3.4-1.1.3-2 .2-2.8-.6-1.1-1.1-2.2-2.2-3.4-3.3-1-1-2.1-1.9-3.1-2.8-.3-.3-.4-.6 0-.8 2.4-1.7 4.9-3 7.8-3.3h.4zm-50.7 41.1c1.6-1.9 3.3-3.8 5.6-5 2.4-1.2 5.6-1.1 7.9 1.1.5.4.9 1 1.2 1.5.3.5.4 1.1.2 1.7-.7 2.2-1.9 3.9-3.9 5.2-.9.6-1.9.7-2.9.1-1.7-.9-3.4-1.9-5.1-2.8-.9-.5-1.7-.9-2.6-1.3-.1 0-.2-.1-.4-.5zm52.1-3.2c-.2 3.4-1.4 6.3-4 8.5-.3.3-.7.5-1.1.7-.3.1-.5.1-.7-.2-.2-.2-.3-.4-.5-.7-1.5-2.4-3-4.7-4.5-7.1-.4-.7-.5-1.2 0-1.9 1.1-1.5 2.2-3 3.4-4.5.5-.5.9-.6 1.6-.4 1.8.6 3.5 1.4 4.7 2.9.7 1 1.2 1.8 1.1 2.7zm305.2 242.5h-1c-.9 0-1.6-.3-2.1-1.2-.5-1-1.3-1.9-2.4-2.2-.5-.1-.7-.5-.7-1 0-.2 0-.3-.1-.5-.3-1.9-.3-1.9 1.5-2.4.7-.2 1.2-.6 1.4-1.2.3-.9.9-1.3 1.8-1.4.9-.1 1.8-.2 2.7-.4.6-.1 1 .1 1.4.6.5.9 1.3 1.4 2.3 1.6.8.2 1.2.7 1.2 1.5 0 .4.1.7.2 1.1.1 1 0 1.2-.9 1.6-1.4.6-2.5 1.5-2.8 3-.2.7-.6 1-1.3.9h-1.2zm-82.2-51.9v2.5c0 .7-.3 1.2-.8 1.7-1.1.9-2.4 1.5-3.7 1.8-.7.2-1.3 0-1.7-.6-1.7-2.3-3-4.7-2.6-7.7.2-1.8 1.5-2.8 3.3-2.2 1.3.4 2.5.5 3.8.2 1-.2 1.2 0 1.5 1 .2 1.1.1 2.3.2 3.3zm267.7 21.6c-1 0-2.1-.3-3.2-.7-.5-.2-.9-.5-.9-1-.1-1.8.1-3.5 1.2-5 .7-.9 1.5-1.4 2.6-1.3.6 0 1.2 0 1.8.2 1.4.4 2.9.8 4.3 1.3.8.3.9.6.5 1.3-.9 1.9-2.3 3.5-4.1 4.7-.5.5-1.3.5-2.2.5zm8.9-42.2c0-1.5.3-2.8 1-4 .5-.8 1.1-1.2 2.1-1 1.8.2 3.5.3 5.3.5.3 0 .5 0 .8.1.6.1.8.3.6.9-.5 1.9-1.2 3.7-2.5 5.2-1.5 1.7-4.1 2-6.1 1-1-.8-1.4-1.7-1.2-2.7zm-13.5-165.9c-.1 2.8-1.6 4.6-4.3 5.2-.8.2-1.6 0-2.1-.7-.8-1-1.5-2-1.8-3.2-.4-1.5-.2-2.1 1-3.1 1.6-1.2 3.2-2.4 4.8-3.5.5-.4.7-.3 1 .2.8 1.5 1.2 3.2 1.4 5.1zm17.4 37.2c.1 1.1 0 2.1-.5 3.1-.9 1.9-2.5 2.8-4.5 2.9-1.1.1-1.9-.4-2.4-1.3-.7-1.2-1.1-2.4-1-3.8.1-1.1.5-1.9 1.6-2.3 1.8-.7 3.6-1.4 5.3-2.3.8-.4 1-.2 1.2.7.1.5.2 1.1.3 1.6.1.5 0 1 0 1.4zm-18.8 12.5h3.1c.7 0 1.2.3 1.5 1 .5 1.2.9 2.4 1.4 3.6.2.6.1 1-.4 1.4-1.1.8-2.2 1.4-3.4 1.7-.8.2-1.6.1-2.3-.4-2.1-1.3-3.4-3.3-3.9-5.7 0-.2-.1-.4-.1-.6 0-.7.3-1 1-1 1-.1 2.1 0 3.1 0zm33.1 70.2c-.1 1.7-.6 3.7-2 5.3-1.4 1.7-3.7 2.2-5.7 1.3-.5-.2-.9-.6-1.1-1.1-.5-1.6-.5-3.3.1-4.9.3-.7.8-1.1 1.5-1.3.5-.1 1-.1 1.4-.2 1.6-.2 3.2-.5 4.8-.7.9-.1 1 0 1 .9.1.1.1.2 0 .7zm-4.2-43.5c0 1.1 0 2-.4 2.9-.8 2.1-2.9 3.5-5.1 3.4-.8 0-1.3-.3-1.7-1-1.1-1.6-1.2-3.4-1-5.3.1-.4.3-.7.7-.9.4-.2.8-.4 1.2-.5 1.6-.7 3.3-1.4 4.9-2.1.7-.3 1-.2 1.1.6.2 1.1.4 2.1.3 2.9zm-15.5 58.1v1.9c0 .5-.3.9-.8 1.1-1.5.5-3 1-4.6.3-.4-.2-.8-.3-1.1-.7-1.7-2.2-2.5-4.6-1.8-7.4.3-1 .6-1.1 1.5-.8 1.9.7 3.7 1.4 5.6 2.1.8.3 1.1.8 1.1 1.6.1.7.1 1.3.1 1.9zm-12.4 43.9h-.5c-3.5 0-4.4-1.5-5-4.1-.3-1.6-.3-3.2.4-4.7.4-.8.6-.9 1.4-.5 1.9 1 3.7 2 5.5 2.9.5.3.8.7.8 1.3 0 1.4-.2 2.8-.5 4.1-.1.6-.5.9-1.1 1-.3-.1-.8 0-1 0zm-16.5 38.7c.1 2.1-2.4 4.1-4.3 3.2-2.2-1-3.8-2.4-4.1-4.9-.2-1.3 0-2.7.4-4 .2-.6.4-.8 1.1-.6 1.8.5 3.4 1.2 4.9 2.3 1.4 1 2 2.4 2 4zm27.5-116.2c-.8 0-1.5-.1-2.1-.6-1.9-1.5-3-3.5-3.2-5.9v-.8c.1-.6.4-.9 1-.8 2.1.2 4.3.4 6.4.6.5 0 .8.3.9.8.5 1.4.8 2.9 1.1 4.4.1.3-.1.6-.3.9-1.1.7-2.3 1.3-3.8 1.4zm-344.2 75.6v.6c.3 1.5-.4 2.6-1.8 3.2-.6.3-1.3.6-1.9.8-.7.2-1.3 0-1.7-.6-.9-1.3-1.6-2.7-2-4.2-.2-.9 0-1.8.3-2.7.4-1 1.5-1.4 2.6-1.1 1 .4 2.1.5 3.2.2.6-.2.9.1 1.1.7.1.5.2.9.2 1.4v1.7zm150.4 118.8c.4 0 .9-.1 1.2.4.4.7 1 1.1 1.8 1.3.8.3.8.9.8 1.6 0 .6-.2 1-.8 1.2-.9.3-1.5 1-1.8 1.9 0 .1-.1.3-.3.4-.6.6-2.8.3-3.2-.4-.4-.7-.9-1.3-1.6-1.7-.6-.4-.7-1.1-.7-1.9 0-.3.2-.6.6-.7.9-.2 1.5-.7 2-1.5.2-.4.6-.5 1-.5.1 0 .5 0 1-.1zm13.8.1c.6-.1 1.2 0 1.6.7.3.6.9.7 1.4 1 .7.3 1.2 1.6.9 2.3-.1.2-.2.4-.5.4-1.1.3-1.9 1-2.3 2.1-.1.3-.4.5-.7.5-.6.1-1.3 0-1.9-.1-.4-.1-.7-.3-.8-.7-.3-.7-.9-1.2-1.5-1.6-.6-.4-.9-1.5-.5-2.1.1-.3.3-.4.6-.5.7-.2 1.2-.6 1.6-1.3.2-.5.7-.7 1.2-.7h.9zM47.7 249.3c.1.4 0 .9-.2 1.5-.1.4-.3.9-.8.9-.4 0-.7-.3-.8-.7-.5-1.3-.8-2.6-.6-3.9.1-.6.1-1.3.4-1.9.3-.4.7-.5 1 0 .4.6.6 1.3.7 1.9.2.7.3 1.4.3 2.2zm423.4 248.1c.4-1.2 1.3-1.6 2.4-1.5 2 .2 4 .3 5.9.8.8.2 1.6.4 2.4.9-1-.1-2.1-.2-3.1-.4-1.5-.2-3-.2-4.5-.1-1.1.1-2.1.2-3.1.3zM93.9 207.7c.3 0 .6-.1.7.2.3.5.5 1 .4 1.5-.1.4-.3.8-.5 1.2-.5.8-1.1 1.6-1.6 2.4-.2.3-.4.6-.8.3-.2-.2-.3-.4-.2-.7.5-1.2.8-2.4 1.4-3.6.2-.4.5-.8.6-1.3zm-13.6 47.6c.7 0 1.2 0 1.4.6.2.5-.2.9-.6 1.2-.7.5-1.4.7-2.2.5-.6-.2-.7-.6-.4-1.1.4-.8 1-1.3 1.8-1.2zm17.8-54.4c.3.1.5.2.8.3.6.3.7.7.2 1.1-1.1.9-2.2 1.8-3.4 2.5-.1.1-.3.1-.4-.1v-.3c.2-.5.7-.8 1-1.2.6-.8 1.4-1.3 1.8-2.3zm-1.4 6.1-.3-.3c-.2-.3-.1-.6.1-.9.4-.6 1-1 1.5-1.4.8-.6 1.6-1.3 2.4-1.9.2-.2.5-.4.9-.4.1 0 .2.1.3.1v.3l-.2.2c-1.7.9-2.9 2.2-3.9 3.7-.3.3-.5.5-.8.6zM481 495.2c-1.2-.2-2.2-.3-3.3-.5-1.3-.2-2.7-.3-4 0h-.6c-.1 0-.2-.1-.2-.2s0-.2.1-.3c.5-.4 1.1-.5 1.6-.5 2 .2 3.9.5 5.8 1 .3.1.5.2.6.5zM89 210.9c.5-.4.8-1 1.1-1.5.3-.6.7-1.2 1-1.8.5.2.3.6.3.8-.2 1.4-.5 2.7-.5 4.1-.6-.5-1.2-1-1.9-1.6zm7.1 1.9c.1 1-.4 1.8-.8 2.6-.1.1-.3.1-.4.1-.2-.1-.4-.3-.3-.5 0-.3.2-.5.3-.7.3-.6.8-1.1 1.2-1.5zm8.8-8.6c-.9-.2-1.7.1-2.5.5-.5.2-.9.5-1.4.8.6-.8 1.6-1.2 2.4-1.7.6-.5 1 0 1.5.4z"/>
	<path d="M93.9 207.7c-.1-.1-.4 0-.3-.2.1-.3.1-.6.4-.8.2.3-.2.7-.1 1zm5.8-.9zm-1.6 2.5.3-.6-.3.6zm375 235.5v-.1l-.1.1zM100.3 206.1l.3-.3-.3.3zm.4-.3.3-.3-.3.3zm247.4 177.3zm48.4-2.9zM105.2 204.5l-.3-.3.3.3zm277.4 175.1zm0 0 .3-.3c-.1 0-.2.1-.3.3zM98.4 208.7zm1.6-2.3.3-.3-.3.3zm-1 1.3zm.7-.9.3-.3c-.1 0-.2.1-.3.3zm-1.6 2.5zm246.1 224.2.3.3-.3-.3zm-39.1-151.8zm-10.3 156h-.1.1zm0 0 .3.3-.3-.3zm-5.5-156zm-26.5-70.1zm122.4 235.8zm5.2 8.1zm54.5-110.8s.1 0 0 0c.1 0 0 0 0 0zM91 212.6zm383 280zM348.7 277.5zm122.4 219.9zM228.6 260.7zm204.7 245.5zm-30 11.6zM258.6 316.9zm-88 65.7c.1.9.2 1.8 0 2.6-.1.5-.5.7-1 .5-.7-.3-1.1-.8-1.1-1.6v-4.3c0-.4.1-.8.5-1.1.7-.5 1.2-.3 1.3.5.3 1.1.4 2.3.3 3.4zm26.1-226.8c-.5 0-.6.4-.8.7-1.8 2.5-4.3 3.5-7.4 3.7-6.5.4-10.9-4.6-12.3-9.3-.5-1.7-.8-3.4-.8-5.1 0-4.3.7-8.4 3.3-11.9 2.3-3.1 5.4-5 9.3-5.6 2.7-.4 5.2-.3 7.8.7 1.9.7 3.5 1.9 4.8 3.4 1.7 2 2.8 4.3 3.6 6.8 1.3 3.9 1.7 7.9 1.7 11.9 0 3.5-.4 7-1.3 10.4-.9 3.8-2.5 7.2-4.8 10.3-2.9 3.9-6.8 5.8-11.6 5.9-1.7 0-3.4 0-5.1-.7-1.2-.5-2.2-1.1-3.1-1.9-2-1.8-2.4-4.1-2-6.7.2-1.1.9-1.9 2-2.3.9-.3 1.9-.4 2.9-.2 2.5.7 3.7 4 2.2 6.1-.5.6-1.1 1.1-1.8 1.2-.3.1-.6.1-1 .2-.5.1-.6.4-.3.9.4.8 1.1 1.3 1.9 1.7 2.1.9 4.3 1.1 6.5.6 1.5-.4 2.7-1.2 3.7-2.5 1.6-2.1 2.4-4.4 2.7-7 .3-3.3.4-6.7.4-10 0-.4 0-.8-.1-1.1-.2 0-.3-.1-.4-.2zm.3-11.3v-3.4c0-2.1-.3-4.1-.7-6.1-.4-1.7-1.1-3.2-2.3-4.4-1.7-1.8-4.1-2-6.1-.5-.8.6-1.4 1.3-1.8 2.2-.4 1-.9 2-1.1 3-.9 3.5-1 7-.9 10.6 0 .6.2 1.3.2 1.9.1 2.2.5 4.3 1.1 6.3.4 1.3 1 2.4 1.9 3.3.4.4.9.7 1.5.8 3.4.7 6.1-.9 7.2-4.1.7-1.9 1-3.8 1-5.8v-3.8zm25.1-21.3c1.8-.1 3.5.2 5 1.3 1.7 1.2 2.8 2.8 2.9 4.9.1 1.5-.5 2.6-1.7 3.4l-1.5.9c-.3.2-.6.3-.6.7 0 .3.3.4.6.5.4.2.8.4 1.2.5 1.7.9 2.6 2.3 2.8 4.2v2.1c0 1.2-.4 2.2-1.2 3.1-2 2.4-4.6 3.9-7.8 4-3.1.1-5.5-1.4-6.9-4.2-.6-1.1-.7-2.4-.1-3.6.6-1.3 2-1.8 3.2-1.3.7.3 1.4 1.1 1.3 1.9-.1 1-.4 1.8-1.4 2.2-.3.2-.7.2-1.1.3-.5.2-.7.5-.6 1 .1.3.2.5.3.7 1 1.7 2.5 2.5 4.4 2.5 1.8 0 3.2-1 4-2.6.8-1.4.9-3 .9-4.5 0-1.1-.2-2.2-.6-3.3-.2-.6-.4-1.1-.8-1.6-.7-1-1.6-1.4-2.8-1.1-.4.1-.8.2-1.2.4-.5.1-1 .2-1.4.1-.4-.1-.6-.3-.6-.6 0-.4.3-.6.6-.6.5-.1 1.1-.1 1.6 0s1 .2 1.4.2c1.1 0 1.9-.4 2.3-1.4.6-1.3.7-2.6.6-4-.1-1.2-.4-2.4-.8-3.6-.4-.9-1.1-1.4-2.1-1.5-1.3-.1-2.6.2-3.6 1.2-.4.4-.4.7.2 1 .1.1.3.1.4.2 1.3 1 1.2 2.8-.3 3.6-1.6.8-3 0-3.1-1.8 0-1.4.5-2.5 1.5-3.4 1.5-1.3 3.2-1.9 5-1.8zm8.4 58c-4.1.1-8.1.1-12.2 0-.2 0-.4 0-.5-.3.4-.3.9-.2 1.4-.3l2.1-.3c.6-.1 1-.4 1.1-1 .2-1.3.2-2.6 0-3.9-.1-.6-.3-.8-1-.8h-6.1c-.5 0-.7-.4-.5-.8.2-.5.5-.9.8-1.4 3.2-5 6.4-10.1 9.5-15.1.3-.4.5-.8.9-1.2.3-.3.8-.2.9.3.1.5.1 1 .1 1.4v12.6c0 .5 0 1 .1 1.4.1.5.3.8.8.9.5.1 1.1.1 1.6.1.4 0 .8 0 1.1.2.2.1.3.3.3.6 0 .2-.2.4-.4.4-.4 0-.7 0-1.1.1-.5 0-1 0-1.4.1-.5.1-.8.3-.8.8v4c0 .8.5 1.3 1.3 1.4.8.1 1.6.2 2.3.4-.2.1-.2.3-.3.4zm-8.1-13.2v-1c0-1 .1-1.9-.1-2.9 0-.1-.2-.3-.3-.4-.1 0-.3 0-.4.1-.2.2-.4.5-.6.8l-2.7 4.2c-.6.9-1.1 1.7-1.7 2.6-.4.6-.2 1 .6 1.1 1.3.1 2.6.1 3.9 0 1 0 1.2-.3 1.3-1.3V168zm.7-15.5h9.8c.5 0 1.1-.1 1.6.2.2.1.3.3.3.5 0 .1-.1.3-.3.4-.1.1-.3.1-.5.1h-21.2c-.4 0-.7-.1-1.1-.2-.2-.1-.4-.3-.3-.5 0-.1.1-.3.3-.4.5-.3 1-.2 1.6-.2h8.7c.3.1.7.1 1.1.1zm10.6-52.3-.1-.1.1.1zM184.3 96c.3.2.4.3.6.5.2.3.7.5.5.9-.2.5-.7.5-1.1.5-.3.1-.5-.1-.5-.4.1-.5.1-1 .5-1.5zm294.9 170.7c.7-.6 1.4-.8 2.2-.7.8.1 1.6.3 2.4.3 1.3.1 2.2.8 3.1 1.5.3.2.3.4.2.7-.1.4-.3.8-.5 1.2-.7 1.5-1.5 2.8-2.6 4.1-.2.3-.5.5-.8.7-.3.2-.5.1-.6-.3v-.5c0-.4-.3-.6-.6-.6-.5-.1-1.1 0-1.6.1-1.4.3-2 0-2.6-1.5-.6-1.6-.2-2.7 1.4-3.4.6-.3 1.3-.5 1.9-.8.1-.1.3-.2.3-.4 0-.1-.2-.3-.3-.3-.4-.1-.8-.1-1.3-.2-.1.2-.3.2-.6.1zm16.1-1.1c-.4.4-1 .3-1.2.7.1.4.3.5.6.5.7.1 1.4.1 2.1.1 1.9-.1 3.1 2.4 2.5 4-.3.7-.8 1.1-1.5 1.3-.6.1-1.2.1-1.8.2-.6.1-1.2.2-1.3 1-.1.4-.4.4-.8.3-.5-.1-.9-.3-1.2-.8l-2.1-3c-.4-.5-.3-1.1 0-1.7.5-.9 1.3-1.5 2.1-1.9.9-.4 1.7-.7 2.6-.7zm-7.3 11.5c-.3 0-.6 0-.8-.1-.5-.1-.9-.5-.7-1.1.3-1.4 1-2.7 1.9-3.9.3-.4.8-.3 1.1 0 .9 1 1.4 2.2 1.5 3.5.1.6-.3 1-.9 1.1-.8.3-1.5.4-2.1.5zm-4.6-14.2c1 .1 2.3.6 2.8 1 .1.1.1.3.1.4-.1.2-.3.3-.5.3-1-.3-1.8-.8-2.4-1.7zm7.7 1.7c.1-.5.3-.9.8-1.1.6-.2 1.1-.5 1.8-.6-.6 1-1 1.2-2.6 1.7zm-11.3-1.6zm11.3 1.6zm-2.2 26.8zM477 333.6c2-2.7 4.4-4.9 7.4-6.4l-.3.3c-2.8 1.7-5 3.9-7.1 6.1zm-2 2.7c.1-.4.3-.7.6-.9l-.6.9zm9.3-9.1c.2-.1.5-.2.7-.3-.2.1-.4.2-.7.3zm-8.3 7.7c.1-.1.1-.3.2-.4 0 .1-.1.2-.2.4zm-.3.4.2-.2c-.1 0-.1.1-.2.2zm.7-1.1.2-.2c-.1.1-.1.2-.2.2zm.3-.2.2-.2c-.1 0-.2.1-.2.2zm7.3 21zm26.5-45.5c-.1.3-.2.7-.3 1 .1-.4.2-.7.3-1zm-2.9 11.3zm-1.3 20.3.1.1-.1-.1z"/>
  </svg>
  